<svg width="1080" height="656"><path d="M762.140625,85.75L762.140625,85.75C762.140625,85.75,762.140625,85.75,761.9739583333334,85.75C761.8072916666666,85.75,761.4739583333334,85.75,634.4505208333334,85.75C507.4270833333333,85.75,253.71354166666666,85.75,126.85677083333333,85.75L0,85.75" id="Koffka-unknown-outline" class="line" style="stroke: rgb(176, 176, 176); stroke-width: 2.5; fill: none;"></path><path d="M762.140625,85.75L762.140625,85.75C762.140625,85.75,762.140625,85.75,761.9739583333334,85.75C761.8072916666666,85.75,761.4739583333334,85.75,634.4505208333334,85.75C507.4270833333333,85.75,253.71354166666666,85.75,126.85677083333333,85.75L0,85.75" id="Koffka-unknown" class="line" style="stroke: rgb(255, 255, 255); stroke-width: 2; fill: none;"></path><rect id="Moscow School" fill="#fcfcfc" class="thought-group" stroke="none" width="81" height="263.7142857142857" transform="translate(0,0)"></rect><rect id="Prague Linguistic Circle" fill="#fcfcfc" class="thought-group" stroke="none" width="108" height="156.85714285714283" transform="translate(108,0)"></rect><rect id="Wittgenstein's Circle" fill="#fcfcfc" class="thought-group" stroke="none" width="75.6" height="163.14285714285714" transform="translate(248.4,0)"></rect><rect id="Vienna Circle" fill="#fcfcfc" class="thought-group" stroke="none" width="324" height="138.00000000000003" transform="translate(378,0)"></rect><path d="M71.15625,254.796875L71.15625,279.796875C71.15625,304.796875,71.15625,354.796875,71.15625,379.9635416666667C71.15625,405.1302083333333,71.15625,405.4635416666667,235.74348958333334,405.6302083333333C400.3307291666667,405.796875,729.5052083333334,405.796875,894.2591145833334,405.796875C1059.0130208333333,405.796875,1059.3463541666667,405.796875,1059.5130208333333,406.28125C1059.6796875,406.765625,1059.6796875,407.734375,1059.6796875,408.3854166666667C1059.6796875,409.0364583333333,1059.6796875,409.3697916666667,1059.6796875,409.5364583333333L1059.6796875,409.703125" id="Chelpanov-Wundt-outline" class="line" style="stroke: rgb(176, 176, 176); stroke-width: 2.5; fill: none;"></path><path d="M71.15625,254.796875L71.15625,279.796875C71.15625,304.796875,71.15625,354.796875,71.15625,379.9635416666667C71.15625,405.1302083333333,71.15625,405.4635416666667,235.74348958333334,405.6302083333333C400.3307291666667,405.796875,729.5052083333334,405.796875,894.2591145833334,405.796875C1059.0130208333333,405.796875,1059.3463541666667,405.796875,1059.5130208333333,406.28125C1059.6796875,406.765625,1059.6796875,407.734375,1059.6796875,408.3854166666667C1059.6796875,409.0364583333333,1059.6796875,409.3697916666667,1059.6796875,409.5364583333333L1059.6796875,409.703125" id="Chelpanov-Wundt" class="line" style="stroke: rgb(255, 255, 255); stroke-width: 2; fill: none;"></path><path d="M1054.6796875,409.703125L1054.6796875,410.21875C1054.6796875,410.734375,1054.6796875,411.765625,1054.6796875,412.4479166666667C1054.6796875,413.1302083333333,1054.6796875,413.4635416666667,1054.5130208333333,413.6302083333333C1054.3463541666667,413.796875,1054.0130208333333,413.796875,878.2330729166666,413.796875C702.453125,413.796875,351.2265625,413.796875,175.61328125,413.796875L0,413.796875" id="Wundt-unknown-outline" class="line" style="stroke: rgb(176, 176, 176); stroke-width: 2.5; fill: none;"></path><path d="M1054.6796875,409.703125L1054.6796875,410.21875C1054.6796875,410.734375,1054.6796875,411.765625,1054.6796875,412.4479166666667C1054.6796875,413.1302083333333,1054.6796875,413.4635416666667,1054.5130208333333,413.6302083333333C1054.3463541666667,413.796875,1054.0130208333333,413.796875,878.2330729166666,413.796875C702.453125,413.796875,351.2265625,413.796875,175.61328125,413.796875L0,413.796875" id="Wundt-unknown" class="line" style="stroke: rgb(255, 255, 255); stroke-width: 2; fill: none;"></path><rect id="Brentano's Circle" fill="#fcfcfc" class="thought-group" stroke="none" width="432" height="206.00000000000003" transform="translate(270,208.57142857142858)"></rect><rect id="Gestalt" fill="#fcfcfc" class="thought-group" stroke="none" width="297" height="156.85714285714283" transform="translate(783,0)"></rect><g class="grid-y" fill="none" font-size="10" font-family="sans-serif" text-anchor="start" style="stroke-width: 1;"><g class="tick" opacity="1" transform="translate(0,58.20725605084753)"><line stroke="currentColor" x2="1080" style="stroke: lightgrey; stroke-width: 1; stroke-opacity: 0.3; shape-rendering: crispedges;"></line><text fill="currentColor" x="4" dy="-5" style="font-family: serif; font-size: 9px; fill: rgb(170, 170, 170);">1890</text></g><g class="tick" opacity="1" transform="translate(0,121.0757136162334)"><line stroke="currentColor" x2="1080" style="stroke: lightgrey; stroke-width: 1; stroke-opacity: 0.3; shape-rendering: crispedges;"></line><text fill="currentColor" x="4" dy="-5" style="font-family: serif; font-size: 9px; fill: rgb(170, 170, 170);">1880</text></g><g class="tick" opacity="1" transform="translate(0,183.92687705653242)"><line stroke="currentColor" x2="1080" style="stroke: lightgrey; stroke-width: 1; stroke-opacity: 0.3; shape-rendering: crispedges;"></line><text fill="currentColor" x="4" dy="-5" style="font-family: serif; font-size: 9px; fill: rgb(170, 170, 170);">1870</text></g><g class="tick" opacity="1" transform="translate(0,246.79525056349092)"><line stroke="currentColor" x2="1080" style="stroke: lightgrey; stroke-width: 1; stroke-opacity: 0.3; shape-rendering: crispedges;"></line><text fill="currentColor" x="4" dy="-5" style="font-family: serif; font-size: 9px; fill: rgb(170, 170, 170);">1860</text></g><g class="tick" opacity="1" transform="translate(0,309.64641400378997)"><line stroke="currentColor" x2="1080" style="stroke: lightgrey; stroke-width: 1; stroke-opacity: 0.3; shape-rendering: crispedges;"></line><text fill="currentColor" x="4" dy="-5" style="font-family: serif; font-size: 9px; fill: rgb(170, 170, 170);">1850</text></g><g class="tick" opacity="1" transform="translate(0,372.5147875107485)"><line stroke="currentColor" x2="1080" style="stroke: lightgrey; stroke-width: 1; stroke-opacity: 0.3; shape-rendering: crispedges;"></line><text fill="currentColor" x="4" dy="-5" style="font-family: serif; font-size: 9px; fill: rgb(170, 170, 170);">1840</text></g><g class="tick" opacity="1" transform="translate(0,435.36595095104747)"><line stroke="currentColor" x2="1080" style="stroke: lightgrey; stroke-width: 1; stroke-opacity: 0.3; shape-rendering: crispedges;"></line><text fill="currentColor" x="4" dy="-5" style="font-family: serif; font-size: 9px; fill: rgb(170, 170, 170);">1830</text></g><g class="tick" opacity="1" transform="translate(0,498.2343244580059)"><line stroke="currentColor" x2="1080" style="stroke: lightgrey; stroke-width: 1; stroke-opacity: 0.3; shape-rendering: crispedges;"></line><text fill="currentColor" x="4" dy="-5" style="font-family: serif; font-size: 9px; fill: rgb(170, 170, 170);">1820</text></g><g class="tick" opacity="1" transform="translate(0,561.0854878983049)"><line stroke="currentColor" x2="1080" style="stroke: lightgrey; stroke-width: 1; stroke-opacity: 0.3; shape-rendering: crispedges;"></line><text fill="currentColor" x="4" dy="-5" style="font-family: serif; font-size: 9px; fill: rgb(170, 170, 170);">1810</text></g><g class="tick" opacity="1" transform="translate(0,623.936651338604)"><line stroke="currentColor" x2="1080" style="stroke: lightgrey; stroke-width: 1; stroke-opacity: 0.3; shape-rendering: crispedges;"></line><text fill="currentColor" x="4" dy="-5" style="font-family: serif; font-size: 9px; fill: rgb(170, 170, 170);">1800</text></g></g><g font-family="serif" font-size="8.5" text-anchor="middle"><g id="Jakobson" transform="translate(151.20000000000002,20)"><text fill="#7a7a7a" dy="0.35em">Jakobson</text><text fill="#7a7a7a" dy="12">1896</text></g><g id="Heider" transform="translate(1020.5999999999999,20)"><text fill="#7a7a7a" dy="0.35em">Heider</text><text fill="#7a7a7a" dy="12">1896</text></g><g id="Koyre" transform="translate(378,45.142857142857174)"><text fill="#7a7a7a" dy="0.35em">Koyre</text><text fill="#7a7a7a" dy="12">1892</text></g><g id="Carnap" transform="translate(507.59999999999997,51.4285714285714)"><text fill="#7a7a7a" dy="0.35em">Carnap</text><text fill="#7a7a7a" dy="12">1891</text></g><g id="Reichenbach" transform="translate(637.1999999999999,51.4285714285714)"><text fill="#7a7a7a" dy="0.35em">Reichenbach</text><text fill="#7a7a7a" dy="12">1891</text></g><g id="Trubetzkoy" transform="translate(124.2,57.71428571428569)"><text fill="#7a7a7a" dy="0.35em">Trubetzkoy</text><text fill="#7a7a7a" dy="12">1890</text></g><g id="Lewin" transform="translate(872.1,57.71428571428569)"><text fill="#7a7a7a" dy="0.35em">Lewin</text><text fill="#7a7a7a" dy="12">1890</text></g><g id="Wittgenstein" transform="translate(286.2,63.999999999999986)"><text fill="#7a7a7a" dy="0.35em">Wittgenstein</text><text fill="#7a7a7a" dy="12">1889</text></g><g id="Koffka" transform="translate(783,82.85714285714285)"><text fill="#7a7a7a" dy="0.35em">Koffka</text><text fill="#7a7a7a" dy="12">1886</text></g><g id="Mathesius" transform="translate(194.4,108.00000000000003)"><text fill="#7a7a7a" dy="0.35em">Mathesius</text><text fill="#7a7a7a" dy="12">1882</text></g><g id="Schlick" transform="translate(507.59999999999997,108.00000000000003)"><text fill="#7a7a7a" dy="0.35em">Schlick</text><text fill="#7a7a7a" dy="12">1882</text></g><g id="Neurath" transform="translate(637.1999999999999,108.00000000000003)"><text fill="#7a7a7a" dy="0.35em">Neurath</text><text fill="#7a7a7a" dy="12">1882</text></g><g id="Wertheimer" transform="translate(946.35,120.57142857142856)"><text fill="#7a7a7a" dy="0.35em">Wertheimer</text><text fill="#7a7a7a" dy="12">1880</text></g><g id="Shpet" transform="translate(118.8,126.85714285714283)"><text fill="#7a7a7a" dy="0.35em">Shpet</text><text fill="#7a7a7a" dy="12">1879</text></g><g id="Langfeld" transform="translate(857.25,126.85714285714283)"><text fill="#7a7a7a" dy="0.35em">Langfeld</text><text fill="#7a7a7a" dy="12">1879</text></g><g id="Lukasiewicz" transform="translate(286.2,133.14285714285714)"><text fill="#7a7a7a" dy="0.35em">Lukasiewicz</text><text fill="#7a7a7a" dy="12">1878</text></g><g id="Cassirer" transform="translate(729,158.2857142857143)"><text fill="#7a7a7a" dy="0.35em">Cassirer</text><text fill="#7a7a7a" dy="12">1874</text></g><g id="Russell" transform="translate(337.5,170.8571428571429)"><text fill="#7a7a7a" dy="0.35em">Russell</text><text fill="#7a7a7a" dy="12">1872</text></g><g id="Angell" transform="translate(993.6,189.7142857142857)"><text fill="#7a7a7a" dy="0.35em">Angell</text><text fill="#7a7a7a" dy="12">1869</text></g><g id="Titchener" transform="translate(1047.6,202.2857142857143)"><text fill="#7a7a7a" dy="0.35em">Titchener</text><text fill="#7a7a7a" dy="12">1867</text></g><g id="Twardowski" transform="translate(756,208.57142857142858)"><text fill="#7a7a7a" dy="0.35em">Twardowski</text><text fill="#7a7a7a" dy="12">1866</text></g><g id="Chelpanov" transform="translate(72.9,233.71428571428572)"><text fill="#7a7a7a" dy="0.35em">Chelpanov</text><text fill="#7a7a7a" dy="12">1862</text></g><g id="Hilbert" transform="translate(232.2,233.71428571428572)"><text fill="#7a7a7a" dy="0.35em">Hilbert</text><text fill="#7a7a7a" dy="12">1862</text></g><g id="Husserl" transform="translate(415.8,252.57142857142856)"><text fill="#7a7a7a" dy="0.35em">Husserl</text><text fill="#7a7a7a" dy="12">1859</text></g><g id="Ehrenfels" transform="translate(537.3,252.57142857142856)"><text fill="#7a7a7a" dy="0.35em">Ehrenfels</text><text fill="#7a7a7a" dy="12">1859</text></g><g id="Freud" transform="translate(634.5,271.4285714285714)"><text fill="#7a7a7a" dy="0.35em">Freud</text><text fill="#7a7a7a" dy="12">1856</text></g><g id="Meinong" transform="translate(756,290.28571428571433)"><text fill="#7a7a7a" dy="0.35em">Meinong</text><text fill="#7a7a7a" dy="12">1853</text></g><g id="Scherba" transform="translate(157.67999999999998,309.1428571428571)"><text fill="#7a7a7a" dy="0.35em">Scherba</text><text fill="#7a7a7a" dy="12">1850</text></g><g id="Masaryk" transform="translate(391.5,309.1428571428571)"><text fill="#7a7a7a" dy="0.35em">Masaryk</text><text fill="#7a7a7a" dy="12">1850</text></g><g id="Stumpf" transform="translate(658.8,321.7142857142857)"><text fill="#7a7a7a" dy="0.35em">Stumpf</text><text fill="#7a7a7a" dy="12">1848</text></g><g id="Marty" transform="translate(318.59999999999997,328)"><text fill="#7a7a7a" dy="0.35em">Marty</text><text fill="#7a7a7a" dy="12">1847</text></g><g id="Cantor" transform="translate(132.84,340.57142857142856)"><text fill="#7a7a7a" dy="0.35em">Cantor</text><text fill="#7a7a7a" dy="12">1845</text></g><g id="James" transform="translate(982.8000000000001,359.4285714285714)"><text fill="#7a7a7a" dy="0.35em">James</text><text fill="#7a7a7a" dy="12">1842</text></g><g id="Peirce" transform="translate(783,378.2857142857142)"><text fill="#7a7a7a" dy="0.35em">Peirce</text><text fill="#7a7a7a" dy="12">1839</text></g><g id="Ribot" transform="translate(734.4000000000001,378.2857142857142)"><text fill="#7a7a7a" dy="0.35em">Ribot</text><text fill="#7a7a7a" dy="12">1839</text></g><g id="Brentano" transform="translate(464.4,384.5714285714286)"><text fill="#7a7a7a" dy="0.35em">Brentano</text><text fill="#7a7a7a" dy="12">1838</text></g><g id="Wundt" transform="translate(1063.8,422.28571428571433)"><text fill="#7a7a7a" dy="0.35em">Wundt</text><text fill="#7a7a7a" dy="12">1832</text></g><g id="Lotze" transform="translate(669.6,516.5714285714286)"><text fill="#7a7a7a" dy="0.35em">Lotze</text><text fill="#7a7a7a" dy="12">1817</text></g><g id="Mill" transform="translate(734.4000000000001,585.7142857142857)"><text fill="#7a7a7a" dy="0.35em">Mill</text><text fill="#7a7a7a" dy="12">1806</text></g><g id="Trendelenberg" transform="translate(540,610.8571428571429)"><text fill="#7a7a7a" dy="0.35em">Trendelenberg</text><text fill="#7a7a7a" dy="12">1802</text></g><g id="Fechner" transform="translate(864,617.1428571428571)"><text fill="#7a7a7a" dy="0.35em">Fechner</text><text fill="#7a7a7a" dy="12">1801</text></g><g id="Comte" transform="translate(345.6,636)"><text fill="#7a7a7a" dy="0.35em">Comte</text><text fill="#7a7a7a" dy="12">1798</text></g></g><path d="M190.671875,129.796875L190.671875,163.2890625C190.671875,196.78125,190.671875,263.765625,190.671875,297.4244791666667C190.671875,331.0833333333333,190.671875,331.4166666666667,190.83854166666666,331.5833333333333C191.00520833333334,331.75,191.33854166666666,331.75,209.34635416666666,331.75C227.35416666666666,331.75,263.0364583333333,331.75,280.8776041666667,331.75L298.71875,331.75" id="Mathesius-Marty-outline" class="line" style="stroke: rgb(176, 176, 176); stroke-width: 2.5; fill: none;"></path><path d="M190.671875,129.796875L190.671875,163.2890625C190.671875,196.78125,190.671875,263.765625,190.671875,297.4244791666667C190.671875,331.0833333333333,190.671875,331.4166666666667,190.83854166666666,331.5833333333333C191.00520833333334,331.75,191.33854166666666,331.75,209.34635416666666,331.75C227.35416666666666,331.75,263.0364583333333,331.75,280.8776041666667,331.75L298.71875,331.75" id="Mathesius-Marty" class="line" style="stroke: rgb(255, 255, 255); stroke-width: 2; fill: none;"></path><path d="M195.671875,129.796875L195.671875,160.12239583333334C195.671875,190.44791666666666,195.671875,251.09895833333334,195.671875,281.5911458333333C195.671875,312.0833333333333,195.671875,312.4166666666667,195.83854166666666,312.5833333333333C196.00520833333334,312.75,196.33854166666666,312.75,224.93229166666666,312.75C253.52604166666666,312.75,310.3802083333333,312.75,338.8072916666667,312.75L367.234375,312.75" id="Mathesius-Masaryk-outline" class="line" style="stroke: rgb(176, 176, 176); stroke-width: 2.5; fill: none;"></path><path d="M195.671875,129.796875L195.671875,160.12239583333334C195.671875,190.44791666666666,195.671875,251.09895833333334,195.671875,281.5911458333333C195.671875,312.0833333333333,195.671875,312.4166666666667,195.83854166666666,312.5833333333333C196.00520833333334,312.75,196.33854166666666,312.75,224.93229166666666,312.75C253.52604166666666,312.75,310.3802083333333,312.75,338.8072916666667,312.75L367.234375,312.75" id="Mathesius-Masaryk" class="line" style="stroke: rgb(255, 255, 255); stroke-width: 2; fill: none;"></path><path d="M445.65625,371.703125L445.65625,364.6276041666667C445.65625,357.5520833333333,445.65625,343.4010416666667,445.4895833333333,336.3255208333333C445.3229166666667,329.25,444.9895833333333,329.25,426.9791666666667,329.25C408.96875,329.25,373.28125,329.25,355.4375,329.25L337.59375,329.25" id="Brentano-Marty-outline" class="line" style="stroke: rgb(176, 176, 176); stroke-width: 2.5; fill: none;"></path><path d="M445.65625,371.703125L445.65625,364.6276041666667C445.65625,357.5520833333333,445.65625,343.4010416666667,445.4895833333333,336.3255208333333C445.3229166666667,329.25,444.9895833333333,329.25,426.9791666666667,329.25C408.96875,329.25,373.28125,329.25,355.4375,329.25L337.59375,329.25" id="Brentano-Marty" class="line" style="stroke: rgb(255, 255, 255); stroke-width: 2; fill: none;"></path><path d="M450.65625,371.703125L450.65625,361.8776041666667C450.65625,352.0520833333333,450.65625,332.4010416666667,450.4895833333333,322.5755208333333C450.3229166666667,312.75,449.9895833333333,312.75,444.0572916666667,312.75C438.125,312.75,426.59375,312.75,420.828125,312.75L415.0625,312.75" id="Brentano-Masaryk-outline" class="line" style="stroke: rgb(176, 176, 176); stroke-width: 2.5; fill: none;"></path><path d="M450.65625,371.703125L450.65625,361.8776041666667C450.65625,352.0520833333333,450.65625,332.4010416666667,450.4895833333333,322.5755208333333C450.3229166666667,312.75,449.9895833333333,312.75,444.0572916666667,312.75C438.125,312.75,426.59375,312.75,420.828125,312.75L415.0625,312.75" id="Brentano-Masaryk" class="line" style="stroke: rgb(255, 255, 255); stroke-width: 2; fill: none;"></path><path d="M455.65625,371.703125L455.65625,352.3776041666667C455.65625,333.0520833333333,455.65625,294.4010416666667,455.4895833333333,275.0755208333333C455.3229166666667,255.75,454.9895833333333,255.75,451.921875,255.75C448.8541666666667,255.75,443.0520833333333,255.75,440.1510416666667,255.75L437.25,255.75" id="Brentano-Husserl-outline" class="line" style="stroke: rgb(176, 176, 176); stroke-width: 2.5; fill: none;"></path><path d="M455.65625,371.703125L455.65625,352.3776041666667C455.65625,333.0520833333333,455.65625,294.4010416666667,455.4895833333333,275.0755208333333C455.3229166666667,255.75,454.9895833333333,255.75,451.921875,255.75C448.8541666666667,255.75,443.0520833333333,255.75,440.1510416666667,255.75L437.25,255.75" id="Brentano-Husserl" class="line" style="stroke: rgb(255, 255, 255); stroke-width: 2; fill: none;"></path><path d="M460.65625,371.703125L460.65625,345.0442708333333C460.65625,318.3854166666667,460.65625,265.0677083333333,460.8229166666667,238.40885416666666C460.9895833333333,211.75,461.3229166666667,211.75,505.5729166666667,211.75C549.8229166666666,211.75,637.9895833333334,211.75,682.0729166666666,211.75L726.15625,211.75" id="Brentano-Twardowski-outline" class="line" style="stroke: rgb(176, 176, 176); stroke-width: 2.5; fill: none;"></path><path d="M460.65625,371.703125L460.65625,345.0442708333333C460.65625,318.3854166666667,460.65625,265.0677083333333,460.8229166666667,238.40885416666666C460.9895833333333,211.75,461.3229166666667,211.75,505.5729166666667,211.75C549.8229166666666,211.75,637.9895833333334,211.75,682.0729166666666,211.75L726.15625,211.75" id="Brentano-Twardowski" class="line" style="stroke: rgb(255, 255, 255); stroke-width: 2; fill: none;"></path><path d="M465.65625,371.703125L465.65625,352.3776041666667C465.65625,333.0520833333333,465.65625,294.4010416666667,465.8229166666667,275.0755208333333C465.9895833333333,255.75,466.3229166666667,255.75,474.0182291666667,255.75C481.7135416666667,255.75,496.7708333333333,255.75,504.2994791666667,255.75L511.828125,255.75" id="Brentano-Ehrenfels-outline" class="line" style="stroke: rgb(176, 176, 176); stroke-width: 2.5; fill: none;"></path><path d="M465.65625,371.703125L465.65625,352.3776041666667C465.65625,333.0520833333333,465.65625,294.4010416666667,465.8229166666667,275.0755208333333C465.9895833333333,255.75,466.3229166666667,255.75,474.0182291666667,255.75C481.7135416666667,255.75,496.7708333333333,255.75,504.2994791666667,255.75L511.828125,255.75" id="Brentano-Ehrenfels" class="line" style="stroke: rgb(255, 255, 255); stroke-width: 2; fill: none;"></path><path d="M470.65625,371.703125L470.65625,355.5442708333333C470.65625,339.3854166666667,470.65625,307.0677083333333,470.8229166666667,290.9088541666667C470.9895833333333,274.75,471.3229166666667,274.75,495.4114583333333,274.75C519.5,274.75,567.34375,274.75,591.265625,274.75L615.1875,274.75" id="Brentano-Freud-outline" class="line" style="stroke: rgb(176, 176, 176); stroke-width: 2.5; fill: none;"></path><path d="M470.65625,371.703125L470.65625,355.5442708333333C470.65625,339.3854166666667,470.65625,307.0677083333333,470.8229166666667,290.9088541666667C470.9895833333333,274.75,471.3229166666667,274.75,495.4114583333333,274.75C519.5,274.75,567.34375,274.75,591.265625,274.75L615.1875,274.75" id="Brentano-Freud" class="line" style="stroke: rgb(255, 255, 255); stroke-width: 2; fill: none;"></path><path d="M475.65625,371.703125L475.65625,358.7109375C475.65625,345.71875,475.65625,319.734375,475.8229166666667,306.7421875C475.9895833333333,293.75,476.3229166666667,293.75,519.0078125,293.75C561.6927083333334,293.75,646.7291666666666,293.75,689.2473958333334,293.75L731.765625,293.75" id="Brentano-Meinong-outline" class="line" style="stroke: rgb(176, 176, 176); stroke-width: 2.5; fill: none;"></path><path d="M475.65625,371.703125L475.65625,358.7109375C475.65625,345.71875,475.65625,319.734375,475.8229166666667,306.7421875C475.9895833333333,293.75,476.3229166666667,293.75,519.0078125,293.75C561.6927083333334,293.75,646.7291666666666,293.75,689.2473958333334,293.75L731.765625,293.75" id="Brentano-Meinong" class="line" style="stroke: rgb(255, 255, 255); stroke-width: 2; fill: none;"></path><path d="M480.65625,371.703125L480.65625,363.8776041666667C480.65625,356.0520833333333,480.65625,340.4010416666667,480.8229166666667,332.5755208333333C480.9895833333333,324.75,481.3229166666667,324.75,507.3125,324.75C533.3020833333334,324.75,584.9479166666666,324.75,610.7708333333334,324.75L636.59375,324.75" id="Brentano-Stumpf-outline" class="line" style="stroke: rgb(176, 176, 176); stroke-width: 2.5; fill: none;"></path><path d="M480.65625,371.703125L480.65625,363.8776041666667C480.65625,356.0520833333333,480.65625,340.4010416666667,480.8229166666667,332.5755208333333C480.9895833333333,324.75,481.3229166666667,324.75,507.3125,324.75C533.3020833333334,324.75,584.9479166666666,324.75,610.7708333333334,324.75L636.59375,324.75" id="Brentano-Stumpf" class="line" style="stroke: rgb(255, 255, 255); stroke-width: 2; fill: none;"></path><path d="M458.15625,405.796875L458.15625,444.6223958333333C458.15625,483.4479166666667,458.15625,561.0989583333334,458.15625,600.0911458333334C458.15625,639.0833333333334,458.15625,639.4166666666666,457.9895833333333,639.5833333333334C457.8229166666667,639.75,457.4895833333333,639.75,441.9817708333333,639.75C426.4739583333333,639.75,395.7916666666667,639.75,380.4505208333333,639.75L365.109375,639.75" id="Brentano-Comte-outline" class="line" style="stroke: rgb(176, 176, 176); stroke-width: 2.5; stroke-dasharray: 7, 7; fill: none;"></path><path d="M458.15625,405.796875L458.15625,444.6223958333333C458.15625,483.4479166666667,458.15625,561.0989583333334,458.15625,600.0911458333334C458.15625,639.0833333333334,458.15625,639.4166666666666,457.9895833333333,639.5833333333334C457.8229166666667,639.75,457.4895833333333,639.75,441.9817708333333,639.75C426.4739583333333,639.75,395.7916666666667,639.75,380.4505208333333,639.75L365.109375,639.75" id="Brentano-Comte" class="line" style="stroke: rgb(255, 255, 255); stroke-width: 2; stroke-dasharray: 7, 7; fill: none;"></path><path d="M463.15625,405.796875L463.15625,439.8723958333333C463.15625,473.9479166666667,463.15625,542.0989583333334,463.15625,576.3411458333334C463.15625,610.5833333333334,463.15625,610.9166666666666,463.3229166666667,611.0833333333334C463.4895833333333,611.25,463.8229166666667,611.25,471.0572916666667,611.25C478.2916666666667,611.25,492.4270833333333,611.25,499.4947916666667,611.25L506.5625,611.25" id="Brentano-Trendelenberg-outline" class="line" style="stroke: rgb(176, 176, 176); stroke-width: 2.5; stroke-dasharray: 7, 7; fill: none;"></path><path d="M463.15625,405.796875L463.15625,439.8723958333333C463.15625,473.9479166666667,463.15625,542.0989583333334,463.15625,576.3411458333334C463.15625,610.5833333333334,463.15625,610.9166666666666,463.3229166666667,611.0833333333334C463.4895833333333,611.25,463.8229166666667,611.25,471.0572916666667,611.25C478.2916666666667,611.25,492.4270833333333,611.25,499.4947916666667,611.25L506.5625,611.25" id="Brentano-Trendelenberg" class="line" style="stroke: rgb(255, 255, 255); stroke-width: 2; stroke-dasharray: 7, 7; fill: none;"></path><path d="M468.15625,405.796875L468.15625,436.1223958333333C468.15625,466.4479166666667,468.15625,527.0989583333334,468.15625,557.5911458333334C468.15625,588.0833333333334,468.15625,588.4166666666666,468.3229166666667,588.5833333333334C468.4895833333333,588.75,468.8229166666667,588.75,510.2317708333333,588.75C551.640625,588.75,634.125,588.75,675.3671875,588.75L716.609375,588.75" id="Brentano-Mill-outline" class="line" style="stroke: rgb(176, 176, 176); stroke-width: 2.5; stroke-dasharray: 7, 7; fill: none;"></path><path d="M468.15625,405.796875L468.15625,436.1223958333333C468.15625,466.4479166666667,468.15625,527.0989583333334,468.15625,557.5911458333334C468.15625,588.0833333333334,468.15625,588.4166666666666,468.3229166666667,588.5833333333334C468.4895833333333,588.75,468.8229166666667,588.75,510.2317708333333,588.75C551.640625,588.75,634.125,588.75,675.3671875,588.75L716.609375,588.75" id="Brentano-Mill" class="line" style="stroke: rgb(255, 255, 255); stroke-width: 2; stroke-dasharray: 7, 7; fill: none;"></path><path d="M832.765625,129.75L832.765625,161.66666666666666C832.765625,193.58333333333334,832.765625,257.4166666666667,832.765625,289.5C832.765625,321.5833333333333,832.765625,321.9166666666667,832.5989583333334,322.0833333333333C832.4322916666666,322.25,832.0989583333334,322.25,806.6744791666666,322.25C781.25,322.25,730.734375,322.25,705.4765625,322.25L680.21875,322.25" id="Langfeld-Stumpf-outline" class="line" style="stroke: rgb(176, 176, 176); stroke-width: 2.5; fill: none;"></path><path d="M832.765625,129.75L832.765625,161.66666666666666C832.765625,193.58333333333334,832.765625,257.4166666666667,832.765625,289.5C832.765625,321.5833333333333,832.765625,321.9166666666667,832.5989583333334,322.0833333333333C832.4322916666666,322.25,832.0989583333334,322.25,806.6744791666666,322.25C781.25,322.25,730.734375,322.25,705.4765625,322.25L680.21875,322.25" id="Langfeld-Stumpf" class="line" style="stroke: rgb(255, 255, 255); stroke-width: 2; fill: none;"></path><path d="M917.15625,123.75L917.15625,157.5C917.15625,191.25,917.15625,258.75,917.15625,292.6666666666667C917.15625,326.5833333333333,917.15625,326.9166666666667,916.9895833333334,327.0833333333333C916.8229166666666,327.25,916.4895833333334,327.25,877,327.25C837.5104166666666,327.25,758.8645833333334,327.25,719.5416666666666,327.25L680.21875,327.25" id="Wertheimer-Stumpf-outline" class="line" style="stroke: rgb(176, 176, 176); stroke-width: 2.5; fill: none;"></path><path d="M917.15625,123.75L917.15625,157.5C917.15625,191.25,917.15625,258.75,917.15625,292.6666666666667C917.15625,326.5833333333333,917.15625,326.9166666666667,916.9895833333334,327.0833333333333C916.8229166666666,327.25,916.4895833333334,327.25,877,327.25C837.5104166666666,327.25,758.8645833333334,327.25,719.5416666666666,327.25L680.21875,327.25" id="Wertheimer-Stumpf" class="line" style="stroke: rgb(255, 255, 255); stroke-width: 2; fill: none;"></path><path d="M1019.4140625,41.796875L1019.4140625,55.2890625C1019.4140625,68.78125,1019.4140625,95.765625,1019.4140625,109.42447916666667C1019.4140625,123.08333333333333,1019.4140625,123.41666666666667,1019.2473958333334,123.58333333333333C1019.0807291666666,123.75,1018.7473958333334,123.75,1011.4544270833334,123.75C1004.1614583333334,123.75,989.9088541666666,123.75,982.7825520833334,123.75L975.65625,123.75" id="Heider-Wertheimer-outline" class="line" style="stroke: rgb(176, 176, 176); stroke-width: 2.5; fill: none;"></path><path d="M1019.4140625,41.796875L1019.4140625,55.2890625C1019.4140625,68.78125,1019.4140625,95.765625,1019.4140625,109.42447916666667C1019.4140625,123.08333333333333,1019.4140625,123.41666666666667,1019.2473958333334,123.58333333333333C1019.0807291666666,123.75,1018.7473958333334,123.75,1011.4544270833334,123.75C1004.1614583333334,123.75,989.9088541666666,123.75,982.7825520833334,123.75L975.65625,123.75" id="Heider-Wertheimer" class="line" style="stroke: rgb(255, 255, 255); stroke-width: 2; fill: none;"></path><path d="M728.4140625,145.703125L728.4140625,131.54427083333334C728.4140625,117.38541666666667,728.4140625,89.06770833333333,728.5807291666666,74.90885416666667C728.7473958333334,60.75,729.0807291666666,60.75,749.7200520833334,60.75C770.359375,60.75,811.3046875,60.75,831.77734375,60.75L852.25,60.75" id="Cassirer-Lewin-outline" class="line" style="stroke: rgb(176, 176, 176); stroke-width: 2.5; fill: none;"></path><path d="M728.4140625,145.703125L728.4140625,131.54427083333334C728.4140625,117.38541666666667,728.4140625,89.06770833333333,728.5807291666666,74.90885416666667C728.7473958333334,60.75,729.0807291666666,60.75,749.7200520833334,60.75C770.359375,60.75,811.3046875,60.75,831.77734375,60.75L852.25,60.75" id="Cassirer-Lewin" class="line" style="stroke: rgb(255, 255, 255); stroke-width: 2; fill: none;"></path><path d="M150.15625,41.796875L150.15625,56.2890625C150.15625,70.78125,150.15625,99.765625,150.15625,114.42447916666667C150.15625,129.08333333333334,150.15625,129.41666666666666,149.98958333333334,129.58333333333334C149.82291666666666,129.75,149.48958333333334,129.75,147.2890625,129.75C145.08854166666666,129.75,141.02083333333334,129.75,138.98697916666666,129.75L136.953125,129.75" id="Jakobson-Shpet-outline" class="line" style="stroke: rgb(176, 176, 176); stroke-width: 2.5; fill: none;"></path><path d="M150.15625,41.796875L150.15625,56.2890625C150.15625,70.78125,150.15625,99.765625,150.15625,114.42447916666667C150.15625,129.08333333333334,150.15625,129.41666666666666,149.98958333333334,129.58333333333334C149.82291666666666,129.75,149.48958333333334,129.75,147.2890625,129.75C145.08854166666666,129.75,141.02083333333334,129.75,138.98697916666666,129.75L136.953125,129.75" id="Jakobson-Shpet" class="line" style="stroke: rgb(255, 255, 255); stroke-width: 2; fill: none;"></path><path d="M336.1875,157.703125L336.1875,142.54427083333334C336.1875,127.38541666666667,336.1875,97.06770833333333,336.0208333333333,81.90885416666667C335.8541666666667,66.75,335.5208333333333,66.75,332.2786458333333,66.75C329.0364583333333,66.75,322.8854166666667,66.75,319.8098958333333,66.75L316.734375,66.75" id="Russell-Wittgenstein-outline" class="line" style="stroke: rgb(176, 176, 176); stroke-width: 2.5; fill: none;"></path><path d="M336.1875,157.703125L336.1875,142.54427083333334C336.1875,127.38541666666667,336.1875,97.06770833333333,336.0208333333333,81.90885416666667C335.8541666666667,66.75,335.5208333333333,66.75,332.2786458333333,66.75C329.0364583333333,66.75,322.8854166666667,66.75,319.8098958333333,66.75L316.734375,66.75" id="Russell-Wittgenstein" class="line" style="stroke: rgb(255, 255, 255); stroke-width: 2; fill: none;"></path><path d="M231.1796875,254.796875L231.1796875,254.95572916666666C231.1796875,255.11458333333334,231.1796875,255.43229166666666,231.34635416666666,255.59114583333334C231.51302083333334,255.75,231.84635416666666,255.75,258.8372395833333,255.75C285.828125,255.75,339.4765625,255.75,366.30078125,255.75L393.125,255.75" id="Hilbert-Husserl-outline" class="line" style="stroke: rgb(176, 176, 176); stroke-width: 2.5; stroke-linecap: round; stroke-dasharray: 1, 10; fill: none;"></path><path d="M231.1796875,254.796875L231.1796875,254.95572916666666C231.1796875,255.11458333333334,231.1796875,255.43229166666666,231.34635416666666,255.59114583333334C231.51302083333334,255.75,231.84635416666666,255.75,258.8372395833333,255.75C285.828125,255.75,339.4765625,255.75,366.30078125,255.75L393.125,255.75" id="Hilbert-Husserl" class="line" style="stroke: rgb(255, 255, 255); stroke-width: 2; stroke-linecap: round; stroke-dasharray: 1, 10; fill: none;"></path><path d="M71.15625,220.703125L71.15625,205.54427083333334C71.15625,190.38541666666666,71.15625,160.06770833333334,71.32291666666667,144.90885416666666C71.48958333333333,129.75,71.82291666666667,129.75,76.53385416666667,129.75C81.24479166666667,129.75,90.33333333333333,129.75,94.87760416666667,129.75L99.421875,129.75" id="Chelpanov-Shpet-outline" class="line" style="stroke: rgb(176, 176, 176); stroke-width: 2.5; fill: none;"></path><path d="M71.15625,220.703125L71.15625,205.54427083333334C71.15625,190.38541666666666,71.15625,160.06770833333334,71.32291666666667,144.90885416666666C71.48958333333333,129.75,71.82291666666667,129.75,76.53385416666667,129.75C81.24479166666667,129.75,90.33333333333333,129.75,94.87760416666667,129.75L99.421875,129.75" id="Chelpanov-Shpet" class="line" style="stroke: rgb(255, 255, 255); stroke-width: 2; fill: none;"></path><path d="M1069.6796875,409.703125L1069.6796875,378.71875C1069.6796875,347.734375,1069.6796875,285.765625,1069.5130208333333,254.78125C1069.3463541666667,223.796875,1069.0130208333333,223.796875,1065.1354166666667,223.796875C1061.2578125,223.796875,1053.8359375,223.796875,1050.125,223.796875L1046.4140625,223.796875" id="Wundt-Titchener-outline" class="line" style="stroke: rgb(176, 176, 176); stroke-width: 2.5; fill: none;"></path><path d="M1069.6796875,409.703125L1069.6796875,378.71875C1069.6796875,347.734375,1069.6796875,285.765625,1069.5130208333333,254.78125C1069.3463541666667,223.796875,1069.0130208333333,223.796875,1065.1354166666667,223.796875C1061.2578125,223.796875,1053.8359375,223.796875,1050.125,223.796875L1046.4140625,223.796875" id="Wundt-Titchener" class="line" style="stroke: rgb(255, 255, 255); stroke-width: 2; fill: none;"></path><path d="M337.59375,334.25L354.1041666666667,334.25C370.6145833333333,334.25,403.6354166666667,334.25,420.3125,334.25C436.9895833333333,334.25,437.3229166666667,334.25,437.4895833333333,381.0833333333333C437.65625,427.9166666666667,437.65625,521.5833333333334,437.65625,568.5833333333334C437.65625,615.5833333333334,437.65625,615.9166666666666,448.9739583333333,616.0833333333334C460.2916666666667,616.25,482.9270833333333,616.25,494.4114583333333,616.25C505.8958333333333,616.25,506.2291666666667,616.25,506.3958333333333,616.25L506.5625,616.25" id="Marty-Trendelenberg-outline" class="line" style="stroke: rgb(176, 176, 176); stroke-width: 2.5; fill: none;"></path><path d="M337.59375,334.25L354.1041666666667,334.25C370.6145833333333,334.25,403.6354166666667,334.25,420.3125,334.25C436.9895833333333,334.25,437.3229166666667,334.25,437.4895833333333,381.0833333333333C437.65625,427.9166666666667,437.65625,521.5833333333334,437.65625,568.5833333333334C437.65625,615.5833333333334,437.65625,615.9166666666666,448.9739583333333,616.0833333333334C460.2916666666667,616.25,482.9270833333333,616.25,494.4114583333333,616.25C505.8958333333333,616.25,506.2291666666667,616.25,506.3958333333333,616.25L506.5625,616.25" id="Marty-Trendelenberg" class="line" style="stroke: rgb(255, 255, 255); stroke-width: 2; fill: none;"></path><path d="M1064.6796875,409.703125L1064.6796875,380.21875C1064.6796875,350.734375,1064.6796875,291.765625,1064.6796875,262.1145833333333C1064.6796875,232.46354166666666,1064.6796875,232.13020833333334,1052.765625,231.96354166666666C1040.8515625,231.796875,1017.0234375,231.796875,1004.9427083333334,231.796875C992.8619791666666,231.796875,992.5286458333334,231.796875,992.3619791666666,228.46354166666666C992.1953125,225.13020833333334,992.1953125,218.46354166666666,992.1953125,214.96354166666666C992.1953125,211.46354166666666,992.1953125,211.13020833333334,992.1953125,210.96354166666666L992.1953125,210.796875" id="Wundt-Angell-outline" class="line" style="stroke: rgb(176, 176, 176); stroke-width: 2.5; fill: none;"></path><path d="M1064.6796875,409.703125L1064.6796875,380.21875C1064.6796875,350.734375,1064.6796875,291.765625,1064.6796875,262.1145833333333C1064.6796875,232.46354166666666,1064.6796875,232.13020833333334,1052.765625,231.96354166666666C1040.8515625,231.796875,1017.0234375,231.796875,1004.9427083333334,231.796875C992.8619791666666,231.796875,992.5286458333334,231.796875,992.3619791666666,228.46354166666666C992.1953125,225.13020833333334,992.1953125,218.46354166666666,992.1953125,214.96354166666666C992.1953125,211.46354166666666,992.1953125,211.13020833333334,992.1953125,210.96354166666666L992.1953125,210.796875" id="Wundt-Angell" class="line" style="stroke: rgb(255, 255, 255); stroke-width: 2; fill: none;"></path><circle class="point" r="2" cx="190.671875" cy="129.796875" stroke="#b0b0b0" stroke-width="0.5" fill="#ffffff"></circle><circle class="point" r="2" cx="195.671875" cy="129.796875" stroke="#b0b0b0" stroke-width="0.5" fill="#ffffff"></circle><circle class="point" r="2" cx="445.65625" cy="371.703125" stroke="#b0b0b0" stroke-width="0.5" fill="#ffffff"></circle><circle class="point" r="2" cx="450.65625" cy="371.703125" stroke="#b0b0b0" stroke-width="0.5" fill="#ffffff"></circle><circle class="point" r="2" cx="455.65625" cy="371.703125" stroke="#b0b0b0" stroke-width="0.5" fill="#ffffff"></circle><circle class="point" r="2" cx="460.65625" cy="371.703125" stroke="#b0b0b0" stroke-width="0.5" fill="#ffffff"></circle><circle class="point" r="2" cx="465.65625" cy="371.703125" stroke="#b0b0b0" stroke-width="0.5" fill="#ffffff"></circle><circle class="point" r="2" cx="470.65625" cy="371.703125" stroke="#b0b0b0" stroke-width="0.5" fill="#ffffff"></circle><circle class="point" r="2" cx="475.65625" cy="371.703125" stroke="#b0b0b0" stroke-width="0.5" fill="#ffffff"></circle><circle class="point" r="2" cx="480.65625" cy="371.703125" stroke="#b0b0b0" stroke-width="0.5" fill="#ffffff"></circle><circle class="point" r="2" cx="458.15625" cy="405.796875" stroke="#b0b0b0" stroke-width="0.5" fill="#ffffff"></circle><circle class="point" r="2" cx="463.15625" cy="405.796875" stroke="#b0b0b0" stroke-width="0.5" fill="#ffffff"></circle><circle class="point" r="2" cx="468.15625" cy="405.796875" stroke="#b0b0b0" stroke-width="0.5" fill="#ffffff"></circle><circle class="point" r="2" cx="298.71875" cy="331.75" stroke="#b0b0b0" stroke-width="0.5" fill="#ffffff"></circle><circle class="point" r="2" cx="337.59375" cy="329.25" stroke="#b0b0b0" stroke-width="0.5" fill="#ffffff"></circle><circle class="point" r="2" cx="337.59375" cy="334.25" stroke="#b0b0b0" stroke-width="0.5" fill="#ffffff"></circle><circle class="point" r="2" cx="367.234375" cy="312.75" stroke="#b0b0b0" stroke-width="0.5" fill="#ffffff"></circle><circle class="point" r="2" cx="415.0625" cy="312.75" stroke="#b0b0b0" stroke-width="0.5" fill="#ffffff"></circle><circle class="point" r="2" cx="726.15625" cy="211.75" stroke="#b0b0b0" stroke-width="0.5" fill="#ffffff"></circle><circle class="point" r="2" cx="393.125" cy="255.75" stroke="#b0b0b0" stroke-width="0.5" fill="#ffffff"></circle><circle class="point" r="2" cx="437.25" cy="255.75" stroke="#b0b0b0" stroke-width="0.5" fill="#ffffff"></circle><circle class="point" r="2" cx="511.828125" cy="255.75" stroke="#b0b0b0" stroke-width="0.5" fill="#ffffff"></circle><circle class="point" r="2" cx="615.1875" cy="274.75" stroke="#b0b0b0" stroke-width="0.5" fill="#ffffff"></circle><circle class="point" r="2" cx="731.765625" cy="293.75" stroke="#b0b0b0" stroke-width="0.5" fill="#ffffff"></circle><circle class="point" r="2" cx="636.59375" cy="324.75" stroke="#b0b0b0" stroke-width="0.5" fill="#ffffff"></circle><circle class="point" r="2" cx="680.21875" cy="322.25" stroke="#b0b0b0" stroke-width="0.5" fill="#ffffff"></circle><circle class="point" r="2" cx="680.21875" cy="327.25" stroke="#b0b0b0" stroke-width="0.5" fill="#ffffff"></circle><circle class="point" r="2" cx="365.109375" cy="639.75" stroke="#b0b0b0" stroke-width="0.5" fill="#ffffff"></circle><circle class="point" r="2" cx="506.5625" cy="611.25" stroke="#b0b0b0" stroke-width="0.5" fill="#ffffff"></circle><circle class="point" r="2" cx="506.5625" cy="616.25" stroke="#b0b0b0" stroke-width="0.5" fill="#ffffff"></circle><circle class="point" r="2" cx="716.609375" cy="588.75" stroke="#b0b0b0" stroke-width="0.5" fill="#ffffff"></circle><circle class="point" r="2" cx="832.765625" cy="129.75" stroke="#b0b0b0" stroke-width="0.5" fill="#ffffff"></circle><circle class="point" r="2" cx="975.65625" cy="123.75" stroke="#b0b0b0" stroke-width="0.5" fill="#ffffff"></circle><circle class="point" r="2" cx="917.15625" cy="123.75" stroke="#b0b0b0" stroke-width="0.5" fill="#ffffff"></circle><circle class="point" r="2" cx="1019.4140625" cy="41.796875" stroke="#b0b0b0" stroke-width="0.5" fill="#ffffff"></circle><circle class="point" r="2" cx="728.4140625" cy="145.703125" stroke="#b0b0b0" stroke-width="0.5" fill="#ffffff"></circle><circle class="point" r="2" cx="762.140625" cy="85.75" stroke="#b0b0b0" stroke-width="0.5" fill="#ffffff"></circle><circle class="point" r="2" cx="852.25" cy="60.75" stroke="#b0b0b0" stroke-width="0.5" fill="#ffffff"></circle><circle class="point" r="2" cx="99.421875" cy="129.75" stroke="#b0b0b0" stroke-width="0.5" fill="#ffffff"></circle><circle class="point" r="2" cx="136.953125" cy="129.75" stroke="#b0b0b0" stroke-width="0.5" fill="#ffffff"></circle><circle class="point" r="2" cx="150.15625" cy="41.796875" stroke="#b0b0b0" stroke-width="0.5" fill="#ffffff"></circle><circle class="point" r="2" cx="231.1796875" cy="254.796875" stroke="#b0b0b0" stroke-width="0.5" fill="#ffffff"></circle><circle class="point" r="2" cx="71.15625" cy="220.703125" stroke="#b0b0b0" stroke-width="0.5" fill="#ffffff"></circle><circle class="point" r="2" cx="71.15625" cy="254.796875" stroke="#b0b0b0" stroke-width="0.5" fill="#ffffff"></circle><circle class="point" r="2" cx="316.734375" cy="66.75" stroke="#b0b0b0" stroke-width="0.5" fill="#ffffff"></circle><circle class="point" r="2" cx="336.1875" cy="157.703125" stroke="#b0b0b0" stroke-width="0.5" fill="#ffffff"></circle><circle class="point" r="2" cx="1054.6796875" cy="409.703125" stroke="#b0b0b0" stroke-width="0.5" fill="#ffffff"></circle><circle class="point" r="2" cx="1059.6796875" cy="409.703125" stroke="#b0b0b0" stroke-width="0.5" fill="#ffffff"></circle><circle class="point" r="2" cx="1064.6796875" cy="409.703125" stroke="#b0b0b0" stroke-width="0.5" fill="#ffffff"></circle><circle class="point" r="2" cx="1069.6796875" cy="409.703125" stroke="#b0b0b0" stroke-width="0.5" fill="#ffffff"></circle><circle class="point" r="2" cx="992.1953125" cy="210.796875" stroke="#b0b0b0" stroke-width="0.5" fill="#ffffff"></circle><circle class="point" r="2" cx="1046.4140625" cy="223.796875" stroke="#b0b0b0" stroke-width="0.5" fill="#ffffff"></circle></svg>
