<svg width="165.60000000000002" height="240"><g font-family="serif" font-size="6" letter-spacing="0.5px" text-anchor="left"><g class="legend-element" id="solid" transform="translate(0,20)"><line x1="0" x2="165.60000000000002" y1="0" y2="0" style="stroke: rgb(204, 204, 204); stroke-dasharray: none; stroke-width: 2; fill: none;"></line></g><g class="legend-element" id="dashed" transform="translate(0,40)"><line x1="0" x2="165.60000000000002" y1="0" y2="0" style="stroke: rgb(204, 204, 204); stroke-dasharray: 5, 5; stroke-width: 2; fill: none;"></line></g><g class="legend-element" id="dotted" transform="translate(0,60)"><line x1="0" x2="165.60000000000002" y1="0" y2="0" style="stroke: rgb(204, 204, 204); stroke-dasharray: 1, 5; stroke-linecap: round; stroke-width: 2; fill: none;"></line></g><g class="legend-element" id="linguist" transform="translate(0,80)"><line x1="0" x2="165.60000000000002" y1="0" y2="0" style="stroke: rgb(247, 193, 17); stroke-dasharray: none; stroke-width: 2; fill: none;"></line></g><g class="legend-element" id="philosopher" transform="translate(0,100)"><line x1="0" x2="165.60000000000002" y1="0" y2="0" style="stroke: rgb(127, 199, 139); stroke-dasharray: none; stroke-width: 2; fill: none;"></line></g><g class="legend-element" id="psychologist" transform="translate(0,120)"><line x1="0" x2="165.60000000000002" y1="0" y2="0" style="stroke: rgb(127, 176, 199); stroke-dasharray: none; stroke-width: 2; fill: none;"></line></g><g class="legend-element" id="mathematician" transform="translate(0,140)"><line x1="0" x2="165.60000000000002" y1="0" y2="0" style="stroke: rgb(237, 161, 213); stroke-dasharray: none; stroke-width: 2; fill: none;"></line></g></g><g font-family="serif" font-size="6" letter-spacing="0.5px" text-anchor="left"><g class="legend-element" id="linguist-dot" transform="translate(0,160)"><circle class="point" r="2" cx="164.60000000000002" cy="1" stroke="none" fill="#f7c111"></circle></g><g class="legend-element" id="philosopher-dot" transform="translate(0,180)"><circle class="point" r="2" cx="164.60000000000002" cy="1" stroke="none" fill="#7fc78b"></circle></g><g class="legend-element" id="psychologist-dot" transform="translate(0,200)"><circle class="point" r="2" cx="164.60000000000002" cy="1" stroke="none" fill="#7fb0c7"></circle></g><g class="legend-element" id="mathematician-dot" transform="translate(0,220)"><circle class="point" r="2" cx="164.60000000000002" cy="1" stroke="none" fill="#eda1d5"></circle></g></g></svg>
