<svg width="1829" height="504"><rect id="linguists" fill="#f7f5f2" opacity="1" width="1829" height="142" transform="translate(0,0)"></rect><rect id="anthropologists" fill="#d4b7a9" opacity="0.2" width="1829" height="15" transform="translate(0,143)"></rect><rect id="mathematicians" fill="#fffaed" opacity="0.7" width="1829" height="15" transform="translate(0,159)"></rect><rect id="philosophers" fill="#c6cfc0" opacity="0.1" width="1829" height="141" transform="translate(0,175)"></rect><rect id="psychologists" fill="#ddecf0" opacity="0.3" width="1829" height="141" transform="translate(0,317)"></rect><rect id="psychologists" fill="#ddecf0" opacity="0.3" width="1829" height="4" transform="translate(0,458)"></rect><g id="shown-groups" width="1829" height="500"><path d="M173.921875,16.453125L132.59375,16.453125L132.59375,41.453125L86.59375,41.453125L86.59375,83L123.59375,83L123.59375,112L182.921875,112L182.921875,70L182.921875,16.453125L132.59375,16.453125Z" id="first_generation" stroke-width="12" stroke="#f2ece4" fill="#f2ece4"></path><path d="M523.921875,16.453125L440.59375,16.453125L440.59375,16.453125L300.59375,16.453125L300.59375,73.453125L286.59375,73.453125L286.59375,89L454.59375,89L454.59375,111L650.921875,111L650.921875,85.453125L579.921875,85.453125L579.921875,48.453125L523.921875,48.453125L523.921875,32L523.921875,16.453125Z" id="second_generation" stroke-width="12" stroke="#f2ece4" fill="#f2ece4"></path><path d="M749.59375,10.453125L749.59375,45L713.59375,45L713.59375,122L910.921875,122L910.921875,57L1000.921875,57L1000.921875,41.453125L902.921875,41.453125L902.921875,10.453125Z" id="third_generation" stroke-width="12" stroke="#f2ece4" fill="#f2ece4"></path><path d="M721.59375,67.453125L721.59375,83L749.59375,83L749.59375,114L902.921875,114L902.921875,67.453125L721.59375,67.453125Z" id="neo-grammarians" stroke-width="12" stroke="#f0e7da" fill="#f0e7da"></path><path d="M1338.59375,67.453125L1338.59375,83L1380.59375,83L1380.59375,155L1618.921875,155L1618.921875,146L1678.921875,146L1678.921875,111L1744.921875,111L1744.921875,105L1744.921875,83L1829.921875,83L1829.921875,67.453125L1730.921875,67.453125L1730.921875,48.453125L1688.921875,48.453125L1674.921875,48.453125L1674.921875,22.453125L1633.59375,22.453125L1633.59375,67.453125L1338.59375,67.453125Z" id="sapir_circle" stroke-width="12" stroke="#f2ece4" fill="#f2ece4"></path><path d="M1408.515625,191.453125L1408.515625,221.453125L1302.59375,221.453125L1302.59375,278L1488.078125,278L1488.078125,191.453125L1408.515625,191.453125Z" id="vienna_penumbra" stroke-width="12" stroke="#f2f5f0" fill="#f2f5f0"></path><path d="M1310.59375,229.453125L1310.59375,270L1351.921875,270L1478.921875,270L1478.921875,254.453125L1351.921875,254.453125L1351.921875,229.453125L1310.59375,229.453125Z" id="vienna_circle" stroke-width="12" stroke="#e6ede1" fill="#e6ede1"></path><path d="M693.59375,241.453125L734.921875,241.453125L819.59375,241.453125L819.59375,197.453125L861.59375,197.453125L861.59375,180.453125L902.921875,180.453125L902.921875,210.453125L1028.921875,210.453125L1028.921875,241.453125L1127.921875,241.453125L1127.921875,257L1028.921875,257L1028.921875,282L986.921875,282L986.921875,338L945.59375,338L945.59375,301L903.59375,301L903.59375,282L874.921875,282L874.921875,368L833.59375,368L833.59375,257L693.59375,257L693.59375,241.453125Z" id="brentanos_circle" stroke-width="12" stroke="#f2f5f0" fill="#f2f5f0"></path><path d="M1548.921875,322.453125L1268.59375,322.453125L1268.59375,387L1309.921875,387L1309.921875,355L1323.921875,355L1548.921875,355L1548.921875,339.453125Z" id="gestalt_circle" stroke-width="12" stroke="#e9f3f5" fill="#e9f3f5"></path></g><g class="grid-x" transform="translate(0,466)" fill="none" font-size="10" font-family="sans-serif" text-anchor="middle"><g class="tick" opacity="1" transform="translate(23.995183544075793,0)"><line stroke="currentColor" y2="8" style="stroke: rgb(128, 128, 128); stroke-width: 1; stroke-opacity: 0.5; shape-rendering: crispedges;"></line><text fill="currentColor" y="11" dy="0.71em" style="font-family: serif; font-size: 9px; fill: rgb(170, 170, 170);"></text></g><g class="tick" opacity="1" transform="translate(46.478947368421046,0)"><line stroke="currentColor" y2="8" style="stroke: rgb(128, 128, 128); stroke-width: 1; stroke-opacity: 0.5; shape-rendering: crispedges;"></line><text fill="currentColor" y="11" dy="0.71em" style="font-family: serif; font-size: 9px; fill: rgb(170, 170, 170);"></text></g><g class="tick" opacity="1" transform="translate(68.9688677546021,0)"><line stroke="currentColor" y2="8" style="stroke: rgb(128, 128, 128); stroke-width: 1; stroke-opacity: 0.5; shape-rendering: crispedges;"></line><text fill="currentColor" y="11" dy="0.71em" style="font-family: serif; font-size: 9px; fill: rgb(170, 170, 170);">1750</text></g><g class="tick" opacity="1" transform="translate(91.45263157894738,0)"><line stroke="currentColor" y2="8" style="stroke: rgb(128, 128, 128); stroke-width: 1; stroke-opacity: 0.5; shape-rendering: crispedges;"></line><text fill="currentColor" y="11" dy="0.71em" style="font-family: serif; font-size: 9px; fill: rgb(170, 170, 170);"></text></g><g class="tick" opacity="1" transform="translate(113.94255196512842,0)"><line stroke="currentColor" y2="8" style="stroke: rgb(128, 128, 128); stroke-width: 1; stroke-opacity: 0.5; shape-rendering: crispedges;"></line><text fill="currentColor" y="11" dy="0.71em" style="font-family: serif; font-size: 9px; fill: rgb(170, 170, 170);"></text></g><g class="tick" opacity="1" transform="translate(136.42631578947368,0)"><line stroke="currentColor" y2="8" style="stroke: rgb(128, 128, 128); stroke-width: 1; stroke-opacity: 0.5; shape-rendering: crispedges;"></line><text fill="currentColor" y="11" dy="0.71em" style="font-family: serif; font-size: 9px; fill: rgb(170, 170, 170);"></text></g><g class="tick" opacity="1" transform="translate(158.91623617565475,0)"><line stroke="currentColor" y2="8" style="stroke: rgb(128, 128, 128); stroke-width: 1; stroke-opacity: 0.5; shape-rendering: crispedges;"></line><text fill="currentColor" y="11" dy="0.71em" style="font-family: serif; font-size: 9px; fill: rgb(170, 170, 170);"></text></g><g class="tick" opacity="1" transform="translate(181.4,0)"><line stroke="currentColor" y2="8" style="stroke: rgb(128, 128, 128); stroke-width: 1; stroke-opacity: 0.5; shape-rendering: crispedges;"></line><text fill="currentColor" y="11" dy="0.71em" style="font-family: serif; font-size: 9px; fill: rgb(170, 170, 170);">1800</text></g></g><g class="grid-x" transform="translate(0,466)" fill="none" font-size="10" font-family="sans-serif" text-anchor="middle"><g class="tick" opacity="1" transform="translate(308.8121250818092,0)"><line stroke="currentColor" y2="8" style="stroke: rgb(128, 128, 128); stroke-width: 1; stroke-opacity: 0.5; shape-rendering: crispedges;"></line><text fill="currentColor" y="11" dy="0.71em" style="font-family: serif; font-size: 9px; fill: rgb(170, 170, 170);">1810</text></g><g class="tick" opacity="1" transform="translate(450.37253907595795,0)"><line stroke="currentColor" y2="8" style="stroke: rgb(128, 128, 128); stroke-width: 1; stroke-opacity: 0.5; shape-rendering: crispedges;"></line><text fill="currentColor" y="11" dy="0.71em" style="font-family: serif; font-size: 9px; fill: rgb(170, 170, 170);">1820</text></g><g class="tick" opacity="1" transform="translate(591.971715505483,0)"><line stroke="currentColor" y2="8" style="stroke: rgb(128, 128, 128); stroke-width: 1; stroke-opacity: 0.5; shape-rendering: crispedges;"></line><text fill="currentColor" y="11" dy="0.71em" style="font-family: serif; font-size: 9px; fill: rgb(170, 170, 170);">1830</text></g><g class="tick" opacity="1" transform="translate(733.5321294996318,0)"><line stroke="currentColor" y2="8" style="stroke: rgb(128, 128, 128); stroke-width: 1; stroke-opacity: 0.5; shape-rendering: crispedges;"></line><text fill="currentColor" y="11" dy="0.71em" style="font-family: serif; font-size: 9px; fill: rgb(170, 170, 170);">1840</text></g><g class="tick" opacity="1" transform="translate(875.131305929157,0)"><line stroke="currentColor" y2="8" style="stroke: rgb(128, 128, 128); stroke-width: 1; stroke-opacity: 0.5; shape-rendering: crispedges;"></line><text fill="currentColor" y="11" dy="0.71em" style="font-family: serif; font-size: 9px; fill: rgb(170, 170, 170);">1850</text></g><g class="tick" opacity="1" transform="translate(1016.6917199233056,0)"><line stroke="currentColor" y2="8" style="stroke: rgb(128, 128, 128); stroke-width: 1; stroke-opacity: 0.5; shape-rendering: crispedges;"></line><text fill="currentColor" y="11" dy="0.71em" style="font-family: serif; font-size: 9px; fill: rgb(170, 170, 170);">1860</text></g><g class="tick" opacity="1" transform="translate(1158.2908963528305,0)"><line stroke="currentColor" y2="8" style="stroke: rgb(128, 128, 128); stroke-width: 1; stroke-opacity: 0.5; shape-rendering: crispedges;"></line><text fill="currentColor" y="11" dy="0.71em" style="font-family: serif; font-size: 9px; fill: rgb(170, 170, 170);">1870</text></g><g class="tick" opacity="1" transform="translate(1299.8513103469795,0)"><line stroke="currentColor" y2="8" style="stroke: rgb(128, 128, 128); stroke-width: 1; stroke-opacity: 0.5; shape-rendering: crispedges;"></line><text fill="currentColor" y="11" dy="0.71em" style="font-family: serif; font-size: 9px; fill: rgb(170, 170, 170);">1880</text></g><g class="tick" opacity="1" transform="translate(1441.4506761022885,0)"><line stroke="currentColor" y2="8" style="stroke: rgb(128, 128, 128); stroke-width: 1; stroke-opacity: 0.5; shape-rendering: crispedges;"></line><text fill="currentColor" y="11" dy="0.71em" style="font-family: serif; font-size: 9px; fill: rgb(170, 170, 170);">1890</text></g><g class="tick" opacity="1" transform="translate(1583.011090096437,0)"><line stroke="currentColor" y2="8" style="stroke: rgb(128, 128, 128); stroke-width: 1; stroke-opacity: 0.5; shape-rendering: crispedges;"></line><text fill="currentColor" y="11" dy="0.71em" style="font-family: serif; font-size: 9px; fill: rgb(170, 170, 170);">1900</text></g><g class="tick" opacity="1" transform="translate(1724.571504090586,0)"><line stroke="currentColor" y2="8" style="stroke: rgb(128, 128, 128); stroke-width: 1; stroke-opacity: 0.5; shape-rendering: crispedges;"></line><text fill="currentColor" y="11" dy="0.71em" style="font-family: serif; font-size: 9px; fill: rgb(170, 170, 170);">1910</text></g></g><g id="group-lines" width="1829" height="500"><path d="M559.2578125,56.2265625L549.9244791666666,56.2265625C540.5911458333334,56.2265625,521.9244791666666,56.2265625,512.5911458333334,51.2265625C503.2578125,46.2265625,503.2578125,36.2265625,503.2578125,30.893229166666668C503.2578125,25.559895833333332,503.2578125,24.893229166666668,503.2578125,24.559895833333332L503.2578125,24.2265625" id="Whitney-Mueller" stroke="#ffffff" style="stroke-width: 1.5; stroke-opacity: 0.6; fill: none;"></path><path d="M559.2578125,56.2265625L542.9244791666666,56.2265625C526.5911458333334,56.2265625,493.9244791666667,56.2265625,477.5911458333333,51.2265625C461.2578125,46.2265625,461.2578125,36.2265625,461.2578125,30.893229166666668C461.2578125,25.559895833333332,461.2578125,24.893229166666668,461.2578125,24.559895833333332L461.2578125,24.2265625" id="Whitney-Curtius" stroke="#ffffff" style="stroke-width: 1.5; stroke-opacity: 0.6; fill: none;"></path><path d="M559.2578125,56.2265625L519.5911458333334,56.2265625C479.9244791666667,56.2265625,400.5911458333333,56.2265625,360.9244791666667,51.2265625C321.2578125,46.2265625,321.2578125,36.2265625,321.2578125,30.893229166666668C321.2578125,25.559895833333332,321.2578125,24.893229166666668,321.2578125,24.559895833333332L321.2578125,24.2265625" id="Whitney-Lepsius" stroke="#ffffff" style="stroke-width: 1.5; stroke-opacity: 0.6; fill: none;"></path><path d="M531.2578125,93.2265625L542.7578125,93.2265625C554.2578125,93.2265625,577.2578125,93.2265625,593.7578125,93.2265625C610.2578125,93.2265625,620.2578125,93.2265625,625.2578125,93.2265625L630.2578125,93.2265625" id="Weber-Breal" stroke="#ffffff" style="stroke-width: 1.5; stroke-opacity: 0.6; fill: none;"></path><path d="M714.2578125,249.2265625L730.2578125,249.2265625C746.2578125,249.2265625,778.2578125,249.2265625,799.2578125,249.2265625C820.2578125,249.2265625,830.2578125,249.2265625,835.2578125,244.2265625C840.2578125,239.2265625,840.2578125,229.2265625,840.2578125,221.89322916666666C840.2578125,214.55989583333334,840.2578125,209.89322916666666,840.2578125,207.55989583333334L840.2578125,205.2265625" id="Brentano-Marty" stroke="#ffffff" style="stroke-width: 1.5; stroke-opacity: 0.6; fill: none;"></path><path d="M714.2578125,249.2265625L737.2578125,249.2265625C760.2578125,249.2265625,806.2578125,249.2265625,834.2578125,249.2265625C862.2578125,249.2265625,872.2578125,249.2265625,877.2578125,244.2265625C882.2578125,239.2265625,882.2578125,229.2265625,882.2578125,219.05989583333334C882.2578125,208.89322916666666,882.2578125,198.55989583333334,882.2578125,193.39322916666666L882.2578125,188.2265625" id="Brentano-Masaryk" stroke="#ffffff" style="stroke-width: 1.5; stroke-opacity: 0.6; fill: none;"></path><path d="M714.2578125,249.2265625L758.2578125,249.2265625C802.2578125,249.2265625,890.2578125,249.2265625,939.2578125,249.2265625C988.2578125,249.2265625,998.2578125,249.2265625,1003.2578125,244.2265625C1008.2578125,239.2265625,1008.2578125,229.2265625,1008.2578125,224.05989583333334C1008.2578125,218.89322916666666,1008.2578125,218.55989583333334,1008.2578125,218.39322916666666L1008.2578125,218.2265625" id="Brentano-Husserl" stroke="#ffffff" style="stroke-width: 1.5; stroke-opacity: 0.6; fill: none;"></path><path d="M714.2578125,249.2265625L774.75,249.2265625C835.2421875,249.2265625,956.2265625,249.2265625,1021.71875,249.2265625C1087.2109375,249.2265625,1097.2109375,249.2265625,1102.2109375,249.2265625L1107.2109375,249.2265625" id="Brentano-Twardowski" stroke="#ffffff" style="stroke-width: 1.5; stroke-opacity: 0.6; fill: none;"></path><path d="M714.2578125,249.2265625L758.2578125,249.2265625C802.2578125,249.2265625,890.2578125,249.2265625,939.2578125,249.2265625C988.2578125,249.2265625,998.2578125,249.2265625,1003.2578125,253.39322916666666C1008.2578125,257.5598958333333,1008.2578125,265.8932291666667,1008.2578125,270.0598958333333L1008.2578125,274.2265625" id="Brentano-Ehrenfels" stroke="#ffffff" style="stroke-width: 1.5; stroke-opacity: 0.6; fill: none;"></path><path d="M714.2578125,249.2265625L744.2578125,249.2265625C774.2578125,249.2265625,834.2578125,249.2265625,869.2578125,249.2265625C904.2578125,249.2265625,914.2578125,249.2265625,919.2578125,254.2265625C924.2578125,259.2265625,924.2578125,269.2265625,924.2578125,276.5598958333333C924.2578125,283.8932291666667,924.2578125,288.5598958333333,924.2578125,290.8932291666667L924.2578125,293.2265625" id="Brentano-Meinong" stroke="#ffffff" style="stroke-width: 1.5; stroke-opacity: 0.6; fill: none;"></path><path d="M714.2578125,249.2265625L751.2578125,249.2265625C788.2578125,249.2265625,862.2578125,249.2265625,904.2578125,249.2265625C946.2578125,249.2265625,956.2578125,249.2265625,961.2578125,254.2265625C966.2578125,259.2265625,966.2578125,269.2265625,966.2578125,282.7265625C966.2578125,296.2265625,966.2578125,313.2265625,966.2578125,321.7265625L966.2578125,330.2265625" id="Brentano-Freud" stroke="#ffffff" style="stroke-width: 1.5; stroke-opacity: 0.6; fill: none;"></path><path d="M714.2578125,249.2265625L732.5911458333334,249.2265625C750.9244791666666,249.2265625,787.5911458333334,249.2265625,810.9244791666666,249.2265625C834.2578125,249.2265625,844.2578125,249.2265625,849.2578125,254.2265625C854.2578125,259.2265625,854.2578125,269.2265625,854.2578125,287.7265625C854.2578125,306.2265625,854.2578125,333.2265625,854.2578125,346.7265625L854.2578125,360.2265625" id="Brentano-Stumpf" stroke="#ffffff" style="stroke-width: 1.5; stroke-opacity: 0.6; fill: none;"></path><path d="M1303.2578125,347.2265625L1335.7578125,347.2265625C1368.2578125,347.2265625,1433.2578125,347.2265625,1470.7578125,347.2265625C1508.2578125,347.2265625,1518.2578125,347.2265625,1523.2578125,347.2265625L1528.2578125,347.2265625" id="Wertheimer-Heider" stroke="#ffffff" style="stroke-width: 1.5; stroke-opacity: 0.6; fill: none;"></path><path d="M840.2578125,75.2265625L840.2578125,70.89322916666667C840.2578125,66.55989583333333,840.2578125,57.893229166666664,845.2578125,53.559895833333336C850.2578125,49.2265625,860.2578125,49.2265625,883.5911458333334,49.2265625C906.9244791666666,49.2265625,943.5911458333334,49.2265625,961.9244791666666,49.2265625L980.2578125,49.2265625" id="Osthoff-Saussure" stroke="#ffffff" style="stroke-width: 1.5; stroke-opacity: 0.6; fill: none;"></path><path d="M1401.2578125,151.2265625L1429.0911458333333,151.2265625C1456.9244791666667,151.2265625,1512.5911458333333,151.2265625,1545.4244791666667,151.2265625C1578.2578125,151.2265625,1588.2578125,151.2265625,1593.2578125,151.2265625L1598.2578125,151.2265625" id="Benedict-Mead" stroke="#ffffff" style="stroke-width: 1.5; stroke-opacity: 0.6; fill: none;"></path><path d="M1359.2578125,75.2265625L1403.4244791666667,75.2265625C1447.5911458333333,75.2265625,1535.9244791666667,75.2265625,1585.0911458333333,75.2265625C1634.2578125,75.2265625,1644.2578125,75.2265625,1649.2578125,70.2265625C1654.2578125,65.2265625,1654.2578125,55.2265625,1654.2578125,47.7265625C1654.2578125,40.2265625,1654.2578125,35.2265625,1654.2578125,32.7265625L1654.2578125,30.2265625" id="Sapir-Pike" stroke="#ffffff" style="stroke-width: 1.5; stroke-opacity: 0.6; fill: none;"></path><path d="M1359.2578125,75.2265625L1405.7578125,75.2265625C1452.2578125,75.2265625,1545.2578125,75.2265625,1596.7578125,75.2265625C1648.2578125,75.2265625,1658.2578125,75.2265625,1663.2578125,72.05989583333333C1668.2578125,68.89322916666667,1668.2578125,62.559895833333336,1668.2578125,59.393229166666664L1668.2578125,56.2265625" id="Sapir-Harris" stroke="#ffffff" style="stroke-width: 1.5; stroke-opacity: 0.6; fill: none;"></path><path d="M1359.2578125,75.2265625L1415.0911458333333,75.2265625C1470.9244791666667,75.2265625,1582.5911458333333,75.2265625,1643.4244791666667,75.2265625C1704.2578125,75.2265625,1714.2578125,75.2265625,1719.2578125,79.89322916666667C1724.2578125,84.55989583333333,1724.2578125,93.89322916666667,1724.2578125,98.55989583333333L1724.2578125,103.2265625" id="Sapir-Haas" stroke="#ffffff" style="stroke-width: 1.5; stroke-opacity: 0.6; fill: none;"></path><path d="M1359.2578125,75.2265625L1429.2578125,75.2265625C1499.2578125,75.2265625,1639.2578125,75.2265625,1714.2578125,75.2265625C1789.2578125,75.2265625,1799.2578125,75.2265625,1804.2578125,75.2265625L1809.2578125,75.2265625" id="Sapir-Hockett" stroke="#ffffff" style="stroke-width: 1.5; stroke-opacity: 0.6; fill: none;"></path><path d="M1359.2578125,75.2265625L1412.7578125,75.2265625C1466.2578125,75.2265625,1573.2578125,75.2265625,1631.7578125,75.2265625C1690.2578125,75.2265625,1700.2578125,75.2265625,1705.2578125,72.05989583333333C1710.2578125,68.89322916666667,1710.2578125,62.559895833333336,1710.2578125,59.393229166666664L1710.2578125,56.2265625" id="Sapir-Swadesh" stroke="#ffffff" style="stroke-width: 1.5; stroke-opacity: 0.6; fill: none;"></path><path d="M1359.2578125,75.2265625L1405.7578125,75.2265625C1452.2578125,75.2265625,1545.2578125,75.2265625,1596.7578125,75.2265625C1648.2578125,75.2265625,1658.2578125,75.2265625,1663.2578125,78.89322916666667C1668.2578125,82.55989583333333,1668.2578125,89.89322916666667,1668.2578125,93.55989583333333L1668.2578125,97.2265625" id="Sapir-Voegelin" stroke="#ffffff" style="stroke-width: 1.5; stroke-opacity: 0.6; fill: none;"></path><path d="M1359.2578125,75.2265625L1403.4244791666667,75.2265625C1447.5911458333333,75.2265625,1535.9244791666667,75.2265625,1585.0911458333333,75.2265625C1634.2578125,75.2265625,1644.2578125,75.2265625,1649.2578125,80.2265625C1654.2578125,85.2265625,1654.2578125,95.2265625,1654.2578125,102.55989583333333C1654.2578125,109.89322916666667,1654.2578125,114.55989583333333,1654.2578125,116.89322916666667L1654.2578125,119.2265625" id="Sapir-Newman" stroke="#ffffff" style="stroke-width: 1.5; stroke-opacity: 0.6; fill: none;"></path><path d="M1359.2578125,75.2265625L1401.0911458333333,75.2265625C1442.9244791666667,75.2265625,1526.5911458333333,75.2265625,1573.4244791666667,75.2265625C1620.2578125,75.2265625,1630.2578125,75.2265625,1635.2578125,80.2265625C1640.2578125,85.2265625,1640.2578125,95.2265625,1640.2578125,105.7265625C1640.2578125,116.2265625,1640.2578125,127.2265625,1640.2578125,132.7265625L1640.2578125,138.2265625" id="Sapir-Hoijer" stroke="#ffffff" style="stroke-width: 1.5; stroke-opacity: 0.6; fill: none;"></path></g><g font-family="serif" font-size="7" letter-spacing="0.5px" text-anchor="middle"><g class="person" id="Kant" transform="translate(10,208)"><text fill="#7a7a7a" dy="0.35em">Kant</text><text fill="#7a7a7a" dy="10">1724 - 1804</text></g><g class="person" id="Herder" transform="translate(55.57333333333334,184.25)"><text fill="#7a7a7a" dy="0.35em">Herder</text><text fill="#7a7a7a" dy="10">1744 - 1803</text></g><g class="person" id="Fichte" transform="translate(96.58933333333334,208)"><text fill="#7a7a7a" dy="0.35em">Fichte</text><text fill="#7a7a7a" dy="10">1762 - 1814</text></g><g class="person" id="Humboldt" transform="translate(107.98266666666667,71)"><text fill="#7a7a7a" dy="0.35em">Humboldt</text><text fill="#7a7a7a" dy="10">1767 - 1835</text></g><g class="person" id="Schlegel" transform="translate(119.376,45.8)"><text fill="#7a7a7a" dy="0.35em">Schlegel</text><text fill="#7a7a7a" dy="10">1772 - 1829</text></g><g class="person" id="Hegel" transform="translate(128.49066666666667,245.5)"><text fill="#7a7a7a" dy="0.35em">Hegel</text><text fill="#7a7a7a" dy="10">1776 - 1841</text></g><g class="person" id="Grimm" transform="translate(148.99866666666668,96.2)"><text fill="#7a7a7a" dy="0.35em">Grimm</text><text fill="#7a7a7a" dy="10">1785 - 1863</text></g><g class="person" id="Rask" transform="translate(153.55599999999998,20.6)"><text fill="#7a7a7a" dy="0.35em">Rask</text><text fill="#7a7a7a" dy="10">1787 - 1832</text></g><g class="person" id="Bopp" transform="translate(162.67066666666668,58.4)"><text fill="#7a7a7a" dy="0.35em">Bopp</text><text fill="#7a7a7a" dy="10">1791 - 1867</text></g><g class="person" id="Comte" transform="translate(178.62133333333333,245.5)"><text fill="#7a7a7a" dy="0.35em">Comte</text><text fill="#7a7a7a" dy="10">1798 - 1857</text></g><g class="person" id="Fechner" transform="translate(194.93534482758622,326.25)"><text fill="#7a7a7a" dy="0.35em">Fechner</text><text fill="#7a7a7a" dy="10">1801 - 1887</text></g><g class="person" id="Trendelenberg" transform="translate(208.9706896551724,223.625)"><text fill="#7a7a7a" dy="0.35em">Trendelenberg</text><text fill="#7a7a7a" dy="10">1802 - 1872</text></g><g class="person" id="Mill" transform="translate(265.11206896551727,267.375)"><text fill="#7a7a7a" dy="0.35em">Mill</text><text fill="#7a7a7a" dy="10">1806 - 1873</text></g><g class="person" id="Grassmann" transform="translate(307.2181034482759,77.3)"><text fill="#7a7a7a" dy="0.35em">Grassmann</text><text fill="#7a7a7a" dy="10">1809 - 1877</text></g><g class="person" id="Lepsius" transform="translate(321.25344827586207,20.6)"><text fill="#7a7a7a" dy="0.35em">Lepsius</text><text fill="#7a7a7a" dy="10">1810 - 1884</text></g><g class="person" id="Lotze" transform="translate(419.5008620689655,326.25)"><text fill="#7a7a7a" dy="0.35em">Lotze</text><text fill="#7a7a7a" dy="10">1817 - 1881</text></g><g class="person" id="Curtius" transform="translate(461.60689655172416,20.6)"><text fill="#7a7a7a" dy="0.35em">Curtius</text><text fill="#7a7a7a" dy="10">1820 - 1886</text></g><g class="person" id="Roth" transform="translate(475.64224137931035,71)"><text fill="#7a7a7a" dy="0.35em">Roth</text><text fill="#7a7a7a" dy="10">1821 - 1895</text></g><g class="person" id="Schleicher" transform="translate(475.64224137931035,99.35)"><text fill="#7a7a7a" dy="0.35em">Schleicher</text><text fill="#7a7a7a" dy="10">1821 - 1868</text></g><g class="person" id="Mueller" transform="translate(503.71293103448284,20.6)"><text fill="#7a7a7a" dy="0.35em">Mueller</text><text fill="#7a7a7a" dy="10">1823 - 1900</text></g><g class="person" id="Steinthal" transform="translate(503.71293103448284,147.125)"><text fill="#7a7a7a" dy="0.35em">Steinthal</text><text fill="#7a7a7a" dy="10">1823 - 1899</text></g><g class="person" id="Weber" transform="translate(531.7836206896552,89.9)"><text fill="#7a7a7a" dy="0.35em">Weber</text><text fill="#7a7a7a" dy="10">1825 - 1932</text></g><g class="person" id="Whitney" transform="translate(559.8543103448276,52.1)"><text fill="#7a7a7a" dy="0.35em">Whitney</text><text fill="#7a7a7a" dy="10">1827 - 1894</text></g><g class="person" id="Breal" transform="translate(630.0310344827586,89.9)"><text fill="#7a7a7a" dy="0.35em">Breal</text><text fill="#7a7a7a" dy="10">1832 - 1915</text></g><g class="person" id="Wundt" transform="translate(630.0310344827586,443.75)"><text fill="#7a7a7a" dy="0.35em">Wundt</text><text fill="#7a7a7a" dy="10">1832 - 1910</text></g><g class="person" id="Brentano" transform="translate(714.2431034482759,245.5)"><text fill="#7a7a7a" dy="0.35em">Brentano</text><text fill="#7a7a7a" dy="10">1838 - 1917</text></g><g class="person" id="Ribot" transform="translate(728.278448275862,326.25)"><text fill="#7a7a7a" dy="0.35em">Ribot</text><text fill="#7a7a7a" dy="10">1839 - 1916</text></g><g class="person" id="Peirce" transform="translate(728.278448275862,298.625)"><text fill="#7a7a7a" dy="0.35em">Peirce</text><text fill="#7a7a7a" dy="10">1839 - 1914</text></g><g class="person" id="Leskien" transform="translate(742.3137931034483,71)"><text fill="#7a7a7a" dy="0.35em">Leskien</text><text fill="#7a7a7a" dy="10">1840 - 1916</text></g><g class="person" id="Delbruck" transform="translate(770.3844827586207,102.5)"><text fill="#7a7a7a" dy="0.35em">Delbruck</text><text fill="#7a7a7a" dy="10">1842 - 1922</text></g><g class="person" id="Schuchardt" transform="translate(770.3844827586207,33.2)"><text fill="#7a7a7a" dy="0.35em">Schuchardt</text><text fill="#7a7a7a" dy="10">1842 - 1927</text></g><g class="person" id="James" transform="translate(770.3844827586207,326.25)"><text fill="#7a7a7a" dy="0.35em">James</text><text fill="#7a7a7a" dy="10">1842 - 1949</text></g><g class="person" id="Baudouin-de-Courtenay" transform="translate(812.4905172413793,14.3)"><text fill="#7a7a7a" dy="0.35em">Baudouin de Courtenay</text><text fill="#7a7a7a" dy="10">1845 - 1929</text></g><g class="person" id="Cantor" transform="translate(812.4905172413793,163.125)"><text fill="#7a7a7a" dy="0.35em">Cantor</text><text fill="#7a7a7a" dy="10">1845 - 1918</text></g><g class="person" id="Osthoff" transform="translate(840.5612068965517,71)"><text fill="#7a7a7a" dy="0.35em">Osthoff</text><text fill="#7a7a7a" dy="10">1847 - 1909</text></g><g class="person" id="Marty" transform="translate(840.5612068965517,201.74999999999997)"><text fill="#7a7a7a" dy="0.35em">Marty</text><text fill="#7a7a7a" dy="10">1847 - 1914</text></g><g class="person" id="Stumpf" transform="translate(854.596551724138,356.25)"><text fill="#7a7a7a" dy="0.35em">Stumpf</text><text fill="#7a7a7a" dy="10">1848 - 1936</text></g><g class="person" id="Brugmann" transform="translate(868.6318965517241,102.5)"><text fill="#7a7a7a" dy="0.35em">Brugmann</text><text fill="#7a7a7a" dy="10">1849 - 1919</text></g><g class="person" id="Lanman" transform="translate(882.6672413793103,26.9)"><text fill="#7a7a7a" dy="0.35em">Lanman</text><text fill="#7a7a7a" dy="10">1850 - 1941</text></g><g class="person" id="Sievers" transform="translate(882.6672413793103,77.3)"><text fill="#7a7a7a" dy="0.35em">Sievers</text><text fill="#7a7a7a" dy="10">1850 - 1932</text></g><g class="person" id="Masaryk" transform="translate(882.6672413793103,184.25)"><text fill="#7a7a7a" dy="0.35em">* Masaryk</text><text fill="#7a7a7a" dy="10">1850 - 1937</text></g><g class="person" id="Meinong" transform="translate(924.773275862069,289.25)"><text fill="#7a7a7a" dy="0.35em">Meinong</text><text fill="#7a7a7a" dy="10">1853 - 1920</text></g><g class="person" id="Freud" transform="translate(966.8793103448277,326.25)"><text fill="#7a7a7a" dy="0.35em">Freud</text><text fill="#7a7a7a" dy="10">1856 - 1939</text></g><g class="person" id="Saussure" transform="translate(980.9146551724137,45.8)"><text fill="#7a7a7a" dy="0.35em">Saussure</text><text fill="#7a7a7a" dy="10">1857 - 1913</text></g><g class="person" id="Dewey" transform="translate(1008.9853448275862,184.25)"><text fill="#7a7a7a" dy="0.35em">Dewey</text><text fill="#7a7a7a" dy="10">1859 - 1952</text></g><g class="person" id="Boas" transform="translate(1008.9853448275862,147.125)"><text fill="#7a7a7a" dy="0.35em">Boas</text><text fill="#7a7a7a" dy="10">1859 - 1942</text></g><g class="person" id="Husserl" transform="translate(1008.9853448275862,214.25)"><text fill="#7a7a7a" dy="0.35em">Husserl</text><text fill="#7a7a7a" dy="10">1859 - 1938</text></g><g class="person" id="Ehrenfels" transform="translate(1008.9853448275862,270.5)"><text fill="#7a7a7a" dy="0.35em">Ehrenfels</text><text fill="#7a7a7a" dy="10">1859 - 1932</text></g><g class="person" id="Loeb" transform="translate(1008.9853448275862,406.25)"><text fill="#7a7a7a" dy="0.35em">Loeb</text><text fill="#7a7a7a" dy="10">1859 - 1924</text></g><g class="person" id="Hilbert" transform="translate(1051.0913793103448,163.125)"><text fill="#7a7a7a" dy="0.35em">Hilbert</text><text fill="#7a7a7a" dy="10">1862 - 1943</text></g><g class="person" id="Buck" transform="translate(1107.2327586206895,26.9)"><text fill="#7a7a7a" dy="0.35em">Buck</text><text fill="#7a7a7a" dy="10">1866 - 1955</text></g><g class="person" id="Meillet" transform="translate(1107.2327586206895,71)"><text fill="#7a7a7a" dy="0.35em">Meillet</text><text fill="#7a7a7a" dy="10">1866 - 1936</text></g><g class="person" id="Twardowski" transform="translate(1107.2327586206895,245.5)"><text fill="#7a7a7a" dy="0.35em">Twardowski</text><text fill="#7a7a7a" dy="10">1866 - 1938</text></g><g class="person" id="Titchener" transform="translate(1121.268103448276,421.875)"><text fill="#7a7a7a" dy="0.35em">Titchener</text><text fill="#7a7a7a" dy="10">1867 - 1927</text></g><g class="person" id="Angell" transform="translate(1149.3387931034483,443.75)"><text fill="#7a7a7a" dy="0.35em">Angell</text><text fill="#7a7a7a" dy="10">1869 - 1949</text></g><g class="person" id="Russell" transform="translate(1191.4448275862069,174)"><text fill="#7a7a7a" dy="0.35em">Russell</text><text fill="#7a7a7a" dy="10">1872 - 1970</text></g><g class="person" id="Meyer" transform="translate(1205.480172413793,425)"><text fill="#7a7a7a" dy="0.35em">Meyer</text><text fill="#7a7a7a" dy="10">1873 - 1967</text></g><g class="person" id="Cassirer" transform="translate(1219.5155172413795,301.75)"><text fill="#7a7a7a" dy="0.35em">Cassirer</text><text fill="#7a7a7a" dy="10">1874 - 1945</text></g><g class="person" id="Lukasiewicz" transform="translate(1275.656896551724,163.125)"><text fill="#7a7a7a" dy="0.35em">Lukasiewicz</text><text fill="#7a7a7a" dy="10">1878 - 1956</text></g><g class="person" id="Watson" transform="translate(1275.656896551724,412.5)"><text fill="#7a7a7a" dy="0.35em">Watson</text><text fill="#7a7a7a" dy="10">1878 - 1958</text></g><g class="person" id="Langfeld" transform="translate(1289.6922413793104,375)"><text fill="#7a7a7a" dy="0.35em">Langfeld</text><text fill="#7a7a7a" dy="10">1879 - 1958</text></g><g class="person" id="Wertheimer" transform="translate(1303.7275862068966,343.75)"><text fill="#7a7a7a" dy="0.35em">Wertheimer</text><text fill="#7a7a7a" dy="10">1880 - 1943</text></g><g class="person" id="Neurath" transform="translate(1331.7982758620687,233)"><text fill="#7a7a7a" dy="0.35em">Neurath</text><text fill="#7a7a7a" dy="10">1882 - 1945</text></g><g class="person" id="Schlick" transform="translate(1331.7982758620687,258)"><text fill="#7a7a7a" dy="0.35em">Schlick</text><text fill="#7a7a7a" dy="10">1882 - 1936</text></g><g class="person" id="Hull" transform="translate(1359.8689655172413,443.75)"><text fill="#7a7a7a" dy="0.35em">Hull</text><text fill="#7a7a7a" dy="10">1884 - 1952</text></g><g class="person" id="Sapir" transform="translate(1359.8689655172413,71)"><text fill="#7a7a7a" dy="0.35em">Sapir</text><text fill="#7a7a7a" dy="10">1884 - 1939</text></g><g class="person" id="Koffka" transform="translate(1387.939655172414,326.25)"><text fill="#7a7a7a" dy="0.35em">Koffka</text><text fill="#7a7a7a" dy="10">1886 - 1941</text></g><g class="person" id="Tolman" transform="translate(1387.939655172414,431.25)"><text fill="#7a7a7a" dy="0.35em">Tolman</text><text fill="#7a7a7a" dy="10">1886 - 1959</text></g><g class="person" id="Benedict" transform="translate(1401.975,147.125)"><text fill="#7a7a7a" dy="0.35em">Benedict</text><text fill="#7a7a7a" dy="10">1887 - 1948</text></g><g class="person" id="Bloomfield" transform="translate(1401.975,26.9)"><text fill="#7a7a7a" dy="0.35em">Bloomfield</text><text fill="#7a7a7a" dy="10">1887 - 1949</text></g><g class="person" id="Wittgenstein" transform="translate(1430.0456896551725,195.50000000000003)"><text fill="#7a7a7a" dy="0.35em">Wittgenstein</text><text fill="#7a7a7a" dy="10">1889 - 1953</text></g><g class="person" id="Ajdukiewicz" transform="translate(1444.0810344827587,163.125)"><text fill="#7a7a7a" dy="0.35em">Ajdukiewicz</text><text fill="#7a7a7a" dy="10">1890 - 1963</text></g><g class="person" id="Lewin" transform="translate(1444.0810344827587,326.25)"><text fill="#7a7a7a" dy="0.35em">Lewin</text><text fill="#7a7a7a" dy="10">1890 - 1947</text></g><g class="person" id="Lashley" transform="translate(1444.0810344827587,425)"><text fill="#7a7a7a" dy="0.35em">Lashley</text><text fill="#7a7a7a" dy="10">1890 - 1958</text></g><g class="person" id="Carnap" transform="translate(1458.1163793103447,258)"><text fill="#7a7a7a" dy="0.35em">Carnap</text><text fill="#7a7a7a" dy="10">1891 - 1970</text></g><g class="person" id="Reichenbach" transform="translate(1458.1163793103447,220.5)"><text fill="#7a7a7a" dy="0.35em">Reichenbach</text><text fill="#7a7a7a" dy="10">1891 - 1953</text></g><g class="person" id="Koyre" transform="translate(1472.1517241379313,301.75)"><text fill="#7a7a7a" dy="0.35em">Koyre</text><text fill="#7a7a7a" dy="10">1892 - 1964</text></g><g class="person" id="Heider" transform="translate(1528.2931034482758,343.75)"><text fill="#7a7a7a" dy="0.35em">Heider</text><text fill="#7a7a7a" dy="10">1896 - 1988</text></g><g class="person" id="Allport" transform="translate(1542.328448275862,375)"><text fill="#7a7a7a" dy="0.35em">Allport</text><text fill="#7a7a7a" dy="10">1897 - 1967</text></g><g class="person" id="Mead" transform="translate(1598.4698275862067,147.125)"><text fill="#7a7a7a" dy="0.35em">Mead</text><text fill="#7a7a7a" dy="10">1901 - 1978</text></g><g class="person" id="Hoijer" transform="translate(1640.5758620689655,134)"><text fill="#7a7a7a" dy="0.35em">Hoijer</text><text fill="#7a7a7a" dy="10">1904 - 1976</text></g><g class="person" id="Skinner" transform="translate(1640.5758620689655,406.25)"><text fill="#7a7a7a" dy="0.35em">Skinner</text><text fill="#7a7a7a" dy="10">1904 - 1990</text></g><g class="person" id="Newman" transform="translate(1654.6112068965517,115.1)"><text fill="#7a7a7a" dy="0.35em">Newman</text><text fill="#7a7a7a" dy="10">1905 - 1984</text></g><g class="person" id="Pike" transform="translate(1654.6112068965517,26.9)"><text fill="#7a7a7a" dy="0.35em">Pike</text><text fill="#7a7a7a" dy="10">1905 - 1984</text></g><g class="person" id="Voegelin" transform="translate(1668.6465517241381,93.05)"><text fill="#7a7a7a" dy="0.35em">Voegelin</text><text fill="#7a7a7a" dy="10">1906 - 1986</text></g><g class="person" id="Harris" transform="translate(1668.6465517241381,52.1)"><text fill="#7a7a7a" dy="0.35em">Harris</text><text fill="#7a7a7a" dy="10">1906 - 1986</text></g><g class="person" id="Swadesh" transform="translate(1710.7525862068967,52.1)"><text fill="#7a7a7a" dy="0.35em">Swadesh</text><text fill="#7a7a7a" dy="10">1909 - 1967</text></g><g class="person" id="Haas" transform="translate(1724.7879310344827,99.35)"><text fill="#7a7a7a" dy="0.35em">Haas</text><text fill="#7a7a7a" dy="10">1910 - 1996</text></g><g class="person" id="Bruner" transform="translate(1794.964655172414,356.25)"><text fill="#7a7a7a" dy="0.35em">Bruner</text><text fill="#7a7a7a" dy="10">1915 - 2018</text></g><g class="person" id="Hockett" transform="translate(1809,71)"><text fill="#7a7a7a" dy="0.35em">Hockett</text><text fill="#7a7a7a" dy="10">1916 - 2000</text></g></g></svg>
