<svg width="1829" height="504"><rect id="linguists" fill="#f7f5f2" opacity="1" width="1829" height="142" transform="translate(0,0)"></rect><rect id="anthropologists" fill="#d4b7a9" opacity="0.2" width="1829" height="15" transform="translate(0,143)"></rect><rect id="mathematicians" fill="#fffaed" opacity="0.7" width="1829" height="15" transform="translate(0,159)"></rect><rect id="philosophers" fill="#c6cfc0" opacity="0.1" width="1829" height="141" transform="translate(0,175)"></rect><rect id="psychologists" fill="#ddecf0" opacity="0.3" width="1829" height="141" transform="translate(0,317)"></rect><rect id="psychologists" fill="#ddecf0" opacity="0.3" width="1829" height="4" transform="translate(0,458)"></rect><g id="shown-groups" width="1829" height="500"><path d="M162.25,16.453125L144.25,16.453125L144.25,41.453125L90.0625,41.453125L90.0625,83L131.890625,83L131.890625,112L171.828125,112L171.828125,70L171.828125,16.453125L144.25,16.453125Z" id="first_generation" stroke-width="12" stroke="#f2ece4" fill="#f2ece4"></path><path d="M517.234375,16.453125L448.203125,16.453125L448.203125,16.453125L307.625,16.453125L307.625,73.453125L288.265625,73.453125L288.265625,89L456.984375,89L456.984375,111L639.625,111L639.625,85.453125L574.046875,85.453125L574.046875,48.453125L517.234375,48.453125L517.234375,32L517.234375,16.453125Z" id="second_generation" stroke-width="12" stroke="#f2ece4" fill="#f2ece4"></path><path d="M751.015625,10.453125L751.015625,45L720.421875,45L720.421875,122L903.078125,122L903.078125,57L995.078125,57L995.078125,41.453125L896.21875,41.453125L896.21875,10.453125Z" id="third_generation" stroke-width="12" stroke="#f2ece4" fill="#f2ece4"></path><path d="M728.421875,67.453125L728.421875,83L754.234375,83L754.234375,114L895.078125,114L895.078125,67.453125L728.421875,67.453125Z" id="neo-grammarians" stroke-width="12" stroke="#f0e7da" fill="#f0e7da"></path><path d="M1349.625,67.453125L1349.625,83L1385.8125,83L1385.8125,155L1608.21875,155L1608.21875,146L1673.390625,146L1673.390625,111L1733.25,111L1733.25,105L1733.25,83L1822.625,83L1822.625,67.453125L1725.4375,67.453125L1725.4375,48.453125L1679.28125,48.453125L1663.25,48.453125L1663.25,22.453125L1645.25,22.453125L1645.25,67.453125L1349.625,67.453125Z" id="sapir_circle" stroke-width="12" stroke="#f2ece4" fill="#f2ece4"></path><path d="M1408.515625,191.453125L1408.515625,221.453125L1309.234375,221.453125L1309.234375,278L1488.078125,278L1488.078125,191.453125L1408.515625,191.453125Z" id="vienna_penumbra" stroke-width="12" stroke="#f2f5f0" fill="#f2f5f0"></path><path d="M1317.234375,229.453125L1318.015625,270L1344.5,270L1470.859375,270L1470.859375,254.453125L1345.265625,254.453125L1345.265625,229.453125L1317.234375,229.453125Z" id="vienna_circle" stroke-width="12" stroke="#e6ede1" fill="#e6ede1"></path><path d="M698.421875,241.453125L730.078125,241.453125L829.453125,241.453125L829.453125,197.453125L867.265625,197.453125L867.265625,180.453125L897.25,180.453125L897.25,210.453125L1024.6875,210.453125L1024.6875,241.453125L1127.546875,241.453125L1127.546875,257L1024.6875,257L1024.6875,282L976.671875,282L976.671875,338L955.84375,338L955.84375,301L908.875,301L908.875,282L867.234375,282L867.234375,368L841.453125,368L841.453125,257L698.421875,257L698.421875,241.453125Z" id="brentanos_circle" stroke-width="12" stroke="#f2f5f0" fill="#f2f5f0"></path><path d="M1540.4375,322.453125L1273.625,322.453125L1273.625,387L1304.890625,387L1304.890625,355L1323.359375,355L1540.4375,355L1540.4375,339.453125Z" id="gestalt_circle" stroke-width="12" stroke="#e9f3f5" fill="#e9f3f5"></path></g><g class="grid-x" transform="translate(0,466)" fill="none" font-size="10" font-family="sans-serif" text-anchor="middle"><g class="tick" opacity="1" transform="translate(23.995183544075793,0)"><line stroke="currentColor" y2="8" style="stroke: rgb(128, 128, 128); stroke-width: 1; stroke-opacity: 0.5; shape-rendering: crispedges;"></line><text fill="currentColor" y="11" dy="0.71em" style="font-family: serif; font-size: 9px; fill: rgb(170, 170, 170);"></text></g><g class="tick" opacity="1" transform="translate(46.478947368421046,0)"><line stroke="currentColor" y2="8" style="stroke: rgb(128, 128, 128); stroke-width: 1; stroke-opacity: 0.5; shape-rendering: crispedges;"></line><text fill="currentColor" y="11" dy="0.71em" style="font-family: serif; font-size: 9px; fill: rgb(170, 170, 170);"></text></g><g class="tick" opacity="1" transform="translate(68.9688677546021,0)"><line stroke="currentColor" y2="8" style="stroke: rgb(128, 128, 128); stroke-width: 1; stroke-opacity: 0.5; shape-rendering: crispedges;"></line><text fill="currentColor" y="11" dy="0.71em" style="font-family: serif; font-size: 9px; fill: rgb(170, 170, 170);">1750</text></g><g class="tick" opacity="1" transform="translate(91.45263157894738,0)"><line stroke="currentColor" y2="8" style="stroke: rgb(128, 128, 128); stroke-width: 1; stroke-opacity: 0.5; shape-rendering: crispedges;"></line><text fill="currentColor" y="11" dy="0.71em" style="font-family: serif; font-size: 9px; fill: rgb(170, 170, 170);"></text></g><g class="tick" opacity="1" transform="translate(113.94255196512842,0)"><line stroke="currentColor" y2="8" style="stroke: rgb(128, 128, 128); stroke-width: 1; stroke-opacity: 0.5; shape-rendering: crispedges;"></line><text fill="currentColor" y="11" dy="0.71em" style="font-family: serif; font-size: 9px; fill: rgb(170, 170, 170);"></text></g><g class="tick" opacity="1" transform="translate(136.42631578947368,0)"><line stroke="currentColor" y2="8" style="stroke: rgb(128, 128, 128); stroke-width: 1; stroke-opacity: 0.5; shape-rendering: crispedges;"></line><text fill="currentColor" y="11" dy="0.71em" style="font-family: serif; font-size: 9px; fill: rgb(170, 170, 170);"></text></g><g class="tick" opacity="1" transform="translate(158.91623617565475,0)"><line stroke="currentColor" y2="8" style="stroke: rgb(128, 128, 128); stroke-width: 1; stroke-opacity: 0.5; shape-rendering: crispedges;"></line><text fill="currentColor" y="11" dy="0.71em" style="font-family: serif; font-size: 9px; fill: rgb(170, 170, 170);"></text></g><g class="tick" opacity="1" transform="translate(181.4,0)"><line stroke="currentColor" y2="8" style="stroke: rgb(128, 128, 128); stroke-width: 1; stroke-opacity: 0.5; shape-rendering: crispedges;"></line><text fill="currentColor" y="11" dy="0.71em" style="font-family: serif; font-size: 9px; fill: rgb(170, 170, 170);">1800</text></g></g><g class="grid-x" transform="translate(0,466)" fill="none" font-size="10" font-family="sans-serif" text-anchor="middle"><g class="tick" opacity="1" transform="translate(308.8121250818092,0)"><line stroke="currentColor" y2="8" style="stroke: rgb(128, 128, 128); stroke-width: 1; stroke-opacity: 0.5; shape-rendering: crispedges;"></line><text fill="currentColor" y="11" dy="0.71em" style="font-family: serif; font-size: 9px; fill: rgb(170, 170, 170);">1810</text></g><g class="tick" opacity="1" transform="translate(450.37253907595795,0)"><line stroke="currentColor" y2="8" style="stroke: rgb(128, 128, 128); stroke-width: 1; stroke-opacity: 0.5; shape-rendering: crispedges;"></line><text fill="currentColor" y="11" dy="0.71em" style="font-family: serif; font-size: 9px; fill: rgb(170, 170, 170);">1820</text></g><g class="tick" opacity="1" transform="translate(591.971715505483,0)"><line stroke="currentColor" y2="8" style="stroke: rgb(128, 128, 128); stroke-width: 1; stroke-opacity: 0.5; shape-rendering: crispedges;"></line><text fill="currentColor" y="11" dy="0.71em" style="font-family: serif; font-size: 9px; fill: rgb(170, 170, 170);">1830</text></g><g class="tick" opacity="1" transform="translate(733.5321294996318,0)"><line stroke="currentColor" y2="8" style="stroke: rgb(128, 128, 128); stroke-width: 1; stroke-opacity: 0.5; shape-rendering: crispedges;"></line><text fill="currentColor" y="11" dy="0.71em" style="font-family: serif; font-size: 9px; fill: rgb(170, 170, 170);">1840</text></g><g class="tick" opacity="1" transform="translate(875.131305929157,0)"><line stroke="currentColor" y2="8" style="stroke: rgb(128, 128, 128); stroke-width: 1; stroke-opacity: 0.5; shape-rendering: crispedges;"></line><text fill="currentColor" y="11" dy="0.71em" style="font-family: serif; font-size: 9px; fill: rgb(170, 170, 170);">1850</text></g><g class="tick" opacity="1" transform="translate(1016.6917199233056,0)"><line stroke="currentColor" y2="8" style="stroke: rgb(128, 128, 128); stroke-width: 1; stroke-opacity: 0.5; shape-rendering: crispedges;"></line><text fill="currentColor" y="11" dy="0.71em" style="font-family: serif; font-size: 9px; fill: rgb(170, 170, 170);">1860</text></g><g class="tick" opacity="1" transform="translate(1158.2908963528305,0)"><line stroke="currentColor" y2="8" style="stroke: rgb(128, 128, 128); stroke-width: 1; stroke-opacity: 0.5; shape-rendering: crispedges;"></line><text fill="currentColor" y="11" dy="0.71em" style="font-family: serif; font-size: 9px; fill: rgb(170, 170, 170);">1870</text></g><g class="tick" opacity="1" transform="translate(1299.8513103469795,0)"><line stroke="currentColor" y2="8" style="stroke: rgb(128, 128, 128); stroke-width: 1; stroke-opacity: 0.5; shape-rendering: crispedges;"></line><text fill="currentColor" y="11" dy="0.71em" style="font-family: serif; font-size: 9px; fill: rgb(170, 170, 170);">1880</text></g><g class="tick" opacity="1" transform="translate(1441.4506761022885,0)"><line stroke="currentColor" y2="8" style="stroke: rgb(128, 128, 128); stroke-width: 1; stroke-opacity: 0.5; shape-rendering: crispedges;"></line><text fill="currentColor" y="11" dy="0.71em" style="font-family: serif; font-size: 9px; fill: rgb(170, 170, 170);">1890</text></g><g class="tick" opacity="1" transform="translate(1583.011090096437,0)"><line stroke="currentColor" y2="8" style="stroke: rgb(128, 128, 128); stroke-width: 1; stroke-opacity: 0.5; shape-rendering: crispedges;"></line><text fill="currentColor" y="11" dy="0.71em" style="font-family: serif; font-size: 9px; fill: rgb(170, 170, 170);">1900</text></g><g class="tick" opacity="1" transform="translate(1724.571504090586,0)"><line stroke="currentColor" y2="8" style="stroke: rgb(128, 128, 128); stroke-width: 1; stroke-opacity: 0.5; shape-rendering: crispedges;"></line><text fill="currentColor" y="11" dy="0.71em" style="font-family: serif; font-size: 9px; fill: rgb(170, 170, 170);">1910</text></g></g><g id="group-lines" width="1829" height="500"><path d="M559.25,56.2265625L549.9296875,56.2265625C540.609375,56.2265625,521.96875,56.2265625,512.6484375,51.2265625C503.328125,46.2265625,503.328125,36.2265625,503.328125,30.893229166666668C503.328125,25.559895833333332,503.328125,24.893229166666668,503.328125,24.559895833333332L503.328125,24.2265625" id="Whitney-Mueller" stroke="#ffffff" style="stroke-width: 1.5; stroke-opacity: 0.6; fill: none;"></path><path d="M559.25,56.2265625L542.8984375,56.2265625C526.546875,56.2265625,493.84375,56.2265625,477.4921875,51.2265625C461.140625,46.2265625,461.140625,36.2265625,461.140625,30.893229166666668C461.140625,25.559895833333332,461.140625,24.893229166666668,461.140625,24.559895833333332L461.140625,24.2265625" id="Whitney-Curtius" stroke="#ffffff" style="stroke-width: 1.5; stroke-opacity: 0.6; fill: none;"></path><path d="M559.25,56.2265625L519.56640625,56.2265625C479.8828125,56.2265625,400.515625,56.2265625,360.83203125,51.2265625C321.1484375,46.2265625,321.1484375,36.2265625,321.1484375,30.893229166666668C321.1484375,25.559895833333332,321.1484375,24.893229166666668,321.1484375,24.559895833333332L321.1484375,24.2265625" id="Whitney-Lepsius" stroke="#ffffff" style="stroke-width: 1.5; stroke-opacity: 0.6; fill: none;"></path><path d="M531.34375,93.2265625L542.7903645833334,93.2265625C554.2369791666666,93.2265625,577.1302083333334,93.2265625,593.5768229166666,93.2265625C610.0234375,93.2265625,620.0234375,93.2265625,625.0234375,93.2265625L630.0234375,93.2265625" id="Weber-Breal" stroke="#ffffff" style="stroke-width: 1.5; stroke-opacity: 0.6; fill: none;"></path><path d="M714.25,249.2265625L730.25,249.2265625C746.25,249.2265625,778.25,249.2265625,799.25,249.2265625C820.25,249.2265625,830.25,249.2265625,835.25,244.2265625C840.25,239.2265625,840.25,229.2265625,840.25,221.89322916666666C840.25,214.55989583333334,840.25,209.89322916666666,840.25,207.55989583333334L840.25,205.2265625" id="Brentano-Marty" stroke="#ffffff" style="stroke-width: 1.5; stroke-opacity: 0.6; fill: none;"></path><path d="M714.25,249.2265625L737.2513020833334,249.2265625C760.2526041666666,249.2265625,806.2552083333334,249.2265625,834.2565104166666,249.2265625C862.2578125,249.2265625,872.2578125,249.2265625,877.2578125,244.2265625C882.2578125,239.2265625,882.2578125,229.2265625,882.2578125,219.05989583333334C882.2578125,208.89322916666666,882.2578125,198.55989583333334,882.2578125,193.39322916666666L882.2578125,188.2265625" id="Brentano-Masaryk" stroke="#ffffff" style="stroke-width: 1.5; stroke-opacity: 0.6; fill: none;"></path><path d="M714.25,249.2265625L758.2135416666666,249.2265625C802.1770833333334,249.2265625,890.1041666666666,249.2265625,939.0677083333334,249.2265625C988.03125,249.2265625,998.03125,249.2265625,1003.03125,244.2265625C1008.03125,239.2265625,1008.03125,229.2265625,1008.03125,224.05989583333334C1008.03125,218.89322916666666,1008.03125,218.55989583333334,1008.03125,218.39322916666666L1008.03125,218.2265625" id="Brentano-Husserl" stroke="#ffffff" style="stroke-width: 1.5; stroke-opacity: 0.6; fill: none;"></path><path d="M714.25,249.2265625L774.7122395833334,249.2265625C835.1744791666666,249.2265625,956.0989583333334,249.2265625,1021.5611979166666,249.2265625C1087.0234375,249.2265625,1097.0234375,249.2265625,1102.0234375,249.2265625L1107.0234375,249.2265625" id="Brentano-Twardowski" stroke="#ffffff" style="stroke-width: 1.5; stroke-opacity: 0.6; fill: none;"></path><path d="M714.25,249.2265625L758.2317708333334,249.2265625C802.2135416666666,249.2265625,890.1770833333334,249.2265625,939.1588541666666,249.2265625C988.140625,249.2265625,998.140625,249.2265625,1003.140625,253.39322916666666C1008.140625,257.5598958333333,1008.140625,265.8932291666667,1008.140625,270.0598958333333L1008.140625,274.2265625" id="Brentano-Ehrenfels" stroke="#ffffff" style="stroke-width: 1.5; stroke-opacity: 0.6; fill: none;"></path><path d="M714.25,249.2265625L744.2513020833334,249.2265625C774.2526041666666,249.2265625,834.2552083333334,249.2265625,869.2565104166666,249.2265625C904.2578125,249.2265625,914.2578125,249.2265625,919.2578125,254.2265625C924.2578125,259.2265625,924.2578125,269.2265625,924.2578125,276.5598958333333C924.2578125,283.8932291666667,924.2578125,288.5598958333333,924.2578125,290.8932291666667L924.2578125,293.2265625" id="Brentano-Meinong" stroke="#ffffff" style="stroke-width: 1.5; stroke-opacity: 0.6; fill: none;"></path><path d="M714.25,249.2265625L751.2513020833334,249.2265625C788.2526041666666,249.2265625,862.2552083333334,249.2265625,904.2565104166666,249.2265625C946.2578125,249.2265625,956.2578125,249.2265625,961.2578125,254.2265625C966.2578125,259.2265625,966.2578125,269.2265625,966.2578125,282.7265625C966.2578125,296.2265625,966.2578125,313.2265625,966.2578125,321.7265625L966.2578125,330.2265625" id="Brentano-Freud" stroke="#ffffff" style="stroke-width: 1.5; stroke-opacity: 0.6; fill: none;"></path><path d="M714.25,249.2265625L732.5989583333334,249.2265625C750.9479166666666,249.2265625,787.6458333333334,249.2265625,810.9947916666666,249.2265625C834.34375,249.2265625,844.34375,249.2265625,849.34375,254.2265625C854.34375,259.2265625,854.34375,269.2265625,854.34375,287.7265625C854.34375,306.2265625,854.34375,333.2265625,854.34375,346.7265625L854.34375,360.2265625" id="Brentano-Stumpf" stroke="#ffffff" style="stroke-width: 1.5; stroke-opacity: 0.6; fill: none;"></path><path d="M1303.34375,347.2265625L1335.8424479166667,347.2265625C1368.3411458333333,347.2265625,1433.3385416666667,347.2265625,1470.8372395833333,347.2265625C1508.3359375,347.2265625,1518.3359375,347.2265625,1523.3359375,347.2265625L1528.3359375,347.2265625" id="Wertheimer-Heider" stroke="#ffffff" style="stroke-width: 1.5; stroke-opacity: 0.6; fill: none;"></path><path d="M840.3359375,75.2265625L840.3359375,70.89322916666667C840.3359375,66.55989583333333,840.3359375,57.893229166666664,845.3359375,53.559895833333336C850.3359375,49.2265625,860.3359375,49.2265625,883.6041666666666,49.2265625C906.8723958333334,49.2265625,943.4088541666666,49.2265625,961.6770833333334,49.2265625L979.9453125,49.2265625" id="Osthoff-Saussure" stroke="#ffffff" style="stroke-width: 1.5; stroke-opacity: 0.6; fill: none;"></path><path d="M1401.0234375,151.2265625L1428.89453125,151.2265625C1456.765625,151.2265625,1512.5078125,151.2265625,1545.37890625,151.2265625C1578.25,151.2265625,1588.25,151.2265625,1593.25,151.2265625L1598.25,151.2265625" id="Benedict-Mead" stroke="#ffffff" style="stroke-width: 1.5; stroke-opacity: 0.6; fill: none;"></path><path d="M1359.34375,75.2265625L1403.4947916666667,75.2265625C1447.6458333333333,75.2265625,1535.9479166666667,75.2265625,1585.0989583333333,75.2265625C1634.25,75.2265625,1644.25,75.2265625,1649.25,70.2265625C1654.25,65.2265625,1654.25,55.2265625,1654.25,47.7265625C1654.25,40.2265625,1654.25,35.2265625,1654.25,32.7265625L1654.25,30.2265625" id="Sapir-Pike" stroke="#ffffff" style="stroke-width: 1.5; stroke-opacity: 0.6; fill: none;"></path><path d="M1359.34375,75.2265625L1405.8111979166667,75.2265625C1452.2786458333333,75.2265625,1545.2135416666667,75.2265625,1596.6809895833333,75.2265625C1648.1484375,75.2265625,1658.1484375,75.2265625,1663.1484375,72.05989583333333C1668.1484375,68.89322916666667,1668.1484375,62.559895833333336,1668.1484375,59.393229166666664L1668.1484375,56.2265625" id="Sapir-Harris" stroke="#ffffff" style="stroke-width: 1.5; stroke-opacity: 0.6; fill: none;"></path><path d="M1359.34375,75.2265625L1415.1614583333333,75.2265625C1470.9791666666667,75.2265625,1582.6145833333333,75.2265625,1643.4322916666667,75.2265625C1704.25,75.2265625,1714.25,75.2265625,1719.25,79.89322916666667C1724.25,84.55989583333333,1724.25,93.89322916666667,1724.25,98.55989583333333L1724.25,103.2265625" id="Sapir-Haas" stroke="#ffffff" style="stroke-width: 1.5; stroke-opacity: 0.6; fill: none;"></path><path d="M1359.34375,75.2265625L1429.2903645833333,75.2265625C1499.2369791666667,75.2265625,1639.1302083333333,75.2265625,1714.0768229166667,75.2265625C1789.0234375,75.2265625,1799.0234375,75.2265625,1804.0234375,75.2265625L1809.0234375,75.2265625" id="Sapir-Hockett" stroke="#ffffff" style="stroke-width: 1.5; stroke-opacity: 0.6; fill: none;"></path><path d="M1359.34375,75.2265625L1412.828125,75.2265625C1466.3125,75.2265625,1573.28125,75.2265625,1631.765625,75.2265625C1690.25,75.2265625,1700.25,75.2265625,1705.25,72.05989583333333C1710.25,68.89322916666667,1710.25,62.559895833333336,1710.25,59.393229166666664L1710.25,56.2265625" id="Sapir-Swadesh" stroke="#ffffff" style="stroke-width: 1.5; stroke-opacity: 0.6; fill: none;"></path><path d="M1359.34375,75.2265625L1405.828125,75.2265625C1452.3125,75.2265625,1545.28125,75.2265625,1596.765625,75.2265625C1648.25,75.2265625,1658.25,75.2265625,1663.25,78.89322916666667C1668.25,82.55989583333333,1668.25,89.89322916666667,1668.25,93.55989583333333L1668.25,97.2265625" id="Sapir-Voegelin" stroke="#ffffff" style="stroke-width: 1.5; stroke-opacity: 0.6; fill: none;"></path><path d="M1359.34375,75.2265625L1403.49609375,75.2265625C1447.6484375,75.2265625,1535.953125,75.2265625,1585.10546875,75.2265625C1634.2578125,75.2265625,1644.2578125,75.2265625,1649.2578125,80.2265625C1654.2578125,85.2265625,1654.2578125,95.2265625,1654.2578125,102.55989583333333C1654.2578125,109.89322916666667,1654.2578125,114.55989583333333,1654.2578125,116.89322916666667L1654.2578125,119.2265625" id="Sapir-Newman" stroke="#ffffff" style="stroke-width: 1.5; stroke-opacity: 0.6; fill: none;"></path><path d="M1359.34375,75.2265625L1401.17578125,75.2265625C1443.0078125,75.2265625,1526.671875,75.2265625,1573.50390625,75.2265625C1620.3359375,75.2265625,1630.3359375,75.2265625,1635.3359375,80.2265625C1640.3359375,85.2265625,1640.3359375,95.2265625,1640.3359375,105.7265625C1640.3359375,116.2265625,1640.3359375,127.2265625,1640.3359375,132.7265625L1640.3359375,138.2265625" id="Sapir-Hoijer" stroke="#ffffff" style="stroke-width: 1.5; stroke-opacity: 0.6; fill: none;"></path></g><g font-family="serif" font-size="7" letter-spacing="0.5px" text-anchor="middle"><g class="person" id="Kant" transform="translate(10,208)"><text fill="#7a7a7a" dy="0.35em">Kant</text><text fill="#7a7a7a" dy="10">1724</text></g><g class="person" id="Herder" transform="translate(55.57333333333334,184.25)"><text fill="#7a7a7a" dy="0.35em">Herder</text><text fill="#7a7a7a" dy="10">1744</text></g><g class="person" id="Fichte" transform="translate(96.58933333333334,208)"><text fill="#7a7a7a" dy="0.35em">Fichte</text><text fill="#7a7a7a" dy="10">1762</text></g><g class="person" id="Humboldt" transform="translate(107.98266666666667,71)"><text fill="#7a7a7a" dy="0.35em">Humboldt</text><text fill="#7a7a7a" dy="10">1767</text></g><g class="person" id="Schlegel" transform="translate(119.376,45.8)"><text fill="#7a7a7a" dy="0.35em">Schlegel</text><text fill="#7a7a7a" dy="10">1772</text></g><g class="person" id="Hegel" transform="translate(128.49066666666667,245.5)"><text fill="#7a7a7a" dy="0.35em">Hegel</text><text fill="#7a7a7a" dy="10">1776</text></g><g class="person" id="Grimm" transform="translate(148.99866666666668,96.2)"><text fill="#7a7a7a" dy="0.35em">Grimm</text><text fill="#7a7a7a" dy="10">1785</text></g><g class="person" id="Rask" transform="translate(153.55599999999998,20.6)"><text fill="#7a7a7a" dy="0.35em">Rask</text><text fill="#7a7a7a" dy="10">1787</text></g><g class="person" id="Bopp" transform="translate(162.67066666666668,58.4)"><text fill="#7a7a7a" dy="0.35em">Bopp</text><text fill="#7a7a7a" dy="10">1791</text></g><g class="person" id="Comte" transform="translate(178.62133333333333,245.5)"><text fill="#7a7a7a" dy="0.35em">Comte</text><text fill="#7a7a7a" dy="10">1798</text></g><g class="person" id="Fechner" transform="translate(194.93534482758622,326.25)"><text fill="#7a7a7a" dy="0.35em">Fechner</text><text fill="#7a7a7a" dy="10">1801</text></g><g class="person" id="Trendelenberg" transform="translate(208.9706896551724,223.625)"><text fill="#7a7a7a" dy="0.35em">Trendelenberg</text><text fill="#7a7a7a" dy="10">1802</text></g><g class="person" id="Mill" transform="translate(265.11206896551727,267.375)"><text fill="#7a7a7a" dy="0.35em">Mill</text><text fill="#7a7a7a" dy="10">1806</text></g><g class="person" id="Grassmann" transform="translate(307.2181034482759,77.3)"><text fill="#7a7a7a" dy="0.35em">Grassmann</text><text fill="#7a7a7a" dy="10">1809</text></g><g class="person" id="Lepsius" transform="translate(321.25344827586207,20.6)"><text fill="#7a7a7a" dy="0.35em">Lepsius</text><text fill="#7a7a7a" dy="10">1810</text></g><g class="person" id="Lotze" transform="translate(419.5008620689655,326.25)"><text fill="#7a7a7a" dy="0.35em">Lotze</text><text fill="#7a7a7a" dy="10">1817</text></g><g class="person" id="Curtius" transform="translate(461.60689655172416,20.6)"><text fill="#7a7a7a" dy="0.35em">Curtius</text><text fill="#7a7a7a" dy="10">1820</text></g><g class="person" id="Roth" transform="translate(475.64224137931035,71)"><text fill="#7a7a7a" dy="0.35em">Roth</text><text fill="#7a7a7a" dy="10">1821</text></g><g class="person" id="Schleicher" transform="translate(475.64224137931035,99.35)"><text fill="#7a7a7a" dy="0.35em">Schleicher</text><text fill="#7a7a7a" dy="10">1821</text></g><g class="person" id="Mueller" transform="translate(503.71293103448284,20.6)"><text fill="#7a7a7a" dy="0.35em">Mueller</text><text fill="#7a7a7a" dy="10">1823</text></g><g class="person" id="Steinthal" transform="translate(503.71293103448284,147.125)"><text fill="#7a7a7a" dy="0.35em">Steinthal</text><text fill="#7a7a7a" dy="10">1823</text></g><g class="person" id="Weber" transform="translate(531.7836206896552,89.9)"><text fill="#7a7a7a" dy="0.35em">Weber</text><text fill="#7a7a7a" dy="10">1825</text></g><g class="person" id="Whitney" transform="translate(559.8543103448276,52.1)"><text fill="#7a7a7a" dy="0.35em">Whitney</text><text fill="#7a7a7a" dy="10">1827</text></g><g class="person" id="Breal" transform="translate(630.0310344827586,89.9)"><text fill="#7a7a7a" dy="0.35em">Breal</text><text fill="#7a7a7a" dy="10">1832</text></g><g class="person" id="Wundt" transform="translate(630.0310344827586,443.75)"><text fill="#7a7a7a" dy="0.35em">Wundt</text><text fill="#7a7a7a" dy="10">1832</text></g><g class="person" id="Brentano" transform="translate(714.2431034482759,245.5)"><text fill="#7a7a7a" dy="0.35em">Brentano</text><text fill="#7a7a7a" dy="10">1838</text></g><g class="person" id="Ribot" transform="translate(728.278448275862,326.25)"><text fill="#7a7a7a" dy="0.35em">Ribot</text><text fill="#7a7a7a" dy="10">1839</text></g><g class="person" id="Peirce" transform="translate(728.278448275862,298.625)"><text fill="#7a7a7a" dy="0.35em">Peirce</text><text fill="#7a7a7a" dy="10">1839</text></g><g class="person" id="Leskien" transform="translate(742.3137931034483,71)"><text fill="#7a7a7a" dy="0.35em">Leskien</text><text fill="#7a7a7a" dy="10">1840</text></g><g class="person" id="Delbruck" transform="translate(770.3844827586207,102.5)"><text fill="#7a7a7a" dy="0.35em">Delbruck</text><text fill="#7a7a7a" dy="10">1842</text></g><g class="person" id="Schuchardt" transform="translate(770.3844827586207,33.2)"><text fill="#7a7a7a" dy="0.35em">Schuchardt</text><text fill="#7a7a7a" dy="10">1842</text></g><g class="person" id="James" transform="translate(770.3844827586207,326.25)"><text fill="#7a7a7a" dy="0.35em">James</text><text fill="#7a7a7a" dy="10">1842</text></g><g class="person" id="Baudouin-de-Courtenay" transform="translate(812.4905172413793,14.3)"><text fill="#7a7a7a" dy="0.35em">Baudouin de Courtenay</text><text fill="#7a7a7a" dy="10">1845</text></g><g class="person" id="Cantor" transform="translate(812.4905172413793,163.125)"><text fill="#7a7a7a" dy="0.35em">Cantor</text><text fill="#7a7a7a" dy="10">1845</text></g><g class="person" id="Osthoff" transform="translate(840.5612068965517,71)"><text fill="#7a7a7a" dy="0.35em">Osthoff</text><text fill="#7a7a7a" dy="10">1847</text></g><g class="person" id="Marty" transform="translate(840.5612068965517,201.74999999999997)"><text fill="#7a7a7a" dy="0.35em">Marty</text><text fill="#7a7a7a" dy="10">1847</text></g><g class="person" id="Stumpf" transform="translate(854.596551724138,356.25)"><text fill="#7a7a7a" dy="0.35em">Stumpf</text><text fill="#7a7a7a" dy="10">1848</text></g><g class="person" id="Brugmann" transform="translate(868.6318965517241,102.5)"><text fill="#7a7a7a" dy="0.35em">Brugmann</text><text fill="#7a7a7a" dy="10">1849</text></g><g class="person" id="Lanman" transform="translate(882.6672413793103,26.9)"><text fill="#7a7a7a" dy="0.35em">Lanman</text><text fill="#7a7a7a" dy="10">1850</text></g><g class="person" id="Sievers" transform="translate(882.6672413793103,77.3)"><text fill="#7a7a7a" dy="0.35em">Sievers</text><text fill="#7a7a7a" dy="10">1850</text></g><g class="person" id="Masaryk" transform="translate(882.6672413793103,184.25)"><text fill="#7a7a7a" dy="0.35em">Masaryk</text><text fill="#7a7a7a" dy="10">1850</text></g><g class="person" id="Meinong" transform="translate(924.773275862069,289.25)"><text fill="#7a7a7a" dy="0.35em">Meinong</text><text fill="#7a7a7a" dy="10">1853</text></g><g class="person" id="Freud" transform="translate(966.8793103448277,326.25)"><text fill="#7a7a7a" dy="0.35em">Freud</text><text fill="#7a7a7a" dy="10">1856</text></g><g class="person" id="Saussure" transform="translate(980.9146551724137,45.8)"><text fill="#7a7a7a" dy="0.35em">Saussure</text><text fill="#7a7a7a" dy="10">1857</text></g><g class="person" id="Dewey" transform="translate(1008.9853448275862,184.25)"><text fill="#7a7a7a" dy="0.35em">Dewey</text><text fill="#7a7a7a" dy="10">1859</text></g><g class="person" id="Boas" transform="translate(1008.9853448275862,147.125)"><text fill="#7a7a7a" dy="0.35em">Boas</text><text fill="#7a7a7a" dy="10">1859</text></g><g class="person" id="Husserl" transform="translate(1008.9853448275862,214.25)"><text fill="#7a7a7a" dy="0.35em">Husserl</text><text fill="#7a7a7a" dy="10">1859</text></g><g class="person" id="Ehrenfels" transform="translate(1008.9853448275862,270.5)"><text fill="#7a7a7a" dy="0.35em">Ehrenfels</text><text fill="#7a7a7a" dy="10">1859</text></g><g class="person" id="Loeb" transform="translate(1008.9853448275862,406.25)"><text fill="#7a7a7a" dy="0.35em">Loeb</text><text fill="#7a7a7a" dy="10">1859</text></g><g class="person" id="Hilbert" transform="translate(1051.0913793103448,163.125)"><text fill="#7a7a7a" dy="0.35em">Hilbert</text><text fill="#7a7a7a" dy="10">1862</text></g><g class="person" id="Buck" transform="translate(1107.2327586206895,26.9)"><text fill="#7a7a7a" dy="0.35em">Buck</text><text fill="#7a7a7a" dy="10">1866</text></g><g class="person" id="Meillet" transform="translate(1107.2327586206895,71)"><text fill="#7a7a7a" dy="0.35em">Meillet</text><text fill="#7a7a7a" dy="10">1866</text></g><g class="person" id="Twardowski" transform="translate(1107.2327586206895,245.5)"><text fill="#7a7a7a" dy="0.35em">Twardowski</text><text fill="#7a7a7a" dy="10">1866</text></g><g class="person" id="Titchener" transform="translate(1121.268103448276,421.875)"><text fill="#7a7a7a" dy="0.35em">Titchener</text><text fill="#7a7a7a" dy="10">1867</text></g><g class="person" id="Angell" transform="translate(1149.3387931034483,443.75)"><text fill="#7a7a7a" dy="0.35em">Angell</text><text fill="#7a7a7a" dy="10">1869</text></g><g class="person" id="Russell" transform="translate(1191.4448275862069,174)"><text fill="#7a7a7a" dy="0.35em">Russell</text><text fill="#7a7a7a" dy="10">1872</text></g><g class="person" id="Meyer" transform="translate(1205.480172413793,425)"><text fill="#7a7a7a" dy="0.35em">Meyer</text><text fill="#7a7a7a" dy="10">1873</text></g><g class="person" id="Cassirer" transform="translate(1219.5155172413795,301.75)"><text fill="#7a7a7a" dy="0.35em">Cassirer</text><text fill="#7a7a7a" dy="10">1874</text></g><g class="person" id="Lukasiewicz" transform="translate(1275.656896551724,163.125)"><text fill="#7a7a7a" dy="0.35em">Lukasiewicz</text><text fill="#7a7a7a" dy="10">1878</text></g><g class="person" id="Watson" transform="translate(1275.656896551724,412.5)"><text fill="#7a7a7a" dy="0.35em">Watson</text><text fill="#7a7a7a" dy="10">1878</text></g><g class="person" id="Langfeld" transform="translate(1289.6922413793104,375)"><text fill="#7a7a7a" dy="0.35em">Langfeld</text><text fill="#7a7a7a" dy="10">1879</text></g><g class="person" id="Wertheimer" transform="translate(1303.7275862068966,343.75)"><text fill="#7a7a7a" dy="0.35em">Wertheimer</text><text fill="#7a7a7a" dy="10">1880</text></g><g class="person" id="Neurath" transform="translate(1331.7982758620687,233)"><text fill="#7a7a7a" dy="0.35em">Neurath</text><text fill="#7a7a7a" dy="10">1882</text></g><g class="person" id="Schlick" transform="translate(1331.7982758620687,258)"><text fill="#7a7a7a" dy="0.35em">Schlick</text><text fill="#7a7a7a" dy="10">1882</text></g><g class="person" id="Hull" transform="translate(1359.8689655172413,443.75)"><text fill="#7a7a7a" dy="0.35em">Hull</text><text fill="#7a7a7a" dy="10">1884</text></g><g class="person" id="Sapir" transform="translate(1359.8689655172413,71)"><text fill="#7a7a7a" dy="0.35em">Sapir</text><text fill="#7a7a7a" dy="10">1884</text></g><g class="person" id="Koffka" transform="translate(1387.939655172414,326.25)"><text fill="#7a7a7a" dy="0.35em">Koffka</text><text fill="#7a7a7a" dy="10">1886</text></g><g class="person" id="Tolman" transform="translate(1387.939655172414,431.25)"><text fill="#7a7a7a" dy="0.35em">Tolman</text><text fill="#7a7a7a" dy="10">1886</text></g><g class="person" id="Benedict" transform="translate(1401.975,147.125)"><text fill="#7a7a7a" dy="0.35em">Benedict</text><text fill="#7a7a7a" dy="10">1887</text></g><g class="person" id="Bloomfield" transform="translate(1401.975,26.9)"><text fill="#7a7a7a" dy="0.35em">Bloomfield</text><text fill="#7a7a7a" dy="10">1887</text></g><g class="person" id="Wittgenstein" transform="translate(1430.0456896551725,195.50000000000003)"><text fill="#7a7a7a" dy="0.35em">Wittgenstein</text><text fill="#7a7a7a" dy="10">1889</text></g><g class="person" id="Ajdukiewicz" transform="translate(1444.0810344827587,163.125)"><text fill="#7a7a7a" dy="0.35em">Ajdukiewicz</text><text fill="#7a7a7a" dy="10">1890</text></g><g class="person" id="Lewin" transform="translate(1444.0810344827587,326.25)"><text fill="#7a7a7a" dy="0.35em">Lewin</text><text fill="#7a7a7a" dy="10">1890</text></g><g class="person" id="Lashley" transform="translate(1444.0810344827587,425)"><text fill="#7a7a7a" dy="0.35em">Lashley</text><text fill="#7a7a7a" dy="10">1890</text></g><g class="person" id="Carnap" transform="translate(1458.1163793103447,258)"><text fill="#7a7a7a" dy="0.35em">Carnap</text><text fill="#7a7a7a" dy="10">1891</text></g><g class="person" id="Reichenbach" transform="translate(1458.1163793103447,220.5)"><text fill="#7a7a7a" dy="0.35em">Reichenbach</text><text fill="#7a7a7a" dy="10">1891</text></g><g class="person" id="Koyre" transform="translate(1472.1517241379313,301.75)"><text fill="#7a7a7a" dy="0.35em">Koyre</text><text fill="#7a7a7a" dy="10">1892</text></g><g class="person" id="Heider" transform="translate(1528.2931034482758,343.75)"><text fill="#7a7a7a" dy="0.35em">Heider</text><text fill="#7a7a7a" dy="10">1896</text></g><g class="person" id="Allport" transform="translate(1542.328448275862,375)"><text fill="#7a7a7a" dy="0.35em">Allport</text><text fill="#7a7a7a" dy="10">1897</text></g><g class="person" id="Mead" transform="translate(1598.4698275862067,147.125)"><text fill="#7a7a7a" dy="0.35em">Mead</text><text fill="#7a7a7a" dy="10">1901</text></g><g class="person" id="Hoijer" transform="translate(1640.5758620689655,134)"><text fill="#7a7a7a" dy="0.35em">Hoijer</text><text fill="#7a7a7a" dy="10">1904</text></g><g class="person" id="Skinner" transform="translate(1640.5758620689655,406.25)"><text fill="#7a7a7a" dy="0.35em">Skinner</text><text fill="#7a7a7a" dy="10">1904</text></g><g class="person" id="Newman" transform="translate(1654.6112068965517,115.1)"><text fill="#7a7a7a" dy="0.35em">Newman</text><text fill="#7a7a7a" dy="10">1905</text></g><g class="person" id="Pike" transform="translate(1654.6112068965517,26.9)"><text fill="#7a7a7a" dy="0.35em">Pike</text><text fill="#7a7a7a" dy="10">1905</text></g><g class="person" id="Voegelin" transform="translate(1668.6465517241381,93.05)"><text fill="#7a7a7a" dy="0.35em">Voegelin</text><text fill="#7a7a7a" dy="10">1906</text></g><g class="person" id="Harris" transform="translate(1668.6465517241381,52.1)"><text fill="#7a7a7a" dy="0.35em">Harris</text><text fill="#7a7a7a" dy="10">1906</text></g><g class="person" id="Swadesh" transform="translate(1710.7525862068967,52.1)"><text fill="#7a7a7a" dy="0.35em">Swadesh</text><text fill="#7a7a7a" dy="10">1909</text></g><g class="person" id="Haas" transform="translate(1724.7879310344827,99.35)"><text fill="#7a7a7a" dy="0.35em">Haas</text><text fill="#7a7a7a" dy="10">1910</text></g><g class="person" id="Bruner" transform="translate(1794.964655172414,356.25)"><text fill="#7a7a7a" dy="0.35em">Bruner</text><text fill="#7a7a7a" dy="10">1915</text></g><g class="person" id="Hockett" transform="translate(1809,71)"><text fill="#7a7a7a" dy="0.35em">Hockett</text><text fill="#7a7a7a" dy="10">1916</text></g></g></svg>
