<svg width="1656" height="440"><rect id="linguists" stroke="#ffffff" stroke-width="3" fill="#fafafa" width="1656" height="122" transform="translate(0,0)"></rect><rect id="psychologists" stroke="#ffffff" stroke-width="3" fill="#fafafa" width="1656" height="122" transform="translate(0,276)"></rect><rect id="anthropologists" stroke="#ffffff" stroke-width="3" fill="#fafafa" width="1656" height="16" transform="translate(0,122)"></rect><rect id="mathematicians" stroke="#ffffff" stroke-width="3" fill="#fafafa" width="1656" height="16" transform="translate(0,138)"></rect><rect id="philosophers" stroke="#ffffff" stroke-width="3" fill="#fafafa" width="1656" height="122" transform="translate(0,154)"></rect><rect id="psychologists" stroke="#ffffff" stroke-width="3" fill="#fafafa" width="1656" height="4" transform="translate(0,398)"></rect><path d="M473.203125,130.4453125L544.2291666666666,130.4453125C615.2552083333334,130.4453125,757.3072916666666,130.4453125,828.5,130.4453125C899.6927083333334,130.4453125,900.0260416666666,130.4453125,900.1927083333334,130.4453125L900.359375,130.4453125" id="Steinthal-Boas" stroke="#808080" style="stroke-width: 0.5; fill: none;"></path><g id="shown-groups" width="1656" height="436"><path d="M147.796875,17.09375L130.359375,17.09375L130.359375,35.09375L93.3125,35.09375L93.3125,57.09375L81.171875,57.09375L81.171875,72.796875L122,72.796875L122,82.796875L146.015625,82.796875L146.015625,56.796875L156.375,56.796875L156.375,41.09375L147.796875,41.09375L147.796875,17.09375Z" id="first_generation" stroke-width="12" stroke="none" fill="#fafafa"></path><path d="M468.859375,25.09375L404.3125,25.09375L404.3125,25.09375L276.734375,25.09375L276.734375,57.09375L258.375,57.09375L258.375,72.796875L412.109375,72.796875L412.109375,93.796875L448.3125,93.796875L448.3125,72.796875L491.328125,72.796875L491.328125,40.796875L468.859375,40.796875L468.859375,25.09375Z" id="second_generation" stroke-width="12" stroke="none" fill="#fafafa"></path><path d="M785.3125,5.09375L785.3125,16.09375L746.984375,16.09375L746.984375,25.09375L677.125,25.09375L677.125,54.09375L657.53125,54.09375L657.53125,69.796875L680.34375,69.796875L680.34375,90.796875L903.359375,90.796875L903.359375,137.796875L923.953125,137.796875L923.953125,57.09375L902.609375,57.09375L902.609375,16.09375L810.703125,16.09375L810.703125,5.09375L785.3125,5.09375Z" id="third_generation" stroke-width="12" stroke="none" fill="#fafafa"></path><path d="M1219.71875,67.09375L1219.71875,82.796875L1251.921875,82.796875L1251.921875,137.796875L1282.859375,137.796875L1282.859375,98.796875L1435.390625,98.796875L1435.390625,137.796875L1454.75,137.796875L1454.75,125.796875L1524.15625,125.796875L1524.15625,98.796875L1567.796875,98.796875L1567.796875,82.796875L1650.25,82.796875L1650.25,67.09375L1650.25,19.09375L1247.9375,19.09375L1247.9375,67.09375L1219.71875,67.09375Z" id="sapir_circle" stroke-width="12" stroke="none" fill="#fafafa"></path><path d="M1131.9375,150.09375L1174.59375,150.09375L1174.59375,160.09375L1314.53125,160.09375L1314.53125,175.796875L1131.9375,175.796875L1131.9375,150.09375Z" id="wittgenstein_circle" stroke-width="12" stroke="none" fill="#fafafa"></path><path d="M1190.34375,241.796875L1305.765625,241.796875L1305.765625,247.796875L1342.171875,247.796875L1342.171875,184.09375L1320.359375,184.09375L1320.359375,205.09375L1190.34375,205.09375L1190.34375,226.09375L1190.34375,241.796875Z" id="vienna_circle" stroke-width="12" stroke="none" fill="#fafafa"></path><path d="M629.546875,211.09375L660.609375,211.09375L749.5625,211.09375L749.5625,173.09375L783.375,173.09375L783.375,110.09375L812.78125,110.09375L812.78125,179.09375L928.296875,179.09375L928.296875,241.796875L884.203125,241.796875L884.203125,296.796875L863.953125,296.796875L863.953125,241.796875L784.859375,241.796875L784.859375,321.796875L759.5625,321.796875L759.5625,226.796875L629.546875,226.796875L629.546875,211.09375Z" id="brentanos_circle" stroke-width="12" stroke="none" fill="#fafafa"></path><path d="M1394.0625,281.09375L1150.734375,281.09375L1150.734375,342.796875L1181.40625,342.796875L1181.40625,296.796875L1198.953125,296.796875L1394.0625,296.796875L1394.0625,281.09375Z" id="gestalt_circle" stroke-width="12" stroke="none" fill="#fafafa"></path></g><g class="grid-x" transform="translate(0,402)" fill="none" font-size="10" font-family="sans-serif" text-anchor="middle"><g class="tick" opacity="1" transform="translate(22.62908245974279,0)"><line stroke="currentColor" y2="8" style="stroke: rgb(128, 128, 128); stroke-width: 1; stroke-opacity: 0.5; shape-rendering: crispedges;"></line><text fill="currentColor" y="11" dy="0.71em" style="font-family: serif; font-size: 9px; fill: rgb(170, 170, 170);"></text></g><g class="tick" opacity="1" transform="translate(42.83684210526316,0)"><line stroke="currentColor" y2="8" style="stroke: rgb(128, 128, 128); stroke-width: 1; stroke-opacity: 0.5; shape-rendering: crispedges;"></line><text fill="currentColor" y="11" dy="0.71em" style="font-family: serif; font-size: 9px; fill: rgb(170, 170, 170);"></text></g><g class="tick" opacity="1" transform="translate(63.050135091321735,0)"><line stroke="currentColor" y2="8" style="stroke: rgb(128, 128, 128); stroke-width: 1; stroke-opacity: 0.5; shape-rendering: crispedges;"></line><text fill="currentColor" y="11" dy="0.71em" style="font-family: serif; font-size: 9px; fill: rgb(170, 170, 170);">1750</text></g><g class="tick" opacity="1" transform="translate(83.2578947368421,0)"><line stroke="currentColor" y2="8" style="stroke: rgb(128, 128, 128); stroke-width: 1; stroke-opacity: 0.5; shape-rendering: crispedges;"></line><text fill="currentColor" y="11" dy="0.71em" style="font-family: serif; font-size: 9px; fill: rgb(170, 170, 170);"></text></g><g class="tick" opacity="1" transform="translate(103.47118772290068,0)"><line stroke="currentColor" y2="8" style="stroke: rgb(128, 128, 128); stroke-width: 1; stroke-opacity: 0.5; shape-rendering: crispedges;"></line><text fill="currentColor" y="11" dy="0.71em" style="font-family: serif; font-size: 9px; fill: rgb(170, 170, 170);"></text></g><g class="tick" opacity="1" transform="translate(123.67894736842106,0)"><line stroke="currentColor" y2="8" style="stroke: rgb(128, 128, 128); stroke-width: 1; stroke-opacity: 0.5; shape-rendering: crispedges;"></line><text fill="currentColor" y="11" dy="0.71em" style="font-family: serif; font-size: 9px; fill: rgb(170, 170, 170);"></text></g><g class="tick" opacity="1" transform="translate(143.89224035447964,0)"><line stroke="currentColor" y2="8" style="stroke: rgb(128, 128, 128); stroke-width: 1; stroke-opacity: 0.5; shape-rendering: crispedges;"></line><text fill="currentColor" y="11" dy="0.71em" style="font-family: serif; font-size: 9px; fill: rgb(170, 170, 170);"></text></g><g class="tick" opacity="1" transform="translate(164.10000000000002,0)"><line stroke="currentColor" y2="8" style="stroke: rgb(128, 128, 128); stroke-width: 1; stroke-opacity: 0.5; shape-rendering: crispedges;"></line><text fill="currentColor" y="11" dy="0.71em" style="font-family: serif; font-size: 9px; fill: rgb(170, 170, 170);">1800</text></g></g><g class="grid-x" transform="translate(0,402)" fill="none" font-size="10" font-family="sans-serif" text-anchor="middle"><g class="tick" opacity="1" transform="translate(279.3273281557987,0)"><line stroke="currentColor" y2="8" style="stroke: rgb(128, 128, 128); stroke-width: 1; stroke-opacity: 0.5; shape-rendering: crispedges;"></line><text fill="currentColor" y="11" dy="0.71em" style="font-family: serif; font-size: 9px; fill: rgb(170, 170, 170);">1810</text></g><g class="tick" opacity="1" transform="translate(407.34990266902554,0)"><line stroke="currentColor" y2="8" style="stroke: rgb(128, 128, 128); stroke-width: 1; stroke-opacity: 0.5; shape-rendering: crispedges;"></line><text fill="currentColor" y="11" dy="0.71em" style="font-family: serif; font-size: 9px; fill: rgb(170, 170, 170);">1820</text></g><g class="tick" opacity="1" transform="translate(535.4075326517248,0)"><line stroke="currentColor" y2="8" style="stroke: rgb(128, 128, 128); stroke-width: 1; stroke-opacity: 0.5; shape-rendering: crispedges;"></line><text fill="currentColor" y="11" dy="0.71em" style="font-family: serif; font-size: 9px; fill: rgb(170, 170, 170);">1830</text></g><g class="tick" opacity="1" transform="translate(663.4301071649517,0)"><line stroke="currentColor" y2="8" style="stroke: rgb(128, 128, 128); stroke-width: 1; stroke-opacity: 0.5; shape-rendering: crispedges;"></line><text fill="currentColor" y="11" dy="0.71em" style="font-family: serif; font-size: 9px; fill: rgb(170, 170, 170);">1840</text></g><g class="tick" opacity="1" transform="translate(791.487737147651,0)"><line stroke="currentColor" y2="8" style="stroke: rgb(128, 128, 128); stroke-width: 1; stroke-opacity: 0.5; shape-rendering: crispedges;"></line><text fill="currentColor" y="11" dy="0.71em" style="font-family: serif; font-size: 9px; fill: rgb(170, 170, 170);">1850</text></g><g class="tick" opacity="1" transform="translate(919.5103116608778,0)"><line stroke="currentColor" y2="8" style="stroke: rgb(128, 128, 128); stroke-width: 1; stroke-opacity: 0.5; shape-rendering: crispedges;"></line><text fill="currentColor" y="11" dy="0.71em" style="font-family: serif; font-size: 9px; fill: rgb(170, 170, 170);">1860</text></g><g class="tick" opacity="1" transform="translate(1047.5679416435771,0)"><line stroke="currentColor" y2="8" style="stroke: rgb(128, 128, 128); stroke-width: 1; stroke-opacity: 0.5; shape-rendering: crispedges;"></line><text fill="currentColor" y="11" dy="0.71em" style="font-family: serif; font-size: 9px; fill: rgb(170, 170, 170);">1870</text></g><g class="tick" opacity="1" transform="translate(1175.5905161568041,0)"><line stroke="currentColor" y2="8" style="stroke: rgb(128, 128, 128); stroke-width: 1; stroke-opacity: 0.5; shape-rendering: crispedges;"></line><text fill="currentColor" y="11" dy="0.71em" style="font-family: serif; font-size: 9px; fill: rgb(170, 170, 170);">1880</text></g><g class="tick" opacity="1" transform="translate(1303.6483173595045,0)"><line stroke="currentColor" y2="8" style="stroke: rgb(128, 128, 128); stroke-width: 1; stroke-opacity: 0.5; shape-rendering: crispedges;"></line><text fill="currentColor" y="11" dy="0.71em" style="font-family: serif; font-size: 9px; fill: rgb(170, 170, 170);">1890</text></g><g class="tick" opacity="1" transform="translate(1431.6708918727313,0)"><line stroke="currentColor" y2="8" style="stroke: rgb(128, 128, 128); stroke-width: 1; stroke-opacity: 0.5; shape-rendering: crispedges;"></line><text fill="currentColor" y="11" dy="0.71em" style="font-family: serif; font-size: 9px; fill: rgb(170, 170, 170);">1900</text></g><g class="tick" opacity="1" transform="translate(1559.6934663859583,0)"><line stroke="currentColor" y2="8" style="stroke: rgb(128, 128, 128); stroke-width: 1; stroke-opacity: 0.5; shape-rendering: crispedges;"></line><text fill="currentColor" y="11" dy="0.71em" style="font-family: serif; font-size: 9px; fill: rgb(170, 170, 170);">1910</text></g></g><g font-family="serif" font-size="7" letter-spacing="0.5px" text-anchor="middle"><g class="person" id="Kant" transform="translate(10,183.2)"><text fill="#404040" dy="0.35em">Kant</text><text fill="#404040" dy="10">1724</text></g><g class="person" id="Herder" transform="translate(50.96000000000001,114)"><text fill="#404040" dy="0.35em">Herder</text><text fill="#404040" dy="10">1744</text></g><g class="person" id="Fichte" transform="translate(87.82400000000003,183.2)"><text fill="#404040" dy="0.35em">Fichte</text><text fill="#404040" dy="10">1762</text></g><g class="person" id="Humboldt" transform="translate(98.06400000000002,61)"><text fill="#404040" dy="0.35em">Humboldt</text><text fill="#404040" dy="10">1767</text></g><g class="person" id="Schlegel" transform="translate(108.30400000000002,39.8)"><text fill="#404040" dy="0.35em">Schlegel</text><text fill="#404040" dy="10">1772</text></g><g class="person" id="Hegel" transform="translate(116.49600000000001,215)"><text fill="#404040" dy="0.35em">Hegel</text><text fill="#404040" dy="10">1776</text></g><g class="person" id="Grimm" transform="translate(134.92800000000003,71.6)"><text fill="#404040" dy="0.35em">Grimm</text><text fill="#404040" dy="10">1785</text></g><g class="person" id="Rask" transform="translate(139.024,21.25)"><text fill="#404040" dy="0.35em">Rask</text><text fill="#404040" dy="10">1787</text></g><g class="person" id="Bopp" transform="translate(147.216,45.1)"><text fill="#404040" dy="0.35em">Bopp</text><text fill="#404040" dy="10">1791</text></g><g class="person" id="Comte" transform="translate(161.55200000000002,215)"><text fill="#404040" dy="0.35em">Comte</text><text fill="#404040" dy="10">1798</text></g><g class="person" id="Fechner" transform="translate(176.29310344827587,285.06)"><text fill="#404040" dy="0.35em">Fechner</text><text fill="#404040" dy="10">1801</text></g><g class="person" id="Trendelenberg" transform="translate(188.98620689655172,196.45000000000002)"><text fill="#404040" dy="0.35em">Trendelenberg</text><text fill="#404040" dy="10">1802</text></g><g class="person" id="Mill" transform="translate(239.7586206896552,233.55)"><text fill="#404040" dy="0.35em">Mill</text><text fill="#404040" dy="10">1806</text></g><g class="person" id="Grassmann" transform="translate(277.8379310344828,61)"><text fill="#404040" dy="0.35em">Grassmann</text><text fill="#404040" dy="10">1809</text></g><g class="person" id="Lepsius" transform="translate(290.5310344827586,29.200000000000003)"><text fill="#404040" dy="0.35em">Lepsius</text><text fill="#404040" dy="10">1810</text></g><g class="person" id="Lotze" transform="translate(379.38275862068963,285.06)"><text fill="#404040" dy="0.35em">Lotze</text><text fill="#404040" dy="10">1817</text></g><g class="person" id="Curtius" transform="translate(417.46206896551723,29.200000000000003)"><text fill="#404040" dy="0.35em">Curtius</text><text fill="#404040" dy="10">1820</text></g><g class="person" id="Roth" transform="translate(430.15517241379314,61)"><text fill="#404040" dy="0.35em">Roth</text><text fill="#404040" dy="10">1821</text></g><g class="person" id="Schleicher" transform="translate(430.15517241379314,82.2)"><text fill="#404040" dy="0.35em">Schleicher</text><text fill="#404040" dy="10">1821</text></g><g class="person" id="Mueller" transform="translate(455.54137931034484,29.200000000000003)"><text fill="#404040" dy="0.35em">Mueller</text><text fill="#404040" dy="10">1823</text></g><g class="person" id="Steinthal" transform="translate(455.54137931034484,126.79999999999998)"><text fill="#404040" dy="0.35em">Steinthal</text><text fill="#404040" dy="10">1823</text></g><g class="person" id="Weber" transform="translate(480.92758620689654,61)"><text fill="#404040" dy="0.35em">Weber</text><text fill="#404040" dy="10">1825</text></g><g class="person" id="Whitney" transform="translate(506.3137931034483,45.1)"><text fill="#404040" dy="0.35em">Whitney</text><text fill="#404040" dy="10">1827</text></g><g class="person" id="Breal" transform="translate(569.7793103448276,61)"><text fill="#404040" dy="0.35em">Breal</text><text fill="#404040" dy="10">1832</text></g><g class="person" id="Wundt" transform="translate(569.7793103448276,384.7)"><text fill="#404040" dy="0.35em">Wundt</text><text fill="#404040" dy="10">1832</text></g><g class="person" id="Brentano" transform="translate(645.9379310344827,215)"><text fill="#404040" dy="0.35em">Brentano</text><text fill="#404040" dy="10">1838</text></g><g class="person" id="Ribot" transform="translate(658.6310344827587,285.06)"><text fill="#404040" dy="0.35em">Ribot</text><text fill="#404040" dy="10">1839</text></g><g class="person" id="Peirce" transform="translate(658.6310344827587,260.05)"><text fill="#404040" dy="0.35em">Peirce</text><text fill="#404040" dy="10">1839</text></g><g class="person" id="Leskien" transform="translate(671.3241379310346,58.879999999999995)"><text fill="#404040" dy="0.35em">Leskien</text><text fill="#404040" dy="10">1840</text></g><g class="person" id="Delbruek" transform="translate(696.7103448275861,79.55)"><text fill="#404040" dy="0.35em">Delbruek</text><text fill="#404040" dy="10">1842</text></g><g class="person" id="Schuchardt" transform="translate(696.7103448275861,29.200000000000003)"><text fill="#404040" dy="0.35em">Schuchardt</text><text fill="#404040" dy="10">1842</text></g><g class="person" id="James" transform="translate(696.7103448275861,285.06)"><text fill="#404040" dy="0.35em">James</text><text fill="#404040" dy="10">1842</text></g><g class="person" id="Baudouin de Courtenay" transform="translate(734.7896551724139,61)"><text fill="#404040" dy="0.35em">Baudouin de Courtenay</text><text fill="#404040" dy="10">1845</text></g><g class="person" id="Cantor" transform="translate(734.7896551724139,142.79999999999998)"><text fill="#404040" dy="0.35em">Cantor</text><text fill="#404040" dy="10">1845</text></g><g class="person" id="Osthoff" transform="translate(760.1758620689654,20.189999999999998)"><text fill="#404040" dy="0.35em">Osthoff</text><text fill="#404040" dy="10">1847</text></g><g class="person" id="Marty" transform="translate(760.1758620689654,177.89999999999998)"><text fill="#404040" dy="0.35em">Marty</text><text fill="#404040" dy="10">1847</text></g><g class="person" id="Stumpf" transform="translate(772.8689655172413,310.5)"><text fill="#404040" dy="0.35em">Stumpf</text><text fill="#404040" dy="10">1848</text></g><g class="person" id="Brugmann" transform="translate(785.5620689655173,76.9)"><text fill="#404040" dy="0.35em">Brugmann</text><text fill="#404040" dy="10">1849</text></g><g class="person" id="Lanman" transform="translate(798.255172413793,31.85)"><text fill="#404040" dy="0.35em">Lanman</text><text fill="#404040" dy="10">1850</text></g><g class="person" id="Sievers" transform="translate(798.255172413793,9.06)"><text fill="#404040" dy="0.35em">Sievers</text><text fill="#404040" dy="10">1850</text></g><g class="person" id="Masaryk" transform="translate(798.255172413793,114)"><text fill="#404040" dy="0.35em">Masaryk</text><text fill="#404040" dy="10">1850</text></g><g class="person" id="Meinong" transform="translate(836.3344827586207,262.7)"><text fill="#404040" dy="0.35em">Meinong</text><text fill="#404040" dy="10">1853</text></g><g class="person" id="Harper" transform="translate(874.4137931034484,34.5)"><text fill="#404040" dy="0.35em">Harper</text><text fill="#404040" dy="10">1856</text></g><g class="person" id="Freud" transform="translate(874.4137931034484,285.06)"><text fill="#404040" dy="0.35em">Freud</text><text fill="#404040" dy="10">1856</text></g><g class="person" id="Saussure" transform="translate(887.1068965517242,20.189999999999998)"><text fill="#404040" dy="0.35em">Saussure</text><text fill="#404040" dy="10">1857</text></g><g class="person" id="Dewey" transform="translate(912.4931034482757,61)"><text fill="#404040" dy="0.35em">Dewey</text><text fill="#404040" dy="10">1859</text></g><g class="person" id="Boas" transform="translate(912.4931034482757,126.79999999999998)"><text fill="#404040" dy="0.35em">Boas</text><text fill="#404040" dy="10">1859</text></g><g class="person" id="Husserl" transform="translate(912.4931034482757,183.2)"><text fill="#404040" dy="0.35em">Husserl</text><text fill="#404040" dy="10">1859</text></g><g class="person" id="Ehrenfels" transform="translate(912.4931034482757,230.9)"><text fill="#404040" dy="0.35em">Ehrenfels</text><text fill="#404040" dy="10">1859</text></g><g class="person" id="Loeb" transform="translate(912.4931034482757,352.9)"><text fill="#404040" dy="0.35em">Loeb</text><text fill="#404040" dy="10">1859</text></g><g class="person" id="Hilbert" transform="translate(950.5724137931035,142.79999999999998)"><text fill="#404040" dy="0.35em">Hilbert</text><text fill="#404040" dy="10">1862</text></g><g class="person" id="Buck" transform="translate(1001.344827586207,23.9)"><text fill="#404040" dy="0.35em">Buck</text><text fill="#404040" dy="10">1866</text></g><g class="person" id="Meillet" transform="translate(1001.344827586207,61)"><text fill="#404040" dy="0.35em">Meillet</text><text fill="#404040" dy="10">1866</text></g><g class="person" id="Twardowski" transform="translate(1001.344827586207,215)"><text fill="#404040" dy="0.35em">Twardowski</text><text fill="#404040" dy="10">1866</text></g><g class="person" id="Titchener" transform="translate(1014.0379310344828,366.15)"><text fill="#404040" dy="0.35em">Titchener</text><text fill="#404040" dy="10">1867</text></g><g class="person" id="Angell" transform="translate(1039.4241379310345,384.7)"><text fill="#404040" dy="0.35em">Angell</text><text fill="#404040" dy="10">1869</text></g><g class="person" id="Russell" transform="translate(1077.503448275862,164.12)"><text fill="#404040" dy="0.35em">Russell</text><text fill="#404040" dy="10">1872</text></g><g class="person" id="Meyer" transform="translate(1090.1965517241379,368.8)"><text fill="#404040" dy="0.35em">Meyer</text><text fill="#404040" dy="10">1873</text></g><g class="person" id="Cassirer" transform="translate(1102.889655172414,262.7)"><text fill="#404040" dy="0.35em">Cassirer</text><text fill="#404040" dy="10">1874</text></g><g class="person" id="Lukasiewicz" transform="translate(1153.6620689655172,154)"><text fill="#404040" dy="0.35em">Lukasiewicz</text><text fill="#404040" dy="10">1878</text></g><g class="person" id="Watson" transform="translate(1153.6620689655172,352.9)"><text fill="#404040" dy="0.35em">Watson</text><text fill="#404040" dy="10">1878</text></g><g class="person" id="Langfeld" transform="translate(1166.355172413793,331.70000000000005)"><text fill="#404040" dy="0.35em">Langfeld</text><text fill="#404040" dy="10">1879</text></g><g class="person" id="Wertheimer" transform="translate(1179.048275862069,285.06)"><text fill="#404040" dy="0.35em">Wertheimer</text><text fill="#404040" dy="10">1880</text></g><g class="person" id="Neurath" transform="translate(1204.4344827586206,230.9)"><text fill="#404040" dy="0.35em">Neurath</text><text fill="#404040" dy="10">1882</text></g><g class="person" id="Schlick" transform="translate(1204.4344827586206,209.70000000000002)"><text fill="#404040" dy="0.35em">Schlick</text><text fill="#404040" dy="10">1882</text></g><g class="person" id="Hull" transform="translate(1229.8206896551724,384.7)"><text fill="#404040" dy="0.35em">Hull</text><text fill="#404040" dy="10">1884</text></g><g class="person" id="Sapir" transform="translate(1229.8206896551724,71.6)"><text fill="#404040" dy="0.35em">Sapir</text><text fill="#404040" dy="10">1884</text></g><g class="person" id="Koffka" transform="translate(1255.2068965517242,285.06)"><text fill="#404040" dy="0.35em">Koffka</text><text fill="#404040" dy="10">1886</text></g><g class="person" id="Tolman" transform="translate(1255.2068965517242,374.1)"><text fill="#404040" dy="0.35em">Tolman</text><text fill="#404040" dy="10">1886</text></g><g class="person" id="Benedict" transform="translate(1267.9,126.79999999999998)"><text fill="#404040" dy="0.35em">Benedict</text><text fill="#404040" dy="10">1887</text></g><g class="person" id="Bloomfield" transform="translate(1267.9,23.9)"><text fill="#404040" dy="0.35em">Bloomfield</text><text fill="#404040" dy="10">1887</text></g><g class="person" id="Wittgenstein" transform="translate(1293.2862068965517,164.12)"><text fill="#404040" dy="0.35em">Wittgenstein</text><text fill="#404040" dy="10">1889</text></g><g class="person" id="Lewin" transform="translate(1305.9793103448276,285.06)"><text fill="#404040" dy="0.35em">Lewin</text><text fill="#404040" dy="10">1890</text></g><g class="person" id="Lashley" transform="translate(1305.9793103448276,368.8)"><text fill="#404040" dy="0.35em">Lashley</text><text fill="#404040" dy="10">1890</text></g><g class="person" id="Carnap" transform="translate(1318.6724137931033,236.2)"><text fill="#404040" dy="0.35em">Carnap</text><text fill="#404040" dy="10">1891</text></g><g class="person" id="Reichenbach" transform="translate(1318.6724137931033,215)"><text fill="#404040" dy="0.35em">Reichenbach</text><text fill="#404040" dy="10">1891</text></g><g class="person" id="Koyre" transform="translate(1331.3655172413794,188.5)"><text fill="#404040" dy="0.35em">Koyre</text><text fill="#404040" dy="10">1892</text></g><g class="person" id="Heider" transform="translate(1382.1379310344828,285.06)"><text fill="#404040" dy="0.35em">Heider</text><text fill="#404040" dy="10">1896</text></g><g class="person" id="Allport" transform="translate(1394.8310344827587,310.5)"><text fill="#404040" dy="0.35em">Allport</text><text fill="#404040" dy="10">1897</text></g><g class="person" id="Mead" transform="translate(1445.603448275862,126.79999999999998)"><text fill="#404040" dy="0.35em">Mead</text><text fill="#404040" dy="10">1901</text></g><g class="person" id="Hoijer" transform="translate(1483.6827586206896,114)"><text fill="#404040" dy="0.35em">Hoijer</text><text fill="#404040" dy="10">1904</text></g><g class="person" id="Skinner" transform="translate(1483.6827586206896,352.9)"><text fill="#404040" dy="0.35em">Skinner</text><text fill="#404040" dy="10">1904</text></g><g class="person" id="Newman" transform="translate(1496.3758620689655,100.75)"><text fill="#404040" dy="0.35em">Newman</text><text fill="#404040" dy="10">1905</text></g><g class="person" id="Pike" transform="translate(1496.3758620689655,37.15)"><text fill="#404040" dy="0.35em">Pike</text><text fill="#404040" dy="10">1905</text></g><g class="person" id="Voegelin" transform="translate(1509.0689655172414,87.5)"><text fill="#404040" dy="0.35em">Voegelin</text><text fill="#404040" dy="10">1906</text></g><g class="person" id="Harris" transform="translate(1509.0689655172414,50.4)"><text fill="#404040" dy="0.35em">Harris</text><text fill="#404040" dy="10">1906</text></g><g class="person" id="Swadesh" transform="translate(1547.148275862069,55.7)"><text fill="#404040" dy="0.35em">Swadesh</text><text fill="#404040" dy="10">1909</text></g><g class="person" id="Haas" transform="translate(1559.841379310345,84.85)"><text fill="#404040" dy="0.35em">Haas</text><text fill="#404040" dy="10">1910</text></g><g class="person" id="Bruner" transform="translate(1623.306896551724,310.5)"><text fill="#404040" dy="0.35em">Bruner</text><text fill="#404040" dy="10">1915</text></g><g class="person" id="Hockett" transform="translate(1636,71.6)"><text fill="#404040" dy="0.35em">Hockett</text><text fill="#404040" dy="10">1916</text></g></g><path d="M49.7109375,128.796875L49.7109375,138.23828125C49.7109375,147.6796875,49.7109375,166.5625,49.7109375,176.17057291666666C49.7109375,185.77864583333334,49.7109375,186.11197916666666,49.544270833333336,186.27864583333334C49.377604166666664,186.4453125,49.044270833333336,186.4453125,44.467447916666664,186.4453125C39.890625,186.4453125,31.0703125,186.4453125,26.66015625,186.4453125L22.25,186.4453125" id="Herder-Kant" stroke="#808080" style="stroke-width: 0.5; fill: none;"></path><path d="M51.7109375,128.796875L51.7109375,138.23828125C51.7109375,147.6796875,51.7109375,166.5625,51.7109375,176.17057291666666C51.7109375,185.77864583333334,51.7109375,186.11197916666666,51.877604166666664,186.27864583333334C52.044270833333336,186.4453125,52.377604166666664,186.4453125,55.944010416666664,186.4453125C59.510416666666664,186.4453125,66.30989583333333,186.4453125,69.70963541666667,186.4453125L73.109375,186.4453125" id="Herder-Fichte" stroke="#808080" style="stroke-width: 0.5; fill: none;"></path><path d="M22.25,188.4453125L30.559895833333332,188.4453125C38.869791666666664,188.4453125,55.489583333333336,188.4453125,63.966145833333336,188.4453125C72.44270833333333,188.4453125,72.77604166666667,188.4453125,72.94270833333333,188.4453125L73.109375,188.4453125" id="Kant-Fichte" stroke="#808080" style="stroke-width: 0.5; fill: none;"></path><path d="M50.7109375,107.09375L50.7109375,100.15234375C50.7109375,93.2109375,50.7109375,79.328125,50.877604166666664,72.38671875C51.044270833333336,65.4453125,51.377604166666664,65.4453125,55.954427083333336,65.4453125C60.53125,65.4453125,69.3515625,65.4453125,73.76171875,65.4453125L78.171875,65.4453125" id="Herder-Humboldt" stroke="#808080" style="stroke-width: 0.5; fill: none;"></path><path d="M98.890625,75.796875L98.890625,84.73828125C98.890625,93.6796875,98.890625,111.5625,98.890625,120.67057291666667C98.890625,129.77864583333334,98.890625,130.11197916666666,99.05729166666667,130.27864583333334C99.22395833333333,130.4453125,99.55729166666667,130.4453125,155.85416666666666,130.4453125C212.15104166666666,130.4453125,324.4114583333333,130.4453125,380.5416666666667,130.4453125L436.671875,130.4453125" id="Humboldt-Steinthal" stroke="#808080" style="stroke-width: 0.5; fill: none;"></path><path d="M626.546875,219.4453125L175.765625,219.4453125" id="Brentano-Comte" stroke="#808080" style="stroke-width: 0.5; fill: none;"></path><path d="M626.546875,217.4453125L553.55078125,217.4453125C480.5546875,217.4453125,334.5625,217.4453125,261.56640625,217.27864583333334C188.5703125,217.11197916666666,188.5703125,216.77864583333334,188.5703125,215.67057291666666C188.5703125,214.5625,188.5703125,212.6796875,188.5703125,211.73828125L188.5703125,210.796875" id="Brentano-Trendelenberg" stroke="#808080" style="stroke-width: 0.5; fill: none;"></path><path d="M626.546875,221.4453125L562.0520833333334,221.4453125C497.5572916666667,221.4453125,368.5677083333333,221.4453125,304.0729166666667,221.61197916666666C239.578125,221.77864583333334,239.578125,222.11197916666666,239.578125,222.88671875C239.578125,223.66145833333334,239.578125,224.87760416666666,239.578125,225.48567708333334L239.578125,226.09375" id="Brentano-Mill" stroke="#808080" style="stroke-width: 0.5; fill: none;"></path><path d="M488.5625,46.4453125L483.0846354166667,46.4453125C477.6067708333333,46.4453125,466.6510416666667,46.4453125,461.1731770833333,46.278645833333336C455.6953125,46.111979166666664,455.6953125,45.778645833333336,455.6953125,45.337239583333336C455.6953125,44.895833333333336,455.6953125,44.346354166666664,455.6953125,44.071614583333336L455.6953125,43.796875" id="Whitney-Mueller" stroke="#808080" style="stroke-width: 0.5; fill: none;"></path><path d="M488.5625,48.4453125L476.7200520833333,48.4453125C464.8776041666667,48.4453125,441.1927083333333,48.4453125,429.3502604166667,48.278645833333336C417.5078125,48.111979166666664,417.5078125,47.778645833333336,417.5078125,47.00390625C417.5078125,46.229166666666664,417.5078125,45.013020833333336,417.5078125,44.404947916666664L417.5078125,43.796875" id="Whitney-Curtius" stroke="#808080" style="stroke-width: 0.5; fill: none;"></path><path d="M488.5625,52.4453125L433.6979166666667,52.4453125C378.8333333333333,52.4453125,269.1041666666667,52.4453125,214.23958333333334,52.278645833333336C159.375,52.111979166666664,159.375,51.778645833333336,159.375,51.278645833333336C159.375,50.778645833333336,159.375,50.111979166666664,159.375,49.778645833333336L159.375,49.4453125" id="Whitney-Bopp" stroke="#808080" style="stroke-width: 0.5; fill: none;"></path><path d="M488.5625,50.4453125L455.5546875,50.4453125C422.546875,50.4453125,356.53125,50.4453125,323.5234375,50.278645833333336C290.515625,50.111979166666664,290.515625,49.778645833333336,290.515625,48.670572916666664C290.515625,47.5625,290.515625,45.6796875,290.515625,44.73828125L290.515625,43.796875" id="Whitney-Lepsius" stroke="#808080" style="stroke-width: 0.5; fill: none;"></path><path d="M494.328125,65.4453125L504.5286458333333,65.4453125C514.7291666666666,65.4453125,535.1302083333334,65.4453125,545.4973958333334,65.4453125C555.8645833333334,65.4453125,556.1979166666666,65.4453125,556.3645833333334,65.4453125L556.53125,65.4453125" id="Weber-Breal" stroke="#808080" style="stroke-width: 0.5; fill: none;"></path><path d="M215.234375,200.4453125L305.7916666666667,200.4453125C396.3489583333333,200.4453125,577.4635416666666,200.4453125,668.1875,200.4453125C758.9114583333334,200.4453125,759.2447916666666,200.4453125,759.4114583333334,200.27864583333334C759.578125,200.11197916666666,759.578125,199.77864583333334,759.578125,198.33723958333334C759.578125,196.89583333333334,759.578125,194.34635416666666,759.578125,193.07161458333334L759.578125,191.796875" id="Trendelenberg-Marty" stroke="#808080" style="stroke-width: 0.5; fill: none;"></path><path d="M663.609375,212.4453125L679.7708333333334,212.4453125C695.9322916666666,212.4453125,728.2552083333334,212.4453125,744.5833333333334,212.4453125C760.9114583333334,212.4453125,761.2447916666666,212.4453125,761.4114583333334,212.27864583333334C761.578125,212.11197916666666,761.578125,211.77864583333334,761.578125,208.33723958333334C761.578125,204.89583333333334,761.578125,198.34635416666666,761.578125,195.07161458333334L761.578125,191.796875" id="Brentano-Marty" stroke="#808080" style="stroke-width: 0.5; fill: none;"></path><path d="M663.609375,214.4453125L685.9375,214.4453125C708.265625,214.4453125,752.921875,214.4453125,775.4166666666666,214.4453125C797.9114583333334,214.4453125,798.2447916666666,214.4453125,798.4114583333334,214.27864583333334C798.578125,214.11197916666666,798.578125,213.77864583333334,798.578125,199.50390625C798.578125,185.22916666666666,798.578125,157.01302083333334,798.578125,142.90494791666666L798.578125,128.796875" id="Brentano-Masaryk" stroke="#808080" style="stroke-width: 0.5; fill: none;"></path><path d="M663.609375,216.4453125L704.9140625,216.4453125C746.21875,216.4453125,828.828125,216.4453125,870.2994791666666,216.4453125C911.7708333333334,216.4453125,912.1041666666666,216.4453125,912.2708333333334,216.27864583333334C912.4375,216.11197916666666,912.4375,215.77864583333334,912.4375,212.67057291666666C912.4375,209.5625,912.4375,203.6796875,912.4375,200.73828125L912.4375,197.796875" id="Brentano-Husserl" stroke="#808080" style="stroke-width: 0.5; fill: none;"></path><path d="M663.609375,218.4453125L715.7786458333334,218.4453125C767.9479166666666,218.4453125,872.2864583333334,218.4453125,924.6223958333334,218.4453125C976.9583333333334,218.4453125,977.2916666666666,218.4453125,977.4583333333334,218.61197916666666C977.625,218.77864583333334,977.625,219.11197916666666,977.625,219.27864583333334L977.625,219.4453125" id="Brentano-Twardowski" stroke="#808080" style="stroke-width: 0.5; fill: none;"></path><path d="M663.609375,220.4453125L704.9244791666666,220.4453125C746.2395833333334,220.4453125,828.8697916666666,220.4453125,870.3515625,220.4453125C911.8333333333334,220.4453125,912.1666666666666,220.4453125,912.3333333333334,220.61197916666666C912.5,220.77864583333334,912.5,221.11197916666666,912.5,221.55338541666666C912.5,221.99479166666666,912.5,222.54427083333334,912.5,222.81901041666666L912.5,223.09375" id="Brentano-Ehrenfels" stroke="#808080" style="stroke-width: 0.5; fill: none;"></path><path d="M663.609375,224.4453125L692.2708333333334,224.4453125C720.9322916666666,224.4453125,778.2552083333334,224.4453125,807.0833333333334,224.4453125C835.9114583333334,224.4453125,836.2447916666666,224.4453125,836.4114583333334,224.61197916666666C836.578125,224.77864583333334,836.578125,225.11197916666666,836.578125,230.22005208333334C836.578125,235.328125,836.578125,245.2109375,836.578125,250.15234375L836.578125,255.09375" id="Brentano-Meinong" stroke="#808080" style="stroke-width: 0.5; fill: none;"></path><path d="M663.609375,222.4453125L698.6041666666666,222.4453125C733.5989583333334,222.4453125,803.5885416666666,222.4453125,838.75,222.4453125C873.9114583333334,222.4453125,874.2447916666666,222.4453125,874.4114583333334,222.61197916666666C874.578125,222.77864583333334,874.578125,223.11197916666666,874.578125,232.38671875C874.578125,241.66145833333334,874.578125,259.8776041666667,874.578125,268.9856770833333L874.578125,278.09375" id="Brentano-Freud" stroke="#808080" style="stroke-width: 0.5; fill: none;"></path><path d="M663.609375,226.4453125L681.6263020833334,226.4453125C699.6432291666666,226.4453125,735.6770833333334,226.4453125,753.8606770833334,226.4453125C772.0442708333334,226.4453125,772.3776041666666,226.4453125,772.5442708333334,226.61197916666666C772.7109375,226.77864583333334,772.7109375,227.11197916666666,772.7109375,239.88671875C772.7109375,252.66145833333334,772.7109375,277.8776041666667,772.7109375,290.4856770833333L772.7109375,303.09375" id="Brentano-Stumpf" stroke="#808080" style="stroke-width: 0.5; fill: none;"></path><path d="M787.859375,316.4453125L850.64453125,316.4453125C913.4296875,316.4453125,1039,316.4453125,1101.9518229166667,316.4453125C1164.9036458333333,316.4453125,1165.2369791666667,316.4453125,1165.4036458333333,316.6119791666667C1165.5703125,316.7786458333333,1165.5703125,317.1119791666667,1165.5703125,318.38671875C1165.5703125,319.6614583333333,1165.5703125,321.8776041666667,1165.5703125,322.9856770833333L1165.5703125,324.09375" id="Stumpf-Langfeld" stroke="#808080" style="stroke-width: 0.5; fill: none;"></path><path d="M787.859375,312.4453125L852.6653645833334,312.4453125C917.4713541666666,312.4453125,1047.0833333333333,312.4453125,1112.0559895833333,312.4453125C1177.0286458333333,312.4453125,1177.3619791666667,312.4453125,1177.5286458333333,312.2786458333333C1177.6953125,312.1119791666667,1177.6953125,311.7786458333333,1177.6953125,309.6705729166667C1177.6953125,307.5625,1177.6953125,303.6796875,1177.6953125,301.73828125L1177.6953125,299.796875" id="Stumpf-Wertheimer" stroke="#808080" style="stroke-width: 0.5; fill: none;"></path><path d="M787.859375,314.4453125L886.1328125,314.4453125C984.40625,314.4453125,1180.953125,314.4453125,1279.3932291666667,314.4453125C1377.8333333333333,314.4453125,1378.1666666666667,314.4453125,1378.3333333333333,314.2786458333333C1378.5,314.1119791666667,1378.5,313.7786458333333,1378.5,313.6119791666667L1378.5,313.4453125" id="Stumpf-Allport" stroke="#808080" style="stroke-width: 0.5; fill: none;"></path><path d="M584.078125,389.4453125L657.2890625,389.4453125C730.5,389.4453125,876.921875,389.4453125,950.2994791666666,389.4453125C1023.6770833333334,389.4453125,1024.0104166666667,389.4453125,1024.1770833333333,389.2786458333333C1024.34375,389.1119791666667,1024.34375,388.7786458333333,1024.34375,388.6119791666667L1024.34375,388.4453125" id="Wundt-Angell" stroke="#808080" style="stroke-width: 0.5; fill: none;"></path><path d="M584.078125,387.4453125L655.6809895833334,387.4453125C727.2838541666666,387.4453125,870.4895833333334,387.4453125,942.2591145833334,387.4453125C1014.0286458333334,387.4453125,1014.3619791666666,387.4453125,1014.5286458333334,387.2786458333333C1014.6953125,387.1119791666667,1014.6953125,386.7786458333333,1014.6953125,385.6705729166667C1014.6953125,384.5625,1014.6953125,382.6796875,1014.6953125,381.73828125L1014.6953125,380.796875" id="Wundt-Titchener" stroke="#808080" style="stroke-width: 0.5; fill: none;"></path><path d="M1137.453125,354.4453125L1101.875,354.4453125C1066.296875,354.4453125,995.140625,354.4453125,959.5625,354.6119791666667C923.984375,354.7786458333333,923.984375,355.1119791666667,923.984375,355.4453125C923.984375,355.7786458333333,923.984375,356.1119791666667,923.984375,356.2786458333333L923.984375,356.4453125" id="Watson-Loeb" stroke="#808080" style="stroke-width: 0.5; fill: none;"></path><path d="M1137.453125,358.4453125L1121.1184895833333,358.4453125C1104.7838541666667,358.4453125,1072.1145833333333,358.4453125,1055.7799479166667,358.6119791666667C1039.4453125,358.7786458333333,1039.4453125,359.1119791666667,1039.4453125,362.2200520833333C1039.4453125,365.328125,1039.4453125,371.2109375,1039.4453125,374.15234375L1039.4453125,377.09375" id="Watson-Angell" stroke="#808080" style="stroke-width: 0.5; fill: none;"></path><path d="M1137.453125,356.4453125L1116.9934895833333,356.4453125C1096.5338541666667,356.4453125,1055.6145833333333,356.4453125,1035.1549479166667,356.6119791666667C1014.6953125,356.7786458333333,1014.6953125,357.1119791666667,1014.6953125,357.5533854166667C1014.6953125,357.9947916666667,1014.6953125,358.5442708333333,1014.6953125,358.8190104166667L1014.6953125,359.09375" id="Watson-Titchener" stroke="#808080" style="stroke-width: 0.5; fill: none;"></path><path d="M1168.6875,360.4453125L1178.6692708333333,360.4453125C1188.6510416666667,360.4453125,1208.6145833333333,360.4453125,1218.7630208333333,360.4453125C1228.9114583333333,360.4453125,1229.2447916666667,360.4453125,1229.4114583333333,360.6119791666667C1229.578125,360.7786458333333,1229.578125,361.1119791666667,1229.578125,363.88671875C1229.578125,366.6614583333333,1229.578125,371.8776041666667,1229.578125,374.4856770833333L1229.578125,377.09375" id="Watson-Hull" stroke="#808080" style="stroke-width: 0.5; fill: none;"></path><path d="M1168.6875,358.4453125L1183.0013020833333,358.4453125C1197.3151041666667,358.4453125,1225.9427083333333,358.4453125,1240.4231770833333,358.4453125C1254.9036458333333,358.4453125,1255.2369791666667,358.4453125,1255.4036458333333,358.6119791666667C1255.5703125,358.7786458333333,1255.5703125,359.1119791666667,1255.5703125,360.5533854166667C1255.5703125,361.9947916666667,1255.5703125,364.5442708333333,1255.5703125,365.8190104166667L1255.5703125,367.09375" id="Watson-Tolman" stroke="#808080" style="stroke-width: 0.5; fill: none;"></path><path d="M1168.6875,354.4453125L1218.1953125,354.4453125C1267.703125,354.4453125,1366.71875,354.4453125,1416.3932291666667,354.4453125C1466.0677083333333,354.4453125,1466.4010416666667,354.4453125,1466.5677083333333,354.6119791666667C1466.734375,354.7786458333333,1466.734375,355.1119791666667,1466.734375,355.4453125C1466.734375,355.7786458333333,1466.734375,356.1119791666667,1466.734375,356.2786458333333L1466.734375,356.4453125" id="Watson-Skinner" stroke="#808080" style="stroke-width: 0.5; fill: none;"></path><path d="M1168.6875,352.4453125L1202.1302083333333,352.4453125C1235.5729166666667,352.4453125,1302.4583333333333,352.4453125,1336.0677083333333,352.4453125C1369.6770833333333,352.4453125,1370.0104166666667,352.4453125,1370.1770833333333,346.7786458333333C1370.34375,341.1119791666667,1370.34375,329.7786458333333,1370.34375,323.9453125C1370.34375,318.1119791666667,1370.34375,317.7786458333333,1371.5364583333333,317.6119791666667C1372.7291666666667,317.4453125,1375.1145833333333,317.4453125,1376.4739583333333,317.4453125C1377.8333333333333,317.4453125,1378.1666666666667,317.4453125,1378.3333333333333,317.4453125L1378.5,317.4453125" id="Watson-Allport" stroke="#808080" style="stroke-width: 0.5; fill: none;"></path><path d="M1168.6875,356.4453125L1191.3346354166667,356.4453125C1213.9817708333333,356.4453125,1259.2760416666667,356.4453125,1282.08984375,356.4453125C1304.9036458333333,356.4453125,1305.2369791666667,356.4453125,1305.4036458333333,356.6119791666667C1305.5703125,356.7786458333333,1305.5703125,357.1119791666667,1305.5703125,357.88671875C1305.5703125,358.6614583333333,1305.5703125,359.8776041666667,1305.5703125,360.4856770833333L1305.5703125,361.09375" id="Watson-Lashley" stroke="#808080" style="stroke-width: 0.5; fill: none;"></path><path d="M1378.5,315.4453125L1343.3450520833333,315.4453125C1308.1901041666667,315.4453125,1237.8802083333333,315.4453125,1202.7252604166667,315.6119791666667C1167.5703125,315.7786458333333,1167.5703125,316.1119791666667,1167.5703125,317.5533854166667C1167.5703125,318.9947916666667,1167.5703125,321.5442708333333,1167.5703125,322.8190104166667L1167.5703125,324.09375" id="Allport-Langfeld" stroke="#808080" style="stroke-width: 0.5; fill: none;"></path><path d="M1378.5,311.4453125L1345.3658854166667,311.4453125C1312.2317708333333,311.4453125,1245.9635416666667,311.4453125,1212.8294270833333,311.2786458333333C1179.6953125,311.1119791666667,1179.6953125,310.7786458333333,1179.6953125,308.8372395833333C1179.6953125,306.8958333333333,1179.6953125,303.3463541666667,1179.6953125,301.5716145833333L1179.6953125,299.796875" id="Allport-Wertheimer" stroke="#808080" style="stroke-width: 0.5; fill: none;"></path><path d="M1410.28125,314.4453125L1443.0911458333333,314.4453125C1475.9010416666667,314.4453125,1541.5208333333333,314.4453125,1574.4973958333333,314.4453125C1607.4739583333333,314.4453125,1607.8072916666667,314.4453125,1607.9739583333333,314.4453125L1608.140625,314.4453125" id="Allport-Bruner" stroke="#808080" style="stroke-width: 0.5; fill: none;"></path><path d="M1181.6953125,299.796875L1212.4700520833333,299.796875C1243.2447916666667,299.796875,1304.7942708333333,299.796875,1335.7356770833333,299.796875C1366.6770833333333,299.796875,1367.0104166666667,299.796875,1367.1770833333333,299.6302083333333C1367.34375,299.4635416666667,1367.34375,299.1302083333333,1367.34375,297.4049479166667C1367.34375,295.6796875,1367.34375,292.5625,1367.34375,291.00390625L1367.34375,289.4453125" id="Wertheimer-Heider" stroke="#808080" style="stroke-width: 0.5; fill: none;"></path><path d="M950.8984375,156.796875L950.8984375,161.73828125C950.8984375,166.6796875,950.8984375,176.5625,950.8984375,181.67057291666666C950.8984375,186.77864583333334,950.8984375,187.11197916666666,950.7317708333334,187.27864583333334C950.5651041666666,187.4453125,950.2317708333334,187.4453125,946.4075520833334,187.4453125C942.5833333333334,187.4453125,935.2682291666666,187.4453125,931.6106770833334,187.4453125L927.953125,187.4453125" id="Hilbert-Husserl" stroke="#808080" style="stroke-width: 0.5; fill: none;"></path><path d="M1268.640625,168.4453125L1092.578125,168.4453125" id="Wittgenstein-Russell" stroke="#808080" style="stroke-width: 0.5; fill: none;"></path><path d="M1119.5,266.4453125L1150.3463541666667,266.4453125C1181.1927083333333,266.4453125,1242.8854166666667,266.4453125,1273.8984375,266.4453125C1304.9114583333333,266.4453125,1305.2447916666667,266.4453125,1305.4114583333333,266.6119791666667C1305.578125,266.7786458333333,1305.578125,267.1119791666667,1305.578125,269.0533854166667C1305.578125,270.9947916666667,1305.578125,274.5442708333333,1305.578125,276.3190104166667L1305.578125,278.09375" id="Cassirer-Lewin" stroke="#808080" style="stroke-width: 0.5; fill: none;"></path><path d="M523.578125,49.4453125L581.93359375,49.4453125C640.2890625,49.4453125,757,49.4453125,815.5221354166666,49.4453125C874.0442708333334,49.4453125,874.3776041666666,49.4453125,874.5442708333334,49.337239583333336C874.7109375,49.229166666666664,874.7109375,49.013020833333336,874.7109375,48.904947916666664L874.7109375,48.796875" id="Whitney-Harper" stroke="#808080" style="stroke-width: 0.5; fill: none;"></path><path d="M523.578125,51.4453125L603.0768229166666,51.4453125C682.5755208333334,51.4453125,841.5729166666666,51.4453125,921.23828125,51.4453125C1000.9036458333334,51.4453125,1001.2369791666666,51.4453125,1001.4036458333334,51.278645833333336C1001.5703125,51.111979166666664,1001.5703125,50.778645833333336,1001.5703125,48.50390625C1001.5703125,46.229166666666664,1001.5703125,42.013020833333336,1001.5703125,39.904947916666664L1001.5703125,37.796875" id="Whitney-Buck" stroke="#808080" style="stroke-width: 0.5; fill: none;"></path><path d="M1013.171875,27.4453125L1051.6328125,27.4453125C1090.09375,27.4453125,1167.015625,27.4453125,1205.6432291666667,27.4453125C1244.2708333333333,27.4453125,1244.6041666666667,27.4453125,1244.7708333333333,27.4453125L1244.9375,27.4453125" id="Buck-Bloomfield" stroke="#808080" style="stroke-width: 0.5; fill: none;"></path><path d="M523.578125,47.4453125L569.2447916666666,47.4453125C614.9114583333334,47.4453125,706.2447916666666,47.4453125,752.078125,47.4453125C797.9114583333334,47.4453125,798.2447916666666,47.4453125,798.4114583333334,47.278645833333336C798.578125,47.111979166666664,798.578125,46.778645833333336,798.578125,46.50390625C798.578125,46.229166666666664,798.578125,46.013020833333336,798.578125,45.904947916666664L798.578125,45.796875" id="Whitney-Lanman" stroke="#808080" style="stroke-width: 0.5; fill: none;"></path><path d="M776.421875,24.4453125L791.671875,24.4453125C806.921875,24.4453125,837.421875,24.4453125,852.8385416666666,24.4453125C868.2552083333334,24.4453125,868.5885416666666,24.4453125,868.7552083333334,24.4453125L868.921875,24.4453125" id="Osthoff-Saussure" stroke="#808080" style="stroke-width: 0.5; fill: none;"></path><path d="M923.796875,131.4453125L977.8177083333334,131.4453125C1031.8385416666667,131.4453125,1139.8802083333333,131.4453125,1194.0677083333333,131.4453125C1248.2552083333333,131.4453125,1248.5885416666667,131.4453125,1248.7552083333333,131.27864583333334C1248.921875,131.11197916666666,1248.921875,130.77864583333334,1248.921875,130.61197916666666L1248.921875,130.4453125" id="Boas-Benedict" stroke="#808080" style="stroke-width: 0.5; fill: none;"></path><path d="M923.796875,129.4453125L974.28125,129.4453125C1024.765625,129.4453125,1125.734375,129.4453125,1176.3854166666667,129.4453125C1227.0364583333333,129.4453125,1227.3697916666667,129.4453125,1227.5364583333333,129.27864583333334C1227.703125,129.11197916666666,1227.703125,128.77864583333334,1227.703125,121.50390625C1227.703125,114.22916666666667,1227.703125,100.01302083333333,1227.703125,92.90494791666667L1227.703125,85.796875" id="Boas-Sapir" stroke="#808080" style="stroke-width: 0.5; fill: none;"></path><path d="M1229.703125,85.796875L1229.703125,91.6640625C1229.703125,97.53125,1229.703125,109.265625,1229.703125,115.29947916666667C1229.703125,121.33333333333333,1229.703125,121.66666666666667,1229.703125,121.83333333333333L1229.703125,122" id="Sapir-Koffka-1" stroke="#808080" style="stroke-width: 0.5; fill: none;"></path><path d="M1240.015625,288.4453125L1238.296875,288.4453125C1236.578125,288.4453125,1233.140625,288.4453125,1231.421875,288.2786458333333C1229.703125,288.1119791666667,1229.703125,287.7786458333333,1229.703125,285.7044258117676C1229.703125,283.63020579020184,1229.703125,279.8150990804036,1229.703125,277.9075457255046L1229.703125,275.99999237060547" id="Koffka-Sapir-2" stroke="#808080" style="stroke-width: 0.5; fill: none;"></path><path d="M1285.859375,130.4453125L1310.1145833333333,130.4453125C1334.3697916666667,130.4453125,1382.8802083333333,130.4453125,1407.3020833333333,130.4453125C1431.7239583333333,130.4453125,1432.0572916666667,130.4453125,1432.2239583333333,130.4453125L1432.390625,130.4453125" id="Benedict-Mead" stroke="#808080" style="stroke-width: 0.5; fill: none;"></path><path d="M1241.6875,68.4453125L1284.0026041666667,68.4453125C1326.3177083333333,68.4453125,1410.9479166666667,68.4453125,1453.4296875,68.4453125C1495.9114583333333,68.4453125,1496.2447916666667,68.4453125,1496.4114583333333,68.27864583333333C1496.578125,68.11197916666667,1496.578125,67.77864583333333,1496.578125,65.00390625C1496.578125,62.229166666666664,1496.578125,57.013020833333336,1496.578125,54.404947916666664L1496.578125,51.796875" id="Sapir-Pike" stroke="#808080" style="stroke-width: 0.5; fill: none;"></path><path d="M1241.6875,70.4453125L1286.15625,70.4453125C1330.625,70.4453125,1419.5625,70.4453125,1464.1979166666667,70.4453125C1508.8333333333333,70.4453125,1509.1666666666667,70.4453125,1509.3333333333333,70.27864583333333C1509.5,70.11197916666667,1509.5,69.77864583333333,1509.5,68.83723958333333C1509.5,67.89583333333333,1509.5,66.34635416666667,1509.5,65.57161458333333L1509.5,64.796875" id="Sapir-Harris" stroke="#808080" style="stroke-width: 0.5; fill: none;"></path><path d="M1241.6875,76.4453125L1294.5026041666667,76.4453125C1347.3177083333333,76.4453125,1452.9479166666667,76.4453125,1505.9296875,76.4453125C1558.9114583333333,76.4453125,1559.2447916666667,76.4453125,1559.4114583333333,76.55338541666667C1559.578125,76.66145833333333,1559.578125,76.87760416666667,1559.578125,76.98567708333333L1559.578125,77.09375" id="Sapir-Haas" stroke="#808080" style="stroke-width: 0.5; fill: none;"></path><path d="M1241.6875,74.4453125L1304.4947916666667,74.4453125C1367.3020833333333,74.4453125,1492.9166666666667,74.4453125,1555.890625,74.4453125C1618.8645833333333,74.4453125,1619.1979166666667,74.4453125,1619.3645833333333,74.61197916666667C1619.53125,74.77864583333333,1619.53125,75.11197916666667,1619.53125,75.27864583333333L1619.53125,75.4453125" id="Sapir-Hockett" stroke="#808080" style="stroke-width: 0.5; fill: none;"></path><path d="M1241.6875,72.4453125L1292.5013020833333,72.4453125C1343.3151041666667,72.4453125,1444.9427083333333,72.4453125,1495.9231770833333,72.4453125C1546.9036458333333,72.4453125,1547.2369791666667,72.4453125,1547.4036458333333,72.27864583333333C1547.5703125,72.11197916666667,1547.5703125,71.77864583333333,1547.5703125,71.33723958333333C1547.5703125,70.89583333333333,1547.5703125,70.34635416666667,1547.5703125,70.07161458333333L1547.5703125,69.796875" id="Sapir-Swadesh" stroke="#808080" style="stroke-width: 0.5; fill: none;"></path><path d="M1241.6875,78.4453125L1286.16796875,78.4453125C1330.6484375,78.4453125,1419.609375,78.4453125,1464.2565104166667,78.4453125C1508.9036458333333,78.4453125,1509.2369791666667,78.4453125,1509.4036458333333,78.61197916666667C1509.5703125,78.77864583333333,1509.5703125,79.11197916666667,1509.5703125,79.38671875C1509.5703125,79.66145833333333,1509.5703125,79.87760416666667,1509.5703125,79.98567708333333L1509.5703125,80.09375" id="Sapir-Voegelin" stroke="#808080" style="stroke-width: 0.5; fill: none;"></path><path d="M1241.6875,80.4453125L1280.9453125,80.4453125C1320.203125,80.4453125,1398.71875,80.4453125,1438.1432291666667,80.4453125C1477.5677083333333,80.4453125,1477.9010416666667,80.4453125,1478.0677083333333,80.61197916666667C1478.234375,80.77864583333333,1478.234375,81.11197916666667,1478.234375,85.11197916666667C1478.234375,89.11197916666667,1478.234375,96.77864583333333,1478.234375,100.61197916666667L1478.234375,104.4453125" id="Sapir-Newman" stroke="#808080" style="stroke-width: 0.5; fill: none;"></path><path d="M1241.6875,82.4453125L1279.3932291666667,82.4453125C1317.0989583333333,82.4453125,1392.5104166666667,82.4453125,1430.3828125,82.4453125C1468.2552083333333,82.4453125,1468.5885416666667,82.4453125,1468.7552083333333,82.61197916666667C1468.921875,82.77864583333333,1468.921875,83.11197916666667,1468.921875,89.11197916666667C1468.921875,95.11197916666667,1468.921875,106.77864583333333,1468.921875,112.61197916666667L1468.921875,118.4453125" id="Sapir-Hoijer" stroke="#808080" style="stroke-width: 0.5; fill: none;"></path><path d="M1289.21875,29.4453125L1323.6119791666667,29.4453125C1358.0052083333333,29.4453125,1426.7916666666667,29.4453125,1461.3515625,29.4453125C1495.9114583333333,29.4453125,1496.2447916666667,29.4453125,1496.4114583333333,29.553385416666668C1496.578125,29.661458333333332,1496.578125,29.877604166666668,1496.578125,29.985677083333332L1496.578125,30.09375" id="Bloomfield-Pike" stroke="#808080" style="stroke-width: 0.5; fill: none;"></path><path d="M1289.21875,27.4453125L1325.765625,27.4453125C1362.3125,27.4453125,1435.40625,27.4453125,1472.1197916666667,27.4453125C1508.8333333333333,27.4453125,1509.1666666666667,27.4453125,1509.3333333333333,27.611979166666668C1509.5,27.778645833333332,1509.5,28.111979166666668,1509.5,30.720052083333332C1509.5,33.328125,1509.5,38.2109375,1509.5,40.65234375L1509.5,43.09375" id="Bloomfield-Harris" stroke="#808080" style="stroke-width: 0.5; fill: none;"></path><path d="M1289.21875,25.4453125L1346.9973958333333,25.4453125C1404.7760416666667,25.4453125,1520.3333333333333,25.4453125,1578.2786458333333,25.4453125C1636.2239583333333,25.4453125,1636.5572916666667,25.4453125,1636.7239583333333,25.611979166666668C1636.890625,25.778645833333332,1636.890625,26.111979166666668,1636.890625,32.553385416666664C1636.890625,38.994791666666664,1636.890625,51.544270833333336,1636.890625,57.819010416666664L1636.890625,64.09375" id="Bloomfield-Hockett" stroke="#808080" style="stroke-width: 0.5; fill: none;"></path></svg>
