<svg width="600" height="1650"><g fill="none" stroke-opacity="0.6" stroke-width="1.5"><path stroke="#b2c2bd" d="M200,1616A7,7 0,0,0 200,1602"></path><path stroke="#b2c2bd" d="M200,1630A14,14 0,0,0 200,1602"></path><path stroke="#b2c2bd" d="M200,636A161,161 0,0,0 200,314"></path><path stroke="#b2c2bd" d="M200,692A126,126 0,0,0 200,440"></path><path stroke="#b2c2bd" d="M200,1518A105,105 0,0,0 200,1308"></path><path stroke="#b2c2bd" d="M200,1406A49,49 0,0,0 200,1308"></path><path stroke="#b2c2bd" d="M200,1434A63,63 0,0,0 200,1308"></path><path stroke="#b2c2bd" d="M200,1364A28,28 0,0,0 200,1308"></path><path stroke="#b2c2bd" d="M200,1308A182,182 0,0,0 200,944"></path><path stroke="#b2c2bd" d="M200,1308A168,168 0,0,0 200,972"></path><path stroke="#b2c2bd" d="M200,1308A147,147 0,0,0 200,1014"></path><path stroke="#b2c2bd" d="M200,1308A273,273 0,0,0 200,762"></path><path stroke="#b2c2bd" d="M200,762A140,140 0,0,0 200,482"></path><path stroke="#b2c2bd" d="M200,846A147,147 0,0,0 200,552"></path><path stroke="#b2c2bd" d="M200,846A189,189 0,0,0 200,468"></path><path stroke="#b2c2bd" d="M200,846A273,273 0,0,0 200,300"></path><path stroke="#b2c2bd" d="M200,468A84,84 0,0,0 200,300"></path><path stroke="#b2c2bd" d="M200,552A196,196 0,0,0 200,160"></path><path stroke="#b2c2bd" d="M200,552A168,168 0,0,0 200,216"></path><path stroke="#b2c2bd" d="M200,552A203,203 0,0,0 200,146"></path><path stroke="#b2c2bd" d="M200,552A224,224 0,0,0 200,104"></path><path stroke="#65dbb7" d="M200,552A175,175 0,0,0 200,202"></path><path stroke="#b2c2bd" d="M200,552A182,182 0,0,0 200,188"></path><path stroke="#b2c2bd" d="M200,552A161,161 0,0,0 200,230"></path><path stroke="#6d93c7" d="M200,552A154,154 0,0,0 200,244"></path><path stroke="#b2c2bd" d="M200,482A147,147 0,0,0 200,188"></path><path stroke="#b2c2bd" d="M200,482A189,189 0,0,0 200,104"></path><path stroke="#b2c2bd" d="M200,482A126,126 0,0,0 200,230"></path><path stroke="#b2c2bd" d="M200,552A21,21 0,0,0 200,510"></path><path stroke="#ff0000" d="M200,188A70,70 0,0,0 200,48"></path><path stroke="#b2c2bd" d="M200,48A7,7 0,0,1 200,62"></path><path stroke="#b2c2bd" d="M200,328A133,133 0,0,0 200,62"></path><path stroke="#b2c2bd" d="M200,1112A91,91 0,0,0 200,930"></path><path stroke="#b2c2bd" d="M200,720A133,133 0,0,0 200,454"></path><path stroke="#6d93c7" d="M200,1504A119,119 0,0,0 200,1266"></path><path stroke="#b2c2bd" d="M200,1266A70,70 0,0,0 200,1126"></path><path stroke="#b2c2bd" d="M200,1266A112,112 0,0,0 200,1042"></path><path stroke="#b2c2bd" d="M200,1266A182,182 0,0,0 200,902"></path><path stroke="#b2c2bd" d="M200,1266A140,140 0,0,0 200,986"></path><path stroke="#b2c2bd" d="M200,1266A189,189 0,0,0 200,888"></path><path stroke="#b2c2bd" d="M200,1266A84,84 0,0,0 200,1098"></path><path stroke="#b2c2bd" d="M200,1266A154,154 0,0,0 200,958"></path><path stroke="#b2c2bd" d="M200,1266A238,238 0,0,0 200,790"></path><path stroke="#b2c2bd" d="M200,622A140,140 0,0,0 200,342"></path><path stroke="#65dbb7" d="M200,1098A392,392 0,0,0 200,314"></path><path stroke="#b2c2bd" d="M200,1098A231,231 0,0,0 200,636"></path><path stroke="#b2c2bd" d="M200,1098A238,238 0,0,0 200,622"></path><path stroke="#b2c2bd" d="M200,1098A140,140 0,0,0 200,818"></path><path stroke="#b2c2bd" d="M200,818A98,98 0,0,0 200,622"></path><path stroke="#b2c2bd" d="M200,818A154,154 0,0,0 200,510"></path><path stroke="#b2c2bd" d="M200,1042A231,231 0,0,0 200,580"></path><path stroke="#b2c2bd" d="M200,1126A273,273 0,0,0 200,580"></path><path stroke="#b2c2bd" d="M200,1294A238,238 0,0,0 200,818"></path><path stroke="#b2c2bd" d="M200,1294A273,273 0,0,0 200,748"></path><path stroke="#b2c2bd" d="M200,1294A280,280 0,0,0 200,734"></path><path stroke="#b2c2bd" d="M200,1294A231,231 0,0,0 200,832"></path><path stroke="#b2c2bd" d="M200,832A91,91 0,0,0 200,650"></path><path stroke="#b2c2bd" d="M200,650A161,161 0,0,0 200,328"></path><path stroke="#b2c2bd" d="M200,916A119,119 0,0,0 200,678"></path><path stroke="#b2c2bd" d="M200,734A28,28 0,0,0 200,678"></path><path stroke="#b2c2bd" d="M200,748A35,35 0,0,0 200,678"></path><path stroke="#b2c2bd" d="M200,678A77,77 0,0,0 200,524"></path><path stroke="#b2c2bd" d="M200,678A126,126 0,0,0 200,426"></path><path stroke="#b2c2bd" d="M200,678A210,210 0,0,0 200,258"></path><path stroke="#b2c2bd" d="M200,678A56,56 0,0,0 200,566"></path><path stroke="#b2c2bd" d="M200,1084A336,336 0,0,0 200,412"></path><path stroke="#b2c2bd" d="M200,1322A21,21 0,0,0 200,1280"></path><path stroke="#b2c2bd" d="M200,1280A98,98 0,0,0 200,1084"></path><path stroke="#b2c2bd" d="M200,202A56,56 0,0,0 200,90"></path><path stroke="#b2c2bd" d="M200,1350A28,28 0,0,0 200,1294"></path><path stroke="#6d93c7" d="M200,1588A119,119 0,0,0 200,1350"></path><path stroke="#6d93c7" d="M200,1350A252,252 0,0,0 200,846"></path><path stroke="#6d93c7" d="M200,1616A14,14 0,0,0 200,1588"></path><path stroke="#b2c2bd" d="M200,1630A7,7 0,0,0 200,1616"></path><path stroke="#65dbb7" d="M200,622A154,154 0,0,0 200,314"></path><path stroke="#b2c2bd" d="M200,804A49,49 0,0,1 200,902"></path><path stroke="#b2c2bd" d="M200,314A91,91 0,0,0 200,132"></path><path stroke="#b2c2bd" d="M200,1476A105,105 0,0,0 200,1266"></path></g><g font-family="sans-serif" font-size="10" text-anchor="end"><g transform="translate(200,1336)"><text x="-6" dy="0.35em">Moritz Lazarus (1824 - 1903)</text><circle r="3"></circle></g><g transform="translate(200,1350)"><text x="-6" dy="0.35em">Heymann Steinthal (1823 - 1899)</text><circle r="3"></circle></g><g transform="translate(200,846)"><text x="-6" dy="0.35em">Franz Boas (1859 - 1942)</text><circle r="3"></circle></g><g transform="translate(200,468)"><text x="-6" dy="0.35em">Ruth Benedict (1887 - 1948)</text><circle r="3"></circle></g><g transform="translate(200,300)"><text x="-6" dy="0.35em">Margaret Mead (1901 - 1978)</text><circle r="3"></circle></g><g transform="translate(200,1588)"><text x="-6" dy="0.35em">Wilhelm von Humboldt (1767 - 1835)</text><circle r="3"></circle></g><g transform="translate(200,1574)"><text x="-6" dy="0.35em">Friedrich von Schlegel (1772 - 1829)</text><circle r="3"></circle></g><g transform="translate(200,1546)"><text x="-6" dy="0.35em">Jacob Grimm (1785 - 1863)</text><circle r="3"></circle></g><g transform="translate(200,1532)"><text x="-6" dy="0.35em">Rasmus Rask (1787 - 1832)</text><circle r="3"></circle></g><g transform="translate(200,1518)"><text x="-6" dy="0.35em">Franz Bopp (1791 - 1867)</text><circle r="3"></circle></g><g transform="translate(200,1448)"><text x="-6" dy="0.35em">Hermann Grassmann (1809 - 1877)</text><circle r="3"></circle></g><g transform="translate(200,1434)"><text x="-6" dy="0.35em">Karl Richard Lepsius (1810 - 1884)</text><circle r="3"></circle></g><g transform="translate(200,1406)"><text x="-6" dy="0.35em">Georg Curtius (1820 - 1886)</text><circle r="3"></circle></g><g transform="translate(200,1378)"><text x="-6" dy="0.35em">Auguste  Schleicher (1821 - 1868)</text><circle r="3"></circle></g><g transform="translate(200,1364)"><text x="-6" dy="0.35em">F. Max Mueller (1823 - 1900)</text><circle r="3"></circle></g><g transform="translate(200,1308)"><text x="-6" dy="0.35em">William Dwight Whitney (1827 - 1894)</text><circle r="3"></circle></g><g transform="translate(200,1280)"><text x="-6" dy="0.35em">Michel  Breal (1832 - 1915)</text><circle r="3"></circle></g><g transform="translate(200,1224)"><text x="-6" dy="0.35em">Auguste  Leskien (1840 - 1916)</text><circle r="3"></circle></g><g transform="translate(200,1182)"><text x="-6" dy="0.35em">Berthold Delbruek (1842 - 1922)</text><circle r="3"></circle></g><g transform="translate(200,1196)"><text x="-6" dy="0.35em">Hugo Schuchardt (1842 - 1927)</text><circle r="3"></circle></g><g transform="translate(200,1154)"><text x="-6" dy="0.35em">Jan  Baudouin de Courtenay (1845 - 1929)</text><circle r="3"></circle></g><g transform="translate(200,1140)"><text x="-6" dy="0.35em">Hermann Paul (1846 - 1921)</text><circle r="3"></circle></g><g transform="translate(200,1112)"><text x="-6" dy="0.35em">Hermann Osthoff (1847 - 1909)</text><circle r="3"></circle></g><g transform="translate(200,1084)"><text x="-6" dy="0.35em">F.F. Fortunatov (1848 - 1914)</text><circle r="3"></circle></g><g transform="translate(200,1070)"><text x="-6" dy="0.35em">Karl Brugmann (1849 - 1919)</text><circle r="3"></circle></g><g transform="translate(200,1014)"><text x="-6" dy="0.35em">Charles R. Lanman (1850 - 1941)</text><circle r="3"></circle></g><g transform="translate(200,1028)"><text x="-6" dy="0.35em">Eduard Sievers (1850 - 1932)</text><circle r="3"></circle></g><g transform="translate(200,1000)"><text x="-6" dy="0.35em">Mikolay Kruszewski (1851 - 1887)</text><circle r="3"></circle></g><g transform="translate(200,972)"><text x="-6" dy="0.35em">Maurice Bloomfield (1855 - 1928)</text><circle r="3"></circle></g><g transform="translate(200,944)"><text x="-6" dy="0.35em">William Rainey Harper (1856 - 1906)</text><circle r="3"></circle></g><g transform="translate(200,930)"><text x="-6" dy="0.35em">Ferdinand de Saussure (1857 - 1913)</text><circle r="3"></circle></g><g transform="translate(200,860)"><text x="-6" dy="0.35em">Paul  Passy (1859 - 1913)</text><circle r="3"></circle></g><g transform="translate(200,762)"><text x="-6" dy="0.35em">Carl Buck (1866 - 1955)</text><circle r="3"></circle></g><g transform="translate(200,776)"><text x="-6" dy="0.35em">Antoine Meillet (1866 - 1936)</text><circle r="3"></circle></g><g transform="translate(200,580)"><text x="-6" dy="0.35em">Vilem Mathesius (1882 - 1945)</text><circle r="3"></circle></g><g transform="translate(200,538)"><text x="-6" dy="0.35em">Serge Karchevsky (1884 - 1955)</text><circle r="3"></circle></g><g transform="translate(200,552)"><text x="-6" dy="0.35em">Edward Sapir (1884 - 1939)</text><circle r="3"></circle></g><g transform="translate(200,482)"><text x="-6" dy="0.35em">Leonard Bloomfield (1887 - 1949)</text><circle r="3"></circle></g><g transform="translate(200,412)"><text x="-6" dy="0.35em">Nikolai Trubetzkoy (1890 - 1938)</text><circle r="3"></circle></g><g transform="translate(200,370)"><text x="-6" dy="0.35em">E.D. Polivanov (1891 - 1938)</text><circle r="3"></circle></g><g transform="translate(200,328)"><text x="-6" dy="0.35em">Roman Jakobson (1896 - 1982)</text><circle r="3"></circle></g><g transform="translate(200,272)"><text x="-6" dy="0.35em">Rene Wellek (1903 - 1995)</text><circle r="3"></circle></g><g transform="translate(200,244)"><text x="-6" dy="0.35em">Harry Hoijer (1904 - 1976)</text><circle r="3"></circle></g><g transform="translate(200,216)"><text x="-6" dy="0.35em">Stanley Newman (1905 - 1984)</text><circle r="3"></circle></g><g transform="translate(200,230)"><text x="-6" dy="0.35em">Kenneth Pike (1905 - 1984)</text><circle r="3"></circle></g><g transform="translate(200,188)"><text x="-6" dy="0.35em">Zellig S. Harris (1906 - 1986)</text><circle r="3"></circle></g><g transform="translate(200,202)"><text x="-6" dy="0.35em">Carl Voegelin (1906 - 1986)</text><circle r="3"></circle></g><g transform="translate(200,174)"><text x="-6" dy="0.35em">Andre Martinet (1908 - 1999)</text><circle r="3"></circle></g><g transform="translate(200,160)"><text x="-6" dy="0.35em">Morris  Swadesh (1909 - 1967)</text><circle r="3"></circle></g><g transform="translate(200,146)"><text x="-6" dy="0.35em">Mary Haas (1910 - 1996)</text><circle r="3"></circle></g><g transform="translate(200,104)"><text x="-6" dy="0.35em">Charles R. Hockett (1916 - 2000)</text><circle r="3"></circle></g><g transform="translate(200,118)"><text x="-6" dy="0.35em">Winfred Lehmann (1916 - 2007)</text><circle r="3"></circle></g><g transform="translate(200,90)"><text x="-6" dy="0.35em">Paul  Garvin (1919 - 1994)</text><circle r="3"></circle></g><g transform="translate(200,62)"><text x="-6" dy="0.35em">Morris Halle (1923 - 2018)</text><circle r="3"></circle></g><g transform="translate(200,48)"><text x="-6" dy="0.35em">Noam Chomsky (1928 - ____)</text><circle r="3"></circle></g><g transform="translate(200,20)"><text x="-6" dy="0.35em">Sydney Lamb (1929 - ____)</text><circle r="3"></circle></g><g transform="translate(200,34)"><text x="-6" dy="0.35em">Anthony Oettinger (1929 - 1994)</text><circle r="3"></circle></g><g transform="translate(200,790)"><text x="-6" dy="0.35em">Kasimir Twardowski (1866 - 1938)</text><circle r="3"></circle></g><g transform="translate(200,664)"><text x="-6" dy="0.35em">Jan  Lukasiewicz (1878 - 1956)</text><circle r="3"></circle></g><g transform="translate(200,496)"><text x="-6" dy="0.35em">Stanislaw  Le\'sniewski (1886 - 1939)</text><circle r="3"></circle></g><g transform="translate(200,1168)"><text x="-6" dy="0.35em">Georg Cantor (1845 - 1918)</text><circle r="3"></circle></g><g transform="translate(200,804)"><text x="-6" dy="0.35em">David Hilbert (1862 - 1943)</text><circle r="3"></circle></g><g transform="translate(200,1616)"><text x="-6" dy="0.35em">Johann Gottfried Herder (1744 - 1803)</text><circle r="3"></circle></g><g transform="translate(200,1042)"><text x="-6" dy="0.35em">Tomas Masaryk (1850 - 1937)</text><circle r="3"></circle></g><g transform="translate(200,1056)"><text x="-6" dy="0.35em">Lev Shcherba (1850 - 1944)</text><circle r="3"></circle></g><g transform="translate(200,874)"><text x="-6" dy="0.35em">John Dewey (1859 - 1952)</text><circle r="3"></circle></g><g transform="translate(200,1630)"><text x="-6" dy="0.35em">Immanuel Kant (1724 - 1804)</text><circle r="3"></circle></g><g transform="translate(200,1602)"><text x="-6" dy="0.35em">Johann Gottleib Fichte (1762 - 1814)</text><circle r="3"></circle></g><g transform="translate(200,1560)"><text x="-6" dy="0.35em">Friedrich Hegel (1776 - 1841)</text><circle r="3"></circle></g><g transform="translate(200,1504)"><text x="-6" dy="0.35em">Auguste  Comte (1798 - 1857)</text><circle r="3"></circle></g><g transform="translate(200,1476)"><text x="-6" dy="0.35em">Friedrich Trendelenberg (1802 - 1872)</text><circle r="3"></circle></g><g transform="translate(200,1462)"><text x="-6" dy="0.35em">John Stuart Mill  (1806 - 1873)</text><circle r="3"></circle></g><g transform="translate(200,1238)"><text x="-6" dy="0.35em">Charles Sanders  Peirce (1839 - 1914)</text><circle r="3"></circle></g><g transform="translate(200,1126)"><text x="-6" dy="0.35em">Anton Marty (1847 - 1914)</text><circle r="3"></circle></g><g transform="translate(200,986)"><text x="-6" dy="0.35em">Alexis Meinong (1853 - 1920)</text><circle r="3"></circle></g><g transform="translate(200,888)"><text x="-6" dy="0.35em">Christian von Ehrenfels (1859 - 1932)</text><circle r="3"></circle></g><g transform="translate(200,902)"><text x="-6" dy="0.35em">Edmund Husserl (1859 - 1938)</text><circle r="3"></circle></g><g transform="translate(200,720)"><text x="-6" dy="0.35em">Bertrand Russell (1872 - 1970)</text><circle r="3"></circle></g><g transform="translate(200,692)"><text x="-6" dy="0.35em">Ernst Cassirer (1874 - 1945)</text><circle r="3"></circle></g><g transform="translate(200,594)"><text x="-6" dy="0.35em">Otto Neurath (1882 - 1945)</text><circle r="3"></circle></g><g transform="translate(200,608)"><text x="-6" dy="0.35em">Moritz Schlick (1882 - 1936)</text><circle r="3"></circle></g><g transform="translate(200,454)"><text x="-6" dy="0.35em">Ludwig Wittgenstein (1889 - 1953)</text><circle r="3"></circle></g><g transform="translate(200,384)"><text x="-6" dy="0.35em">Rudolf Carnap (1891 - 1970)</text><circle r="3"></circle></g><g transform="translate(200,398)"><text x="-6" dy="0.35em">Hans Reichenbach (1891 - 1953)</text><circle r="3"></circle></g><g transform="translate(200,356)"><text x="-6" dy="0.35em">Alelxander Koyre (1892 - 1964)</text><circle r="3"></circle></g><g transform="translate(200,1266)"><text x="-6" dy="0.35em">Franz Brentano (1838 - 1917)</text><circle r="3"></circle></g><g transform="translate(200,1490)"><text x="-6" dy="0.35em">Gustav Fechner (1801 - 1887)</text><circle r="3"></circle></g><g transform="translate(200,1420)"><text x="-6" dy="0.35em">Hermann Lotze (1817 - 1881)</text><circle r="3"></circle></g><g transform="translate(200,1294)"><text x="-6" dy="0.35em">Wilhelm   Wundt (1832 - 1910)</text><circle r="3"></circle></g><g transform="translate(200,1252)"><text x="-6" dy="0.35em">Theodule Ribot (1839 - 1916)</text><circle r="3"></circle></g><g transform="translate(200,1210)"><text x="-6" dy="0.35em">Wililam James (1842 - 1949)</text><circle r="3"></circle></g><g transform="translate(200,1098)"><text x="-6" dy="0.35em">Carl Stumpf (1848 - 1936)</text><circle r="3"></circle></g><g transform="translate(200,958)"><text x="-6" dy="0.35em">Sigmund Freud (1856 - 1939)</text><circle r="3"></circle></g><g transform="translate(200,916)"><text x="-6" dy="0.35em">Jacques Loeb (1859 - 1924)</text><circle r="3"></circle></g><g transform="translate(200,818)"><text x="-6" dy="0.35em">Oswald Kulpe (1862 - 1915)</text><circle r="3"></circle></g><g transform="translate(200,748)"><text x="-6" dy="0.35em">Edward Titchener (1867 - 1927)</text><circle r="3"></circle></g><g transform="translate(200,734)"><text x="-6" dy="0.35em">James  Angell (1869 - 1949)</text><circle r="3"></circle></g><g transform="translate(200,706)"><text x="-6" dy="0.35em">Max  Meyer (1873 - 1967)</text><circle r="3"></circle></g><g transform="translate(200,678)"><text x="-6" dy="0.35em">John B. Watson (1878 - 1958)</text><circle r="3"></circle></g><g transform="translate(200,636)"><text x="-6" dy="0.35em">Herbert S. Langfeld (1879 - 1958)</text><circle r="3"></circle></g><g transform="translate(200,622)"><text x="-6" dy="0.35em">Max Wertheimer (1880 - 1943)</text><circle r="3"></circle></g><g transform="translate(200,566)"><text x="-6" dy="0.35em">Clark Hull (1884 - 1952)</text><circle r="3"></circle></g><g transform="translate(200,510)"><text x="-6" dy="0.35em">Kurt Koffka (1886 - 1941)</text><circle r="3"></circle></g><g transform="translate(200,524)"><text x="-6" dy="0.35em">Edward Tolman (1886 - 1959)</text><circle r="3"></circle></g><g transform="translate(200,426)"><text x="-6" dy="0.35em">Karl Lashley (1890 - 1958)</text><circle r="3"></circle></g><g transform="translate(200,440)"><text x="-6" dy="0.35em">Kurt Lewin (1890 - 1947)</text><circle r="3"></circle></g><g transform="translate(200,342)"><text x="-6" dy="0.35em">Fritz Heider (1896 - 1988)</text><circle r="3"></circle></g><g transform="translate(200,314)"><text x="-6" dy="0.35em">Gordon Allport (1897 - 1967)</text><circle r="3"></circle></g><g transform="translate(200,258)"><text x="-6" dy="0.35em">B.F. Skinner (1904 - 1990)</text><circle r="3"></circle></g><g transform="translate(200,132)"><text x="-6" dy="0.35em">Jerome Bruner (1915 - 2018)</text><circle r="3"></circle></g><g transform="translate(200,832)"><text x="-6" dy="0.35em">Georgi Chelpanov (1862 - 1936)</text><circle r="3"></circle></g><g transform="translate(200,650)"><text x="-6" dy="0.35em">Gustav Shpet (1879 - 1937)</text><circle r="3"></circle></g><g transform="translate(200,286)"><text x="-6" dy="0.35em">Erwin Reifler (1903 - 1965)</text><circle r="3"></circle></g><g transform="translate(200,76)"><text x="-6" dy="0.35em">Victor Yngve (1920 - 2012)</text><circle r="3"></circle></g><g transform="translate(200,1392)"><text x="-6" dy="0.35em">Rudolph von Roth (1821 - 1895)</text><circle r="3"></circle></g><g transform="translate(200,1322)"><text x="-6" dy="0.35em">Albrecht Weber (1825 - 1932)</text><circle r="3"></circle></g></g></svg>
